<svg xmlns="http://www.w3.org/2000/svg" width="48" height="48" fill="none" viewBox="0 0 48 48"><path id="Background" fill="url(#paint0_linear_721_5647)" d="M47.9968 13.2396C47.994 12.7595 47.9885 12.2796 47.9751 11.7997C47.9469 10.7539 47.8855 9.69918 47.6995 8.66502C47.5108 7.61594 47.2029 6.6396 46.7174 5.68638C46.2402 4.74955 45.6168 3.89224 44.873 3.149C44.1294 2.40576 43.2719 1.78281 42.3347 1.3059C41.3805 0.820366 40.4031 0.512446 39.3529 0.323882C38.3186 0.138174 37.2636 0.0766015 36.2178 0.0483494C35.7376 0.0353591 35.2574 0.0298834 34.7772 0.0269125C34.207 0.0234174 33.6368 0.0237086 33.0666 0.0237086L26.4464 0H21.495L14.9919 0.0237086C14.4206 0.0237086 13.8493 0.0234174 13.2781 0.0269125C12.7968 0.0298834 12.3157 0.0353591 11.8346 0.0483494C10.7864 0.0766015 9.72895 0.138233 8.69225 0.324174C7.64063 0.512677 6.66175 0.820482 5.70632 1.30566C4.76709 1.78263 3.90772 2.40564 3.16256 3.149C2.41752 3.89218 1.793 4.74932 1.31492 5.68602C0.828171 6.63965 0.519549 7.61659 0.330463 8.66626C0.14429 9.69997 0.0826015 10.7544 0.0542326 11.7997C0.0413007 12.2796 0.0357085 12.7596 0.0327959 13.2396C0.0293008 13.8095 0 14.5175 0 15.0873V21.5003V26.5048L0.029592 33.054C0.029592 33.6246 0.029359 34.1953 0.0327959 34.7659C0.0357085 35.2466 0.0413007 35.7272 0.0542908 36.2077C0.0826015 37.2548 0.144407 38.3112 0.330755 39.3467C0.519785 40.3972 0.828342 41.3749 1.31469 42.3293C1.79282 43.2675 2.41746 44.1259 3.16256 44.8702C3.90766 45.6145 4.76682 46.2383 5.70586 46.716C6.66189 47.202 7.64118 47.5103 8.69349 47.6991C9.72969 47.8851 10.7868 47.9469 11.8346 47.9751C12.3157 47.988 12.7968 47.9935 13.2781 47.9968C13.8494 48 14.4206 48 14.9919 48H21.5538H26.5175H33.0666C33.6368 48 34.207 48 34.7772 47.9968C35.2574 47.9935 35.7376 47.988 36.2178 47.9751C37.264 47.9469 38.3194 47.8851 39.3541 47.6991C40.4037 47.5103 41.3807 47.202 42.3343 46.716C43.2717 46.2383 44.1294 45.6146 44.873 44.8702C45.6167 44.126 46.2402 43.2678 46.7174 42.3297C47.2029 41.3748 47.5108 40.3966 47.6995 39.3455C47.8855 38.3103 47.9469 37.2545 47.9755 36.2077C47.9885 35.7271 47.994 35.2465 47.9968 34.7659C48 34.1953 48 33.6246 48 33.054C48 33.054 48 26.6204 48 26.5048V21.495C48 21.4097 48 14.9491 48 14.9491C48 14.3793 48 13.8095 47.9968 13.2396Z"/><defs><linearGradient id="paint0_linear_721_5647" x1="47.961" x2="47.961" y1="47.923" y2="0" gradientUnits="userSpaceOnUse"><stop stop-color="#FFFFFE"/><stop offset="1" stop-color="#fff"/></linearGradient></defs></svg>