<svg xmlns="http://www.w3.org/2000/svg" width="52" height="53" fill="none" viewBox="0 0 52 53"><g filter="url(#filter0_d_99_36750)"><path fill="#fff" d="M49.9968 15.2396C49.994 14.7595 49.9885 14.2796 49.9751 13.7997C49.9469 12.7539 49.8855 11.6992 49.6995 10.665C49.5108 9.61594 49.2029 8.6396 48.7174 7.68638C48.2402 6.74955 47.6168 5.89224 46.873 5.149C46.1294 4.40576 45.2719 3.78281 44.3347 3.3059C43.3805 2.82037 42.4031 2.51245 41.3529 2.32388C40.3186 2.13817 39.2636 2.0766 38.2178 2.04835C37.7376 2.03536 37.2574 2.02988 36.7772 2.02691C36.207 2.02342 35.6368 2.02371 35.0666 2.02371L28.4464 2H23.495L16.9919 2.02371C16.4206 2.02371 15.8493 2.02342 15.2781 2.02691C14.7968 2.02988 14.3157 2.03536 13.8346 2.04835C12.7864 2.0766 11.729 2.13823 10.6922 2.32417C9.64063 2.51268 8.66175 2.82048 7.70632 3.30566C6.76709 3.78263 5.90772 4.40564 5.16256 5.149C4.41752 5.89218 3.793 6.74932 3.31492 7.68602C2.82817 8.63965 2.51955 9.61659 2.33046 10.6663C2.14429 11.7 2.0826 12.7544 2.05423 13.7997C2.0413 14.2796 2.03571 14.7596 2.0328 15.2396C2.0293 15.8095 2 16.5175 2 17.0873V23.5003V28.5048L2.02959 35.054C2.02959 35.6246 2.02936 36.1953 2.0328 36.7659C2.03571 37.2466 2.0413 37.7272 2.05429 38.2077C2.0826 39.2548 2.14441 40.3112 2.33075 41.3467C2.51978 42.3972 2.82834 43.3749 3.31469 44.3293C3.79282 45.2675 4.41746 46.1259 5.16256 46.8702C5.90766 47.6145 6.76682 48.2383 7.70586 48.716C8.66189 49.202 9.64118 49.5103 10.6935 49.6991C11.7297 49.8851 12.7868 49.9469 13.8346 49.9751C14.3157 49.988 14.7968 49.9935 15.2781 49.9968C15.8494 50 16.4206 50 16.9919 50H23.5538H28.5175H35.0666C35.6368 50 36.207 50 36.7772 49.9968C37.2574 49.9935 37.7376 49.988 38.2178 49.9751C39.264 49.9469 40.3194 49.8851 41.3541 49.6991C42.4037 49.5103 43.3807 49.202 44.3343 48.716C45.2717 48.2383 46.1294 47.6146 46.873 46.8702C47.6167 46.126 48.2402 45.2678 48.7174 44.3297C49.2029 43.3748 49.5108 42.3966 49.6995 41.3455C49.8855 40.3103 49.9469 39.2545 49.9755 38.2077C49.9885 37.7271 49.994 37.2465 49.9968 36.7659C50 36.1953 50 35.6246 50 35.054C50 35.054 50 28.6204 50 28.5048V23.495C50 23.4097 50 16.9491 50 16.9491C50 16.3793 50 15.8095 49.9968 15.2396Z"/><mask id="mask0_99_36750" style="mask-type:luminance" width="48" height="48" x="2" y="2" maskUnits="userSpaceOnUse"><path fill="#fff" d="M49.9968 15.2396C49.994 14.7595 49.9885 14.2796 49.9751 13.7997C49.9469 12.7539 49.8855 11.6992 49.6995 10.665C49.5108 9.61594 49.2029 8.6396 48.7174 7.68638C48.2402 6.74955 47.6168 5.89224 46.873 5.149C46.1294 4.40576 45.2719 3.78281 44.3347 3.3059C43.3805 2.82037 42.4031 2.51245 41.3529 2.32388C40.3186 2.13817 39.2636 2.0766 38.2178 2.04835C37.7376 2.03536 37.2574 2.02988 36.7772 2.02691C36.207 2.02342 35.6368 2.02371 35.0666 2.02371L28.4464 2H23.495L16.9919 2.02371C16.4206 2.02371 15.8493 2.02342 15.2781 2.02691C14.7968 2.02988 14.3157 2.03536 13.8346 2.04835C12.7864 2.0766 11.729 2.13823 10.6922 2.32417C9.64063 2.51268 8.66175 2.82048 7.70632 3.30566C6.76709 3.78263 5.90772 4.40564 5.16256 5.149C4.41752 5.89218 3.793 6.74932 3.31492 7.68602C2.82817 8.63965 2.51955 9.61659 2.33046 10.6663C2.14429 11.7 2.0826 12.7544 2.05423 13.7997C2.0413 14.2796 2.03571 14.7596 2.0328 15.2396C2.0293 15.8095 2 16.5175 2 17.0873V23.5003V28.5048L2.02959 35.054C2.02959 35.6246 2.02936 36.1953 2.0328 36.7659C2.03571 37.2466 2.0413 37.7272 2.05429 38.2077C2.0826 39.2548 2.14441 40.3112 2.33075 41.3467C2.51978 42.3972 2.82834 43.3749 3.31469 44.3293C3.79282 45.2675 4.41746 46.1259 5.16256 46.8702C5.90766 47.6145 6.76682 48.2383 7.70586 48.716C8.66189 49.202 9.64118 49.5103 10.6935 49.6991C11.7297 49.8851 12.7868 49.9469 13.8346 49.9751C14.3157 49.988 14.7968 49.9935 15.2781 49.9968C15.8494 50 16.4206 50 16.9919 50H23.5538H28.5175H35.0666C35.6368 50 36.207 50 36.7772 49.9968C37.2574 49.9935 37.7376 49.988 38.2178 49.9751C39.264 49.9469 40.3194 49.8851 41.3541 49.6991C42.4037 49.5103 43.3807 49.202 44.3343 48.716C45.2717 48.2383 46.1294 47.6146 46.873 46.8702C47.6167 46.126 48.2402 45.2678 48.7174 44.3297C49.2029 43.3748 49.5108 42.3966 49.6995 41.3455C49.8855 40.3103 49.9469 39.2545 49.9755 38.2077C49.9885 37.7271 49.994 37.2465 49.9968 36.7659C50 36.1953 50 35.6246 50 35.054C50 35.054 50 28.6204 50 28.5048V23.495C50 23.4097 50 16.9491 50 16.9491C50 16.3793 50 15.8095 49.9968 15.2396Z"/></mask><g mask="url(#mask0_99_36750)"><g opacity=".6"><g filter="url(#filter1_f_99_36750)"><path fill="url(#paint0_linear_99_36750)" fill-rule="evenodd" d="M26.0887 6.7124C29.6233 6.7124 32.4887 9.57778 32.4887 13.1124V19.9568C32.4887 23.4915 29.6233 26.3568 26.0887 26.3568C22.5541 26.3568 19.6887 23.4915 19.6887 19.9568V13.1124C19.6887 9.57778 22.5541 6.7124 26.0887 6.7124Z" clip-rule="evenodd"/></g><g filter="url(#filter2_f_99_36750)"><path fill="url(#paint1_linear_99_36750)" fill-rule="evenodd" d="M26.0887 28.9351C29.6233 28.9351 32.4887 31.8004 32.4887 35.3351V42.1795C32.4887 45.7141 29.6233 48.5795 26.0887 48.5795C22.5541 48.5795 19.6887 45.7141 19.6887 42.1795V35.3351C19.6887 31.8004 22.5541 28.9351 26.0887 28.9351Z" clip-rule="evenodd"/></g><g filter="url(#filter3_f_99_36750)"><path fill="url(#paint2_linear_99_36750)" fill-rule="evenodd" d="M47.0221 27.6456C47.0221 31.1802 44.1568 34.0456 40.6221 34.0456H33.7777C30.2431 34.0456 27.3777 31.1802 27.3777 27.6456C27.3777 24.111 30.2431 21.2456 33.7777 21.2456L40.6221 21.2456C44.1568 21.2456 47.0221 24.111 47.0221 27.6456Z" clip-rule="evenodd"/></g><g filter="url(#filter4_f_99_36750)"><path fill="url(#paint3_linear_99_36750)" fill-rule="evenodd" d="M24.7998 27.6456C24.7998 31.1802 21.9345 34.0456 18.3998 34.0456H11.5554C8.02077 34.0456 5.1554 31.1802 5.1554 27.6456C5.1554 24.111 8.02077 21.2456 11.5554 21.2456L18.3998 21.2456C21.9345 21.2456 24.7998 24.111 24.7998 27.6456Z" clip-rule="evenodd"/></g><g filter="url(#filter5_f_99_36750)"><path fill="url(#paint4_linear_99_36750)" fill-rule="evenodd" d="M40.8908 12.8435C43.3902 15.3429 43.3902 19.3951 40.8908 21.8945L36.0511 26.7342C33.5517 29.2336 29.4995 29.2336 27.0001 26.7342C24.5008 24.2349 24.5008 20.1826 27.0001 17.6833L31.8399 12.8435C34.3392 10.3442 38.3915 10.3442 40.8908 12.8435Z" clip-rule="evenodd"/></g><g filter="url(#filter6_f_99_36750)"><path fill="url(#paint5_linear_99_36750)" fill-rule="evenodd" d="M25.1772 28.5576C27.6766 31.057 27.6766 35.1092 25.1772 37.6086L20.3375 42.4483C17.8381 44.9477 13.7859 44.9477 11.2865 42.4483C8.78715 39.949 8.78715 35.8967 11.2865 33.3974L16.1263 28.5576C18.6256 26.0583 22.6779 26.0583 25.1772 28.5576Z" clip-rule="evenodd"/></g><g filter="url(#filter7_f_99_36750)"><path fill="url(#paint6_linear_99_36750)" fill-rule="evenodd" d="M40.8908 42.4483C38.3915 44.9477 34.3392 44.9477 31.8399 42.4483L27.0001 37.6086C24.5008 35.1092 24.5008 31.057 27.0001 28.5576C29.4995 26.0583 33.5517 26.0583 36.0511 28.5576L40.8908 33.3974C43.3902 35.8967 43.3902 39.949 40.8908 42.4483Z" clip-rule="evenodd"/></g><g filter="url(#filter8_f_99_36750)"><path fill="url(#paint7_linear_99_36750)" fill-rule="evenodd" d="M25.1772 26.7342C22.6779 29.2336 18.6256 29.2336 16.1263 26.7342L11.2865 21.8945C8.78715 19.3951 8.78715 15.3429 11.2865 12.8435C13.7859 10.3442 17.8381 10.3442 20.3375 12.8435L25.1772 17.6833C27.6766 20.1826 27.6766 24.2349 25.1772 26.7342Z" clip-rule="evenodd"/></g></g><g filter="url(#filter9_f_99_36750)"><path fill="#000" fill-opacity=".41" fill-rule="evenodd" d="M26.0886 5.82275C29.6232 5.82275 32.4886 8.68813 32.4886 12.2228V19.0672C32.4886 22.6018 29.6232 25.4672 26.0886 25.4672C22.554 25.4672 19.6886 22.6018 19.6886 19.0672V12.2228C19.6886 8.68813 22.554 5.82275 26.0886 5.82275Z" clip-rule="evenodd"/></g><g filter="url(#filter10_f_99_36750)"><path fill="#000" fill-opacity=".41" fill-rule="evenodd" d="M26.0886 28.0454C29.6232 28.0454 32.4886 30.9108 32.4886 34.4454V41.2899C32.4886 44.8245 29.6232 47.6899 26.0886 47.6899C22.554 47.6899 19.6886 44.8245 19.6886 41.2899V34.4454C19.6886 30.9108 22.554 28.0454 26.0886 28.0454Z" clip-rule="evenodd"/></g><g filter="url(#filter11_f_99_36750)"><path fill="#000" fill-opacity=".41" fill-rule="evenodd" d="M47.022 26.756C47.022 30.2906 44.1566 33.156 40.622 33.156H33.7776C30.2429 33.156 27.3776 30.2906 27.3776 26.756C27.3776 23.2213 30.2429 20.356 33.7776 20.356L40.622 20.356C44.1566 20.356 47.022 23.2213 47.022 26.756Z" clip-rule="evenodd"/></g><g filter="url(#filter12_f_99_36750)"><path fill="#000" fill-opacity=".41" fill-rule="evenodd" d="M24.7998 26.756C24.7998 30.2906 21.9345 33.156 18.3998 33.156H11.5554C8.02077 33.156 5.1554 30.2906 5.1554 26.756C5.1554 23.2213 8.02077 20.356 11.5554 20.356L18.3998 20.356C21.9345 20.356 24.7998 23.2213 24.7998 26.756Z" clip-rule="evenodd"/></g><g filter="url(#filter13_f_99_36750)"><path fill="#000" fill-opacity=".41" fill-rule="evenodd" d="M40.8907 11.9539C43.3901 14.4532 43.3901 18.5055 40.8907 21.0048L36.051 25.8446C33.5516 28.3439 29.4994 28.3439 27 25.8446C24.5006 23.3452 24.5006 19.293 27 16.7936L31.8398 11.9539C34.3391 9.45451 38.3914 9.45451 40.8907 11.9539Z" clip-rule="evenodd"/></g><g filter="url(#filter14_f_99_36750)"><path fill="#000" fill-opacity=".41" fill-rule="evenodd" d="M25.1772 27.668C27.6766 30.1673 27.6766 34.2196 25.1772 36.7189L20.3375 41.5587C17.8381 44.0581 13.7859 44.0581 11.2865 41.5587C8.78715 39.0593 8.78715 35.0071 11.2865 32.5077L16.1263 27.668C18.6256 25.1686 22.6779 25.1686 25.1772 27.668Z" clip-rule="evenodd"/></g><g filter="url(#filter15_f_99_36750)"><path fill="#000" fill-opacity=".41" fill-rule="evenodd" d="M40.8907 41.5587C38.3914 44.0581 34.3391 44.0581 31.8398 41.5587L27 36.7189C24.5006 34.2196 24.5006 30.1673 27 27.668C29.4994 25.1686 33.5516 25.1686 36.051 27.668L40.8907 32.5077C43.3901 35.0071 43.3901 39.0593 40.8907 41.5587Z" clip-rule="evenodd"/></g><g filter="url(#filter16_f_99_36750)"><path fill="#000" fill-opacity=".41" fill-rule="evenodd" d="M25.1772 25.8446C22.6779 28.3439 18.6256 28.3439 16.1263 25.8446L11.2865 21.0048C8.78715 18.5055 8.78715 14.4532 11.2865 11.9539C13.7859 9.45451 17.8381 9.45451 20.3375 11.9539L25.1772 16.7936C27.6766 19.293 27.6766 23.3452 25.1772 25.8446Z" clip-rule="evenodd"/></g><path fill="url(#paint8_linear_99_36750)" fill-rule="evenodd" d="M26.0887 5.37939C29.6233 5.37939 32.4887 8.24477 32.4887 11.7794V18.6238C32.4887 22.1585 29.6233 25.0238 26.0887 25.0238C22.5541 25.0238 19.6887 22.1585 19.6887 18.6238V11.7794C19.6887 8.24477 22.5541 5.37939 26.0887 5.37939Z" clip-rule="evenodd"/><path fill="url(#paint9_linear_99_36750)" fill-rule="evenodd" d="M26.0887 27.6023C29.6233 27.6023 32.4887 30.4677 32.4887 34.0023V40.8467C32.4887 44.3814 29.6233 47.2467 26.0887 47.2467C22.5541 47.2467 19.6887 44.3814 19.6887 40.8467V34.0023C19.6887 30.4677 22.5541 27.6023 26.0887 27.6023Z" clip-rule="evenodd"/><path fill="url(#paint10_linear_99_36750)" fill-rule="evenodd" d="M47.0221 26.3128C47.0221 29.8475 44.1568 32.7128 40.6221 32.7128H33.7777C30.2431 32.7128 27.3777 29.8475 27.3777 26.3128C27.3777 22.7782 30.2431 19.9128 33.7777 19.9128L40.6221 19.9128C44.1568 19.9128 47.0221 22.7782 47.0221 26.3128Z" clip-rule="evenodd"/><path fill="url(#paint11_linear_99_36750)" fill-rule="evenodd" d="M24.8 26.3128C24.8 29.8475 21.9346 32.7128 18.4 32.7128H11.5555C8.0209 32.7128 5.15552 29.8475 5.15552 26.3128C5.15552 22.7782 8.0209 19.9128 11.5555 19.9128L18.4 19.9128C21.9346 19.9128 24.8 22.7782 24.8 26.3128Z" clip-rule="evenodd"/><path fill="url(#paint12_linear_99_36750)" fill-rule="evenodd" d="M40.8908 11.5107C43.3902 14.0101 43.3902 18.0624 40.8908 20.5617L36.0511 25.4015C33.5517 27.9008 29.4995 27.9008 27.0001 25.4015C24.5008 22.9021 24.5008 18.8499 27.0001 16.3505L31.8399 11.5107C34.3392 9.01139 38.3915 9.01139 40.8908 11.5107Z" clip-rule="evenodd"/><path fill="url(#paint13_linear_99_36750)" fill-rule="evenodd" d="M25.1773 27.2249C27.6767 29.7242 27.6767 33.7765 25.1773 36.2758L20.3376 41.1156C17.8382 43.6149 13.786 43.6149 11.2866 41.1156C8.78727 38.6162 8.78727 34.564 11.2866 32.0646L16.1264 27.2249C18.6257 24.7255 22.678 24.7255 25.1773 27.2249Z" clip-rule="evenodd"/><path fill="url(#paint14_linear_99_36750)" fill-rule="evenodd" d="M40.8908 41.1156C38.3915 43.6149 34.3392 43.6149 31.8399 41.1156L27.0001 36.2758C24.5008 33.7765 24.5008 29.7242 27.0001 27.2249C29.4995 24.7255 33.5517 24.7255 36.0511 27.2249L40.8908 32.0646C43.3902 34.564 43.3902 38.6162 40.8908 41.1156Z" clip-rule="evenodd"/><path fill="url(#paint15_linear_99_36750)" fill-rule="evenodd" d="M25.1773 25.4015C22.678 27.9008 18.6257 27.9008 16.1264 25.4015L11.2866 20.5617C8.78727 18.0624 8.78727 14.0101 11.2866 11.5107C13.786 9.01139 17.8382 9.01139 20.3376 11.5107L25.1773 16.3505C27.6767 18.8499 27.6767 22.9021 25.1773 25.4015Z" clip-rule="evenodd"/><path fill="url(#paint16_linear_99_36750)" fill-rule="evenodd" d="M20.3376 11.5095L25.1773 16.3492C27.5473 18.7192 27.67 22.4853 25.5455 24.9999C22.2651 24.7242 19.6887 21.9743 19.6887 18.6227V11.7783C19.6887 11.5079 19.7055 11.2415 19.738 10.98C19.9462 11.1418 20.1464 11.3183 20.3376 11.5095Z" clip-rule="evenodd"/><path fill="url(#paint17_linear_99_36750)" fill-rule="evenodd" d="M32.4887 34.0008V40.8452C32.4887 41.1156 32.472 41.3819 32.4395 41.6435C32.2312 41.4817 32.031 41.3051 31.8399 41.114L27.0001 36.2743C24.6302 33.9043 24.5075 30.1381 26.632 27.6235C29.9124 27.8993 32.4887 30.6492 32.4887 34.0008Z" clip-rule="evenodd"/><path fill="url(#paint18_linear_99_36750)" fill-rule="evenodd" d="M40.6221 19.9111C40.8924 19.9111 41.1588 19.9279 41.4203 19.9604C41.2585 20.1686 41.082 20.3689 40.8909 20.56L36.0511 25.3998C33.6811 27.7697 29.9149 27.8924 27.4004 25.7678C27.6762 22.4874 30.4261 19.9111 33.7776 19.9111H40.6221Z" clip-rule="evenodd"/><path fill="url(#paint19_linear_99_36750)" fill-rule="evenodd" d="M24.777 26.855L24.7694 26.9403C24.4536 30.1799 21.7224 32.7118 18.3998 32.7118H11.5554C11.2851 32.7118 11.0187 32.695 10.7572 32.6625C10.919 32.4543 11.0955 32.254 11.2866 32.0629L16.1264 27.2231C18.4963 24.8532 22.2625 24.7305 24.777 26.855Z" clip-rule="evenodd"/><path fill="url(#paint20_linear_99_36750)" fill-rule="evenodd" d="M11.5555 19.9111L18.3999 19.9111C21.7515 19.9111 24.5014 22.4874 24.7772 25.7677C22.2626 27.8924 18.4964 27.7697 16.1264 25.3998L11.2867 20.56C11.0955 20.3688 10.919 20.1686 10.7571 19.9607C11.0187 19.9279 11.2851 19.9111 11.5555 19.9111Z" clip-rule="evenodd"/><path fill="url(#paint21_linear_99_36750)" fill-rule="evenodd" d="M36.0511 27.2231L40.8909 32.0629C41.082 32.254 41.2585 32.4543 41.4204 32.6622C41.1588 32.695 40.8924 32.7118 40.6221 32.7118H33.7777C30.426 32.7118 27.6761 30.1354 27.4004 26.8551C29.915 24.7305 33.6812 24.8532 36.0511 27.2231Z" clip-rule="evenodd"/><path fill="url(#paint22_linear_99_36750)" fill-rule="evenodd" d="M31.8399 11.5096C32.031 11.3184 32.2312 11.1419 32.4391 10.98C32.472 11.2416 32.4887 11.508 32.4887 11.7783V18.6228C32.4887 21.9744 29.9124 24.7243 26.632 25C24.5075 22.4854 24.6302 18.7192 27.0001 16.3493L31.8399 11.5096Z" clip-rule="evenodd"/><path fill="url(#paint23_linear_99_36750)" fill-rule="evenodd" d="M25.5453 27.6235L25.6002 27.6893C27.6677 30.2033 27.5267 33.9249 25.1773 36.2743L20.3376 41.114C20.1465 41.3051 19.9462 41.4817 19.7383 41.6436C19.7055 41.3819 19.6887 41.1155 19.6887 40.8452L19.6887 34.0008C19.6887 30.6492 22.265 27.8993 25.5453 27.6235Z" clip-rule="evenodd"/><path fill="url(#paint24_linear_99_36750)" fill-rule="evenodd" d="M26.1157 24.2107L26.0888 24.2536C24.8048 22.1915 24.8049 19.5576 26.089 17.4956C27.3514 19.5229 27.3728 22.1029 26.153 24.1488L26.1157 24.2107Z" clip-rule="evenodd"/><path fill="url(#paint25_linear_99_36750)" fill-rule="evenodd" d="M26.1356 35.0516L26.0889 35.1279C24.8047 33.0658 24.8047 30.4318 26.0888 28.3696C27.3446 30.3861 27.3724 32.9493 26.1724 34.9899L26.1356 35.0516Z" clip-rule="evenodd"/><path fill="url(#paint26_linear_99_36750)" fill-rule="evenodd" d="M34.9047 26.3116L34.8993 26.3151C32.8381 27.5958 30.207 27.5948 28.1467 26.3119C30.2089 25.0276 32.8427 25.0276 34.9047 26.3116Z" clip-rule="evenodd"/><path fill="url(#paint27_linear_99_36750)" fill-rule="evenodd" d="M24.0308 26.3116L23.9879 26.3383C21.9323 27.5959 19.3206 27.587 17.2728 26.3118C19.3349 25.0276 21.9688 25.0276 24.0308 26.3116Z" clip-rule="evenodd"/><path fill="url(#paint28_linear_99_36750)" fill-rule="evenodd" d="M27.5933 24.8457L27.5439 24.8571C28.0942 22.4911 29.9566 20.6287 32.3227 20.0786C31.7819 22.4048 29.9726 24.2442 27.6634 24.8284L27.5933 24.8457Z" clip-rule="evenodd"/><path fill="url(#paint29_linear_99_36750)" fill-rule="evenodd" d="M19.9419 32.5241L19.855 32.545C20.4051 30.1788 22.2675 28.3163 24.6337 27.7661C24.0958 30.08 22.303 31.9121 20.0115 32.5065L19.9419 32.5241Z" clip-rule="evenodd"/><path fill="url(#paint30_linear_99_36750)" fill-rule="evenodd" d="M32.3227 32.5446L32.3165 32.5432C29.9533 31.9913 28.0936 30.1301 27.5439 27.7661C29.9102 28.3161 31.7726 30.1786 32.3227 32.5446Z" clip-rule="evenodd"/><path fill="url(#paint31_linear_99_36750)" fill-rule="evenodd" d="M24.6338 24.8571L24.5845 24.8457C22.2417 24.2813 20.4013 22.4283 19.855 20.0786C22.2211 20.6287 24.0836 22.4911 24.6338 24.8571Z" clip-rule="evenodd"/><g clip-path="url(#clip0_99_36750)"><g filter="url(#filter17_i_99_36750)"><path fill="#000" fill-opacity=".01" fill-rule="evenodd" d="M26.0891 5.37939C29.6237 5.37939 32.4891 8.24477 32.4891 11.7794V18.6238C32.4891 22.1585 29.6237 25.0238 26.0891 25.0238C22.5545 25.0238 19.6891 22.1585 19.6891 18.6238V11.7794C19.6891 8.24477 22.5545 5.37939 26.0891 5.37939Z" clip-rule="evenodd"/></g><g filter="url(#filter18_i_99_36750)"><path fill="#000" fill-opacity=".01" fill-rule="evenodd" d="M26.0891 27.6013C29.6237 27.6013 32.4891 30.4667 32.4891 34.0013V40.8458C32.4891 44.3804 29.6237 47.2458 26.0891 47.2458C22.5545 47.2458 19.6891 44.3804 19.6891 40.8458V34.0013C19.6891 30.4667 22.5545 27.6013 26.0891 27.6013Z" clip-rule="evenodd"/></g><g filter="url(#filter19_i_99_36750)"><path fill="#000" fill-opacity=".01" fill-rule="evenodd" d="M5.15576 26.3128C5.15576 22.7782 8.02114 19.9128 11.5558 19.9128H18.4002C21.9348 19.9128 24.8002 22.7782 24.8002 26.3128C24.8002 29.8475 21.9348 32.7128 18.4002 32.7128H11.5558C8.02114 32.7128 5.15576 29.8475 5.15576 26.3128Z" clip-rule="evenodd"/></g><g filter="url(#filter20_i_99_36750)"><path fill="#000" fill-opacity=".01" fill-rule="evenodd" d="M27.3779 26.3128C27.3779 22.7782 30.2433 19.9128 33.7779 19.9128H40.6224C44.157 19.9128 47.0224 22.7782 47.0224 26.3128C47.0224 29.8475 44.157 32.7128 40.6224 32.7128H33.7779C30.2433 32.7128 27.3779 29.8475 27.3779 26.3128Z" clip-rule="evenodd"/></g><g filter="url(#filter21_i_99_36750)"><path fill="#000" fill-opacity=".01" fill-rule="evenodd" d="M27.0004 25.4015C24.501 22.9021 24.501 18.8499 27.0004 16.3505L31.8401 11.5107C34.3395 9.01139 38.3917 9.01139 40.8911 11.5107C43.3904 14.0101 43.3904 18.0624 40.8911 20.5617L36.0513 25.4015C33.552 27.9008 29.4997 27.9008 27.0004 25.4015Z" clip-rule="evenodd"/></g><g filter="url(#filter22_i_99_36750)"><path fill="#000" fill-opacity=".01" fill-rule="evenodd" d="M11.2869 41.1144C8.78751 38.615 8.78751 34.5627 11.2869 32.0634L16.1266 27.2236C18.626 24.7243 22.6782 24.7243 25.1776 27.2236C27.6769 29.723 27.6769 33.7752 25.1776 36.2746L20.3378 41.1144C17.8385 43.6137 13.7862 43.6137 11.2869 41.1144Z" clip-rule="evenodd"/></g><g filter="url(#filter23_i_99_36750)"><path fill="#000" fill-opacity=".01" fill-rule="evenodd" d="M27.0004 27.2236C29.4997 24.7243 33.552 24.7243 36.0513 27.2236L40.8911 32.0634C43.3904 34.5627 43.3904 38.615 40.8911 41.1144C38.3917 43.6137 34.3395 43.6137 31.8401 41.1144L27.0004 36.2746C24.501 33.7752 24.501 29.723 27.0004 27.2236Z" clip-rule="evenodd"/></g><g filter="url(#filter24_i_99_36750)"><path fill="#000" fill-opacity=".01" fill-rule="evenodd" d="M11.2869 11.5107C13.7862 9.01139 17.8385 9.01139 20.3378 11.5107L25.1776 16.3505C27.6769 18.8499 27.6769 22.9021 25.1776 25.4015C22.6782 27.9008 18.626 27.9008 16.1266 25.4015L11.2869 20.5617C8.78751 18.0624 8.78751 14.0101 11.2869 11.5107Z" clip-rule="evenodd"/></g></g><mask id="mask1_99_36750" style="mask-type:luminance" width="21" height="24" x="5" y="9" maskUnits="userSpaceOnUse"><path fill="#fff" fill-rule="evenodd" d="M5.13696 26.3881C5.13696 29.9254 8.00438 32.793 11.5417 32.7933L18.3829 32.7939C21.8845 32.7942 24.7299 29.9842 24.7868 26.4961L24.7876 26.3897C24.7876 26.1936 24.7788 25.9996 24.7616 25.8081C24.8581 25.7251 24.9528 25.6386 25.0454 25.5487L25.1148 25.4803C25.2724 25.3227 25.4201 25.1589 25.5579 24.9897C22.3156 24.7192 19.7618 22.0266 19.711 18.7267L19.7103 18.6265L19.7103 11.6641C19.7104 11.4737 19.7188 11.2853 19.7352 11.0992C17.2465 9.11524 13.622 9.25359 11.2915 11.5145L11.2209 11.584C8.91151 13.8933 8.73418 17.5274 10.689 20.0402C7.58656 20.4525 5.18566 23.0862 5.13769 26.2903L5.13696 26.3881Z" clip-rule="evenodd"/></mask><g mask="url(#mask1_99_36750)"><g filter="url(#filter25_f_99_36750)"><path fill="#250007" fill-opacity=".483" fill-rule="evenodd" d="M31.8007 17.7579C31.7547 14.6076 29.274 12.0326 26.1277 11.8693C22.9391 11.7037 20.1823 14.0707 19.8634 17.2476L19.7074 18.8018C19.3404 22.4584 22.2795 25.6007 25.9524 25.4786C29.2608 25.3686 31.8718 22.6296 31.8235 19.3198L31.8007 17.7579Z" clip-rule="evenodd"/></g></g><mask id="mask2_99_36750" style="mask-type:luminance" width="23" height="24" x="5" y="20" maskUnits="userSpaceOnUse"><path fill="#fff" fill-rule="evenodd" d="M11.31 41.1814C13.8113 43.6826 17.8666 43.6828 20.3681 41.1817L25.2059 36.3447C27.6821 33.8689 27.7072 29.8699 25.2809 27.3633L25.2063 27.2874C25.0677 27.1488 24.9243 27.0178 24.7766 26.8945C24.7862 26.7676 24.792 26.6395 24.7939 26.5104L24.7946 26.413C24.7946 26.1901 24.7832 25.9699 24.761 25.7529C22.2771 27.8542 18.5673 27.756 16.1981 25.4585L16.1267 25.3882L11.2035 20.4651C11.069 20.3304 10.9417 20.1912 10.8217 20.048C7.65904 20.4049 5.19394 23.0657 5.1447 26.3123L5.14394 26.4114C5.14394 29.6773 7.58821 32.3723 10.7473 32.7669C8.84507 35.2522 9.00971 38.8122 11.2414 41.1117L11.31 41.1814Z" clip-rule="evenodd"/></mask><g mask="url(#mask2_99_36750)"><g filter="url(#filter26_f_99_36750)"><path fill="#250013" fill-opacity=".528" fill-rule="evenodd" d="M24.0619 16.2268C21.8018 14.0317 18.2269 13.965 15.8866 16.0743C13.5149 18.2119 13.2392 21.835 15.2601 24.3069L16.2488 25.5162C18.5749 28.3613 22.875 28.505 25.3859 25.8215C27.6474 23.4043 27.5569 19.6213 25.1824 17.3151L24.0619 16.2268Z" clip-rule="evenodd"/></g></g><mask id="mask3_99_36750" style="mask-type:luminance" width="24" height="22" x="9" y="26" maskUnits="userSpaceOnUse"><path fill="#fff" fill-rule="evenodd" d="M26.1724 47.2192C29.7097 47.2192 32.5773 44.3518 32.5776 40.8145L32.5782 33.9733C32.5785 30.4717 29.7685 27.6263 26.2804 27.5694L26.174 27.5686C25.9779 27.5686 25.7839 27.5774 25.5924 27.5946C25.5094 27.4981 25.4229 27.4034 25.333 27.3108L25.2646 27.2414C25.107 27.0838 24.9432 26.9361 24.774 26.7983C24.5035 30.0406 21.8109 32.5944 18.511 32.6452L18.4108 32.6459L11.4484 32.6459C11.258 32.6458 11.0696 32.6374 10.8835 32.621C8.89954 35.1097 9.03789 38.7342 11.2988 41.0648L11.3683 41.1353C13.6777 43.4447 17.3117 43.622 19.8245 41.6672C20.2368 44.7696 22.8705 47.1705 26.0746 47.2185L26.1724 47.2192Z" clip-rule="evenodd"/></mask><g mask="url(#mask3_99_36750)"><g filter="url(#filter27_f_99_36750)"><path fill="#040025" fill-opacity=".528" fill-rule="evenodd" d="M17.5425 20.5564C14.3923 20.6023 11.8173 23.0831 11.654 26.2294C11.4884 29.4179 13.8554 32.1748 17.0322 32.4937L18.5865 32.6497C22.2431 33.0167 25.3853 30.0776 25.2632 26.4046C25.1532 23.0963 22.4143 20.4853 19.1044 20.5336L17.5425 20.5564Z" clip-rule="evenodd"/></g></g><mask id="mask4_99_36750" style="mask-type:luminance" width="24" height="23" x="19" y="25" maskUnits="userSpaceOnUse"><path fill="#fff" fill-rule="evenodd" d="M40.9663 41.0469C43.4676 38.5456 43.4677 34.4903 40.9667 31.9889L36.1296 27.151C33.6538 24.6748 29.6548 24.6497 27.1482 27.076L27.0723 27.1506C26.9337 27.2893 26.8027 27.4327 26.6795 27.5803C26.5525 27.5707 26.4244 27.565 26.2954 27.563L26.1979 27.5623C25.975 27.5623 25.7548 27.5737 25.5378 27.5959C27.6391 30.0798 27.5409 33.7896 25.2435 36.1589L25.1732 36.2303L20.25 41.1534C20.1153 41.288 19.9761 41.4152 19.8329 41.5352C20.1898 44.6979 22.8506 47.163 26.0972 47.2122L26.1963 47.213C29.4622 47.213 32.1572 44.7687 32.5518 41.6097C35.0371 43.5119 38.5971 43.3472 40.8966 41.1155L40.9663 41.0469Z" clip-rule="evenodd"/></mask><g mask="url(#mask4_99_36750)"><g filter="url(#filter28_f_99_36750)"><path fill="#000725" fill-opacity=".528" fill-rule="evenodd" d="M16.01 28.2957C13.8149 30.5557 13.7482 34.1307 15.8575 36.471C17.9951 38.8427 21.6182 39.1184 24.0901 37.0975L25.2994 36.1088C28.1445 33.7827 28.2882 29.4825 25.6047 26.9717C23.1875 24.7101 19.4045 24.8006 17.0983 27.1751L16.01 28.2957Z" clip-rule="evenodd"/></g></g><mask id="mask5_99_36750" style="mask-type:luminance" width="22" height="24" x="26" y="19" maskUnits="userSpaceOnUse"><path fill="#fff" fill-rule="evenodd" d="M47.0038 26.2728C47.0038 22.7355 44.1364 19.8678 40.599 19.8676L33.7578 19.867C30.2563 19.8667 27.4108 22.6767 27.354 26.1648L27.3531 26.2712C27.3531 26.4673 27.3619 26.6613 27.3792 26.8528C27.2826 26.9358 27.188 27.0223 27.0953 27.1122L27.0259 27.1806C26.8683 27.3382 26.7206 27.502 26.5829 27.6711C29.8252 27.9417 32.379 30.6343 32.4297 33.9342L32.4305 34.0344L32.4305 40.9968C32.4304 41.1872 32.422 41.3756 32.4056 41.5617C34.8942 43.5457 38.5188 43.4073 40.8493 41.1464L40.9199 41.0769C43.2292 38.7675 43.4066 35.1335 41.4518 32.6207C44.5542 32.2084 46.9551 29.5747 47.0031 26.3706L47.0038 26.2728Z" clip-rule="evenodd"/></mask><g mask="url(#mask5_99_36750)"><g filter="url(#filter29_f_99_36750)"><path fill="#001225" fill-opacity=".528" fill-rule="evenodd" d="M20.34 34.903C20.386 38.0532 22.8667 40.6283 26.0131 40.7916C29.2016 40.9571 31.9585 38.5902 32.2773 35.4133L32.4333 33.8591C32.8003 30.2025 29.8613 27.0602 26.1883 27.1823C22.88 27.2923 20.269 30.0313 20.3173 33.3411L20.34 34.903Z" clip-rule="evenodd"/></g></g><mask id="mask6_99_36750" style="mask-type:luminance" width="22" height="24" x="25" y="9" maskUnits="userSpaceOnUse"><path fill="#fff" fill-rule="evenodd" d="M40.8307 11.4788C38.3294 8.97751 34.2741 8.97735 31.7727 11.4784L26.9348 16.3155C24.4586 18.7913 24.4335 22.7903 26.8598 25.2969L26.9344 25.3728C27.0731 25.5114 27.2165 25.6423 27.3641 25.7656C27.3545 25.8926 27.3488 26.0207 27.3469 26.1497L27.3461 26.2472C27.3461 26.4701 27.3575 26.6903 27.3797 26.9073C29.8636 24.806 33.5734 24.9041 35.9427 27.2016L36.0141 27.2719L40.9373 32.1951C41.0718 32.3298 41.1991 32.4689 41.3191 32.6121C44.4817 32.2553 46.9468 29.5945 46.9961 26.3479L46.9968 26.2488C46.9968 22.9829 44.5525 20.2878 41.3935 19.8933C43.2957 17.408 43.131 13.848 40.8993 11.5484L40.8307 11.4788Z" clip-rule="evenodd"/></mask><g mask="url(#mask6_99_36750)"><g filter="url(#filter30_f_99_36750)"><path fill="#002515" fill-opacity=".602" fill-rule="evenodd" d="M28.0788 36.4344C30.3388 38.6294 33.9138 38.6961 36.2541 36.5868C38.6258 34.4492 38.9015 30.8261 36.8805 28.3543L35.8918 27.1449C33.5657 24.2998 29.2656 24.1562 26.7548 26.8397C24.4932 29.2568 24.5837 33.0398 26.9582 35.3461L28.0788 36.4344Z" clip-rule="evenodd"/></g></g><mask id="mask7_99_36750" style="mask-type:luminance" width="24" height="21" x="19" y="5" maskUnits="userSpaceOnUse"><path fill="#fff" fill-rule="evenodd" d="M26.0128 5.37988C22.4716 5.37988 19.6008 8.25046 19.6005 11.7917L19.5999 18.6415C19.5996 22.1469 22.4127 24.9955 25.9046 25.0524L26.0112 25.0533C26.2074 25.0533 26.4016 25.0445 26.5933 25.0272C26.6746 25.1217 26.7592 25.2144 26.8471 25.3052L26.9216 25.3809C27.0794 25.5387 27.2433 25.6865 27.4126 25.8244C27.6835 22.5784 30.3792 20.0216 33.683 19.9708L33.7833 19.97H40.7496L40.8584 19.971C41.0132 19.9735 41.1667 19.9816 41.3186 19.995C43.3033 17.5052 43.1664 13.88 40.9077 11.5465L40.8332 11.4708C38.5213 9.15882 34.8832 8.98129 32.3676 10.9384C31.9555 7.83513 29.3231 5.43296 26.1193 5.38075L26.0128 5.37988Z" clip-rule="evenodd"/></mask><g mask="url(#mask7_99_36750)"><g filter="url(#filter31_f_99_36750)"><path fill="#0F2500" fill-opacity=".528" fill-rule="evenodd" d="M40.5782 26.2916C40.7422 23.132 38.3968 20.4002 35.2487 20.0842L33.155 19.8741C30.0532 19.5628 27.2864 21.8249 26.975 24.9267C26.95 25.1763 26.9416 25.4273 26.95 25.678C27.069 29.2585 30.0333 32.0843 33.6154 32.032L34.6351 32.0171C37.8145 31.9708 40.4133 29.4671 40.5782 26.2916Z" clip-rule="evenodd"/></g></g><mask id="mask8_99_36750" style="mask-type:luminance" width="24" height="23" x="9" y="5" maskUnits="userSpaceOnUse"><path fill="#fff" fill-rule="evenodd" d="M11.198 11.5444C8.69675 14.0457 8.69658 18.101 11.1976 20.6025L16.0347 25.4403C18.5105 27.9165 22.5095 27.9416 25.0161 25.5153L25.092 25.4407C25.2306 25.3021 25.3616 25.1586 25.4848 25.011C25.6118 25.0206 25.7399 25.0263 25.8689 25.0283L25.9664 25.029C26.1893 25.029 26.4094 25.0176 26.6264 24.9954C24.5252 22.5115 24.6234 18.8017 26.9208 16.4324L26.9911 16.3611L31.8515 11.5007C32.0061 11.3462 32.1667 11.2013 32.3325 11.066C31.98 7.89859 29.3172 5.42842 26.0672 5.37907L25.968 5.37832C22.7021 5.37832 20.0071 7.82259 19.6125 10.9816C17.1272 9.07945 13.5672 9.24408 11.2677 11.4758L11.198 11.5444Z" clip-rule="evenodd"/></mask><g mask="url(#mask8_99_36750)"><g filter="url(#filter32_f_99_36750)"><path fill="#3F0000" fill-opacity=".5" fill-rule="evenodd" d="M36.2721 16.0824C34.154 13.7323 30.5638 13.459 28.1144 15.4616L26.4853 16.7935C24.0718 18.7667 23.7149 22.3227 25.6881 24.7361C25.8469 24.9303 26.0184 25.1137 26.2016 25.2851C28.8175 27.7327 32.9117 27.6348 35.4077 25.0649L36.1183 24.3333C38.3337 22.0524 38.4009 18.4444 36.2721 16.0824Z" clip-rule="evenodd"/></g></g><path fill="url(#paint32_linear_99_36750)" fill-rule="evenodd" d="M19.8738 20.0967C19.8738 20.0967 20.3403 22.409 22.4652 23.8794C24.5902 25.3498 26.6392 25.0012 26.6392 25.0012L26.4451 24.8009C26.4451 24.8009 24.7676 25.0439 22.8078 23.8794C20.848 22.715 19.8738 20.0967 19.8738 20.0967Z" clip-rule="evenodd"/><path fill="url(#paint33_linear_99_36750)" fill-rule="evenodd" d="M26.0341 17.5684C25.1639 18.8783 24.8831 20.3807 25.1917 22.0756C25.5003 23.7705 26.2366 25.0407 27.4007 25.8863L27.4052 25.6074C26.4659 24.8872 25.8089 23.7906 25.4339 22.3179C25.059 20.8451 25.259 19.2619 26.0341 17.5684Z" clip-rule="evenodd"/><path fill="url(#paint34_linear_99_36750)" fill-rule="evenodd" d="M32.2313 20.1276C30.6897 20.4386 29.4288 21.3024 28.4485 22.7191C27.4683 24.1357 27.0907 25.5546 27.3159 26.9757L27.5163 26.7817C27.3615 25.6082 27.6722 24.3682 28.4485 23.0617C29.2248 21.7551 30.4857 20.7771 32.2313 20.1276Z" clip-rule="evenodd"/><path fill="url(#paint35_linear_99_36750)" fill-rule="evenodd" d="M34.8564 26.3376C33.5464 25.4674 32.044 25.1866 30.3491 25.4952C28.6542 25.8037 27.406 26.5231 26.6045 27.6533L26.8833 27.6578C27.5596 26.7525 28.6341 26.1123 30.1069 25.7374C31.5796 25.3625 33.1628 25.5625 34.8564 26.3376Z" clip-rule="evenodd"/><path fill="url(#paint36_linear_99_36750)" fill-rule="evenodd" d="M32.2629 32.5073C31.9519 30.9657 31.0881 29.7048 29.6714 28.7245C28.2548 27.7443 26.8635 27.3703 25.4975 27.6027L25.6915 27.8031C26.8099 27.6411 28.0223 27.9482 29.3288 28.7245C30.6354 29.5008 31.6134 30.7617 32.2629 32.5073Z" clip-rule="evenodd"/><path fill="url(#paint37_linear_99_36750)" fill-rule="evenodd" d="M26.1088 34.9971C26.9789 33.6872 27.2597 32.1847 26.9512 30.4899C26.6426 28.795 25.9232 27.5468 24.793 26.7452L24.7885 27.0241C25.6938 27.7003 26.334 28.7748 26.7089 30.2476C27.0838 31.7204 26.8838 33.3036 26.1088 34.9971Z" clip-rule="evenodd"/><path fill="url(#paint38_linear_99_36750)" fill-rule="evenodd" d="M19.8502 32.4931C21.3918 32.1822 22.6527 31.3184 23.633 29.9017C24.6132 28.485 24.9871 27.0937 24.7548 25.7278L24.5544 25.9218C24.7164 27.0401 24.4092 28.2526 23.633 29.5591C22.8567 30.8656 21.5957 31.8437 19.8502 32.4931Z" clip-rule="evenodd"/><path fill="url(#paint39_linear_99_36750)" fill-rule="evenodd" d="M17.2712 26.3385C18.5812 27.2087 20.0836 27.4895 21.7785 27.1809C23.4733 26.8723 24.7215 26.1529 25.5231 25.0227L25.2442 25.0183C24.568 25.9236 23.4935 26.5637 22.0207 26.9387C20.5479 27.3136 18.9648 27.1136 17.2712 26.3385Z" clip-rule="evenodd"/></g></g><defs><filter id="filter0_d_99_36750" width="51.2" height="51.2" x=".4" y=".844" color-interpolation-filters="sRGB" filterUnits="userSpaceOnUse"><feFlood flood-opacity="0" result="BackgroundImageFix"/><feColorMatrix in="SourceAlpha" result="hardAlpha" type="matrix" values="0 0 0 0 0 0 0 0 0 0 0 0 0 0 0 0 0 0 127 0"/><feOffset dy=".444"/><feGaussianBlur stdDeviation=".8"/><feColorMatrix type="matrix" values="0 0 0 0 0 0 0 0 0 0 0 0 0 0 0 0 0 0 0.4 0"/><feBlend in2="BackgroundImageFix" mode="normal" result="effect1_dropShadow_99_36750"/><feBlend in="SourceGraphic" in2="effect1_dropShadow_99_36750" mode="normal" result="shape"/></filter><filter id="filter1_f_99_36750" width="17.149" height="23.994" x="17.514" y="4.538" color-interpolation-filters="sRGB" filterUnits="userSpaceOnUse"><feFlood flood-opacity="0" result="BackgroundImageFix"/><feBlend in="SourceGraphic" in2="BackgroundImageFix" mode="normal" result="shape"/><feGaussianBlur result="effect1_foregroundBlur_99_36750" stdDeviation="1.087"/></filter><filter id="filter2_f_99_36750" width="17.149" height="23.994" x="17.514" y="26.76" color-interpolation-filters="sRGB" filterUnits="userSpaceOnUse"><feFlood flood-opacity="0" result="BackgroundImageFix"/><feBlend in="SourceGraphic" in2="BackgroundImageFix" mode="normal" result="shape"/><feGaussianBlur result="effect1_foregroundBlur_99_36750" stdDeviation="1.087"/></filter><filter id="filter3_f_99_36750" width="23.994" height="17.149" x="25.203" y="19.071" color-interpolation-filters="sRGB" filterUnits="userSpaceOnUse"><feFlood flood-opacity="0" result="BackgroundImageFix"/><feBlend in="SourceGraphic" in2="BackgroundImageFix" mode="normal" result="shape"/><feGaussianBlur result="effect1_foregroundBlur_99_36750" stdDeviation="1.087"/></filter><filter id="filter4_f_99_36750" width="23.994" height="17.149" x="2.981" y="19.071" color-interpolation-filters="sRGB" filterUnits="userSpaceOnUse"><feFlood flood-opacity="0" result="BackgroundImageFix"/><feBlend in="SourceGraphic" in2="BackgroundImageFix" mode="normal" result="shape"/><feGaussianBlur result="effect1_foregroundBlur_99_36750" stdDeviation="1.087"/></filter><filter id="filter5_f_99_36750" width="21.989" height="21.989" x="22.951" y="8.794" color-interpolation-filters="sRGB" filterUnits="userSpaceOnUse"><feFlood flood-opacity="0" result="BackgroundImageFix"/><feBlend in="SourceGraphic" in2="BackgroundImageFix" mode="normal" result="shape"/><feGaussianBlur result="effect1_foregroundBlur_99_36750" stdDeviation="1.087"/></filter><filter id="filter6_f_99_36750" width="21.989" height="21.989" x="7.237" y="24.509" color-interpolation-filters="sRGB" filterUnits="userSpaceOnUse"><feFlood flood-opacity="0" result="BackgroundImageFix"/><feBlend in="SourceGraphic" in2="BackgroundImageFix" mode="normal" result="shape"/><feGaussianBlur result="effect1_foregroundBlur_99_36750" stdDeviation="1.087"/></filter><filter id="filter7_f_99_36750" width="21.989" height="21.989" x="22.951" y="24.509" color-interpolation-filters="sRGB" filterUnits="userSpaceOnUse"><feFlood flood-opacity="0" result="BackgroundImageFix"/><feBlend in="SourceGraphic" in2="BackgroundImageFix" mode="normal" result="shape"/><feGaussianBlur result="effect1_foregroundBlur_99_36750" stdDeviation="1.087"/></filter><filter id="filter8_f_99_36750" width="21.989" height="21.989" x="7.237" y="8.794" color-interpolation-filters="sRGB" filterUnits="userSpaceOnUse"><feFlood flood-opacity="0" result="BackgroundImageFix"/><feBlend in="SourceGraphic" in2="BackgroundImageFix" mode="normal" result="shape"/><feGaussianBlur result="effect1_foregroundBlur_99_36750" stdDeviation="1.087"/></filter><filter id="filter9_f_99_36750" width="14.25" height="21.094" x="18.964" y="5.098" color-interpolation-filters="sRGB" filterUnits="userSpaceOnUse"><feFlood flood-opacity="0" result="BackgroundImageFix"/><feBlend in="SourceGraphic" in2="BackgroundImageFix" mode="normal" result="shape"/><feGaussianBlur result="effect1_foregroundBlur_99_36750" stdDeviation=".362"/></filter><filter id="filter10_f_99_36750" width="14.25" height="21.094" x="18.964" y="27.32" color-interpolation-filters="sRGB" filterUnits="userSpaceOnUse"><feFlood flood-opacity="0" result="BackgroundImageFix"/><feBlend in="SourceGraphic" in2="BackgroundImageFix" mode="normal" result="shape"/><feGaussianBlur result="effect1_foregroundBlur_99_36750" stdDeviation=".362"/></filter><filter id="filter11_f_99_36750" width="21.094" height="14.25" x="26.653" y="19.631" color-interpolation-filters="sRGB" filterUnits="userSpaceOnUse"><feFlood flood-opacity="0" result="BackgroundImageFix"/><feBlend in="SourceGraphic" in2="BackgroundImageFix" mode="normal" result="shape"/><feGaussianBlur result="effect1_foregroundBlur_99_36750" stdDeviation=".362"/></filter><filter id="filter12_f_99_36750" width="21.094" height="14.25" x="4.431" y="19.631" color-interpolation-filters="sRGB" filterUnits="userSpaceOnUse"><feFlood flood-opacity="0" result="BackgroundImageFix"/><feBlend in="SourceGraphic" in2="BackgroundImageFix" mode="normal" result="shape"/><feGaussianBlur result="effect1_foregroundBlur_99_36750" stdDeviation=".362"/></filter><filter id="filter13_f_99_36750" width="19.09" height="19.089" x="24.401" y="9.354" color-interpolation-filters="sRGB" filterUnits="userSpaceOnUse"><feFlood flood-opacity="0" result="BackgroundImageFix"/><feBlend in="SourceGraphic" in2="BackgroundImageFix" mode="normal" result="shape"/><feGaussianBlur result="effect1_foregroundBlur_99_36750" stdDeviation=".362"/></filter><filter id="filter14_f_99_36750" width="19.09" height="19.089" x="8.687" y="25.069" color-interpolation-filters="sRGB" filterUnits="userSpaceOnUse"><feFlood flood-opacity="0" result="BackgroundImageFix"/><feBlend in="SourceGraphic" in2="BackgroundImageFix" mode="normal" result="shape"/><feGaussianBlur result="effect1_foregroundBlur_99_36750" stdDeviation=".362"/></filter><filter id="filter15_f_99_36750" width="19.09" height="19.089" x="24.401" y="25.069" color-interpolation-filters="sRGB" filterUnits="userSpaceOnUse"><feFlood flood-opacity="0" result="BackgroundImageFix"/><feBlend in="SourceGraphic" in2="BackgroundImageFix" mode="normal" result="shape"/><feGaussianBlur result="effect1_foregroundBlur_99_36750" stdDeviation=".362"/></filter><filter id="filter16_f_99_36750" width="19.09" height="19.089" x="8.687" y="9.354" color-interpolation-filters="sRGB" filterUnits="userSpaceOnUse"><feFlood flood-opacity="0" result="BackgroundImageFix"/><feBlend in="SourceGraphic" in2="BackgroundImageFix" mode="normal" result="shape"/><feGaussianBlur result="effect1_foregroundBlur_99_36750" stdDeviation=".362"/></filter><filter id="filter17_i_99_36750" width="12.8" height="19.645" x="19.689" y="5.379" color-interpolation-filters="sRGB" filterUnits="userSpaceOnUse"><feFlood flood-opacity="0" result="BackgroundImageFix"/><feBlend in="SourceGraphic" in2="BackgroundImageFix" mode="normal" result="shape"/><feColorMatrix in="SourceAlpha" result="hardAlpha" type="matrix" values="0 0 0 0 0 0 0 0 0 0 0 0 0 0 0 0 0 0 127 0"/><feOffset dx=".356" dy="-.089"/><feComposite in2="hardAlpha" k2="-1" k3="1" operator="arithmetic"/><feColorMatrix type="matrix" values="0 0 0 0 0 0 0 0 0 0 0 0 0 0 0 0 0 0 0.05 0"/><feBlend in2="shape" mode="normal" result="effect1_innerShadow_99_36750"/></filter><filter id="filter18_i_99_36750" width="12.8" height="19.645" x="19.689" y="27.601" color-interpolation-filters="sRGB" filterUnits="userSpaceOnUse"><feFlood flood-opacity="0" result="BackgroundImageFix"/><feBlend in="SourceGraphic" in2="BackgroundImageFix" mode="normal" result="shape"/><feColorMatrix in="SourceAlpha" result="hardAlpha" type="matrix" values="0 0 0 0 0 0 0 0 0 0 0 0 0 0 0 0 0 0 127 0"/><feOffset dx="-.356" dy="-.089"/><feComposite in2="hardAlpha" k2="-1" k3="1" operator="arithmetic"/><feColorMatrix type="matrix" values="0 0 0 0 0 0 0 0 0 0 0 0 0 0 0 0 0 0 0.05 0"/><feBlend in2="shape" mode="normal" result="effect1_innerShadow_99_36750"/></filter><filter id="filter19_i_99_36750" width="19.644" height="12.8" x="5.156" y="19.913" color-interpolation-filters="sRGB" filterUnits="userSpaceOnUse"><feFlood flood-opacity="0" result="BackgroundImageFix"/><feBlend in="SourceGraphic" in2="BackgroundImageFix" mode="normal" result="shape"/><feColorMatrix in="SourceAlpha" result="hardAlpha" type="matrix" values="0 0 0 0 0 0 0 0 0 0 0 0 0 0 0 0 0 0 127 0"/><feOffset dx=".356" dy="-.089"/><feComposite in2="hardAlpha" k2="-1" k3="1" operator="arithmetic"/><feColorMatrix type="matrix" values="0 0 0 0 0 0 0 0 0 0 0 0 0 0 0 0 0 0 0.05 0"/><feBlend in2="shape" mode="normal" result="effect1_innerShadow_99_36750"/></filter><filter id="filter20_i_99_36750" width="19.644" height="12.8" x="27.378" y="19.913" color-interpolation-filters="sRGB" filterUnits="userSpaceOnUse"><feFlood flood-opacity="0" result="BackgroundImageFix"/><feBlend in="SourceGraphic" in2="BackgroundImageFix" mode="normal" result="shape"/><feColorMatrix in="SourceAlpha" result="hardAlpha" type="matrix" values="0 0 0 0 0 0 0 0 0 0 0 0 0 0 0 0 0 0 127 0"/><feOffset dx="-.356" dy="-.089"/><feComposite in2="hardAlpha" k2="-1" k3="1" operator="arithmetic"/><feColorMatrix type="matrix" values="0 0 0 0 0 0 0 0 0 0 0 0 0 0 0 0 0 0 0.05 0"/><feBlend in2="shape" mode="normal" result="effect1_innerShadow_99_36750"/></filter><filter id="filter21_i_99_36750" width="17.64" height="17.64" x="25.126" y="9.636" color-interpolation-filters="sRGB" filterUnits="userSpaceOnUse"><feFlood flood-opacity="0" result="BackgroundImageFix"/><feBlend in="SourceGraphic" in2="BackgroundImageFix" mode="normal" result="shape"/><feColorMatrix in="SourceAlpha" result="hardAlpha" type="matrix" values="0 0 0 0 0 0 0 0 0 0 0 0 0 0 0 0 0 0 127 0"/><feOffset dx="-.356" dy="-.089"/><feComposite in2="hardAlpha" k2="-1" k3="1" operator="arithmetic"/><feColorMatrix type="matrix" values="0 0 0 0 0 0 0 0 0 0 0 0 0 0 0 0 0 0 0.05 0"/><feBlend in2="shape" mode="normal" result="effect1_innerShadow_99_36750"/></filter><filter id="filter22_i_99_36750" width="17.64" height="17.64" x="9.412" y="25.349" color-interpolation-filters="sRGB" filterUnits="userSpaceOnUse"><feFlood flood-opacity="0" result="BackgroundImageFix"/><feBlend in="SourceGraphic" in2="BackgroundImageFix" mode="normal" result="shape"/><feColorMatrix in="SourceAlpha" result="hardAlpha" type="matrix" values="0 0 0 0 0 0 0 0 0 0 0 0 0 0 0 0 0 0 127 0"/><feOffset dx=".356" dy="-.089"/><feComposite in2="hardAlpha" k2="-1" k3="1" operator="arithmetic"/><feColorMatrix type="matrix" values="0 0 0 0 0 0 0 0 0 0 0 0 0 0 0 0 0 0 0.05 0"/><feBlend in2="shape" mode="normal" result="effect1_innerShadow_99_36750"/></filter><filter id="filter23_i_99_36750" width="17.64" height="17.64" x="25.126" y="25.349" color-interpolation-filters="sRGB" filterUnits="userSpaceOnUse"><feFlood flood-opacity="0" result="BackgroundImageFix"/><feBlend in="SourceGraphic" in2="BackgroundImageFix" mode="normal" result="shape"/><feColorMatrix in="SourceAlpha" result="hardAlpha" type="matrix" values="0 0 0 0 0 0 0 0 0 0 0 0 0 0 0 0 0 0 127 0"/><feOffset dx="-.533" dy="-.089"/><feComposite in2="hardAlpha" k2="-1" k3="1" operator="arithmetic"/><feColorMatrix type="matrix" values="0 0 0 0 0 0 0 0 0 0 0 0 0 0 0 0 0 0 0.05 0"/><feBlend in2="shape" mode="normal" result="effect1_innerShadow_99_36750"/></filter><filter id="filter24_i_99_36750" width="17.64" height="17.64" x="9.412" y="9.636" color-interpolation-filters="sRGB" filterUnits="userSpaceOnUse"><feFlood flood-opacity="0" result="BackgroundImageFix"/><feBlend in="SourceGraphic" in2="BackgroundImageFix" mode="normal" result="shape"/><feColorMatrix in="SourceAlpha" result="hardAlpha" type="matrix" values="0 0 0 0 0 0 0 0 0 0 0 0 0 0 0 0 0 0 127 0"/><feOffset dx=".356" dy="-.089"/><feComposite in2="hardAlpha" k2="-1" k3="1" operator="arithmetic"/><feColorMatrix type="matrix" values="0 0 0 0 0 0 0 0 0 0 0 0 0 0 0 0 0 0 0.05 0"/><feBlend in2="shape" mode="normal" result="effect1_innerShadow_99_36750"/></filter><filter id="filter25_f_99_36750" width="14.564" height="16.037" x="18.468" y="10.653" color-interpolation-filters="sRGB" filterUnits="userSpaceOnUse"><feFlood flood-opacity="0" result="BackgroundImageFix"/><feBlend in="SourceGraphic" in2="BackgroundImageFix" mode="normal" result="shape"/><feGaussianBlur result="effect1_foregroundBlur_99_36750" stdDeviation=".604"/></filter><filter id="filter26_f_99_36750" width="15.532" height="15.626" x="12.701" y="13.327" color-interpolation-filters="sRGB" filterUnits="userSpaceOnUse"><feFlood flood-opacity="0" result="BackgroundImageFix"/><feBlend in="SourceGraphic" in2="BackgroundImageFix" mode="normal" result="shape"/><feGaussianBlur result="effect1_foregroundBlur_99_36750" stdDeviation=".604"/></filter><filter id="filter27_f_99_36750" width="16.037" height="14.564" x="10.438" y="19.325" color-interpolation-filters="sRGB" filterUnits="userSpaceOnUse"><feFlood flood-opacity="0" result="BackgroundImageFix"/><feBlend in="SourceGraphic" in2="BackgroundImageFix" mode="normal" result="shape"/><feGaussianBlur result="effect1_foregroundBlur_99_36750" stdDeviation=".604"/></filter><filter id="filter28_f_99_36750" width="15.626" height="15.532" x="13.111" y="24.125" color-interpolation-filters="sRGB" filterUnits="userSpaceOnUse"><feFlood flood-opacity="0" result="BackgroundImageFix"/><feBlend in="SourceGraphic" in2="BackgroundImageFix" mode="normal" result="shape"/><feGaussianBlur result="effect1_foregroundBlur_99_36750" stdDeviation=".604"/></filter><filter id="filter29_f_99_36750" width="14.564" height="16.037" x="19.108" y="25.971" color-interpolation-filters="sRGB" filterUnits="userSpaceOnUse"><feFlood flood-opacity="0" result="BackgroundImageFix"/><feBlend in="SourceGraphic" in2="BackgroundImageFix" mode="normal" result="shape"/><feGaussianBlur result="effect1_foregroundBlur_99_36750" stdDeviation=".604"/></filter><filter id="filter30_f_99_36750" width="15.532" height="15.626" x="23.908" y="23.708" color-interpolation-filters="sRGB" filterUnits="userSpaceOnUse"><feFlood flood-opacity="0" result="BackgroundImageFix"/><feBlend in="SourceGraphic" in2="BackgroundImageFix" mode="normal" result="shape"/><feGaussianBlur result="effect1_foregroundBlur_99_36750" stdDeviation=".604"/></filter><filter id="filter31_f_99_36750" width="16.056" height="14.604" x="25.739" y="18.637" color-interpolation-filters="sRGB" filterUnits="userSpaceOnUse"><feFlood flood-opacity="0" result="BackgroundImageFix"/><feBlend in="SourceGraphic" in2="BackgroundImageFix" mode="normal" result="shape"/><feGaussianBlur result="effect1_foregroundBlur_99_36750" stdDeviation=".604"/></filter><filter id="filter32_f_99_36750" width="15.828" height="15.352" x="23.205" y="12.914" color-interpolation-filters="sRGB" filterUnits="userSpaceOnUse"><feFlood flood-opacity="0" result="BackgroundImageFix"/><feBlend in="SourceGraphic" in2="BackgroundImageFix" mode="normal" result="shape"/><feGaussianBlur result="effect1_foregroundBlur_99_36750" stdDeviation=".604"/></filter><linearGradient id="paint0_linear_99_36750" x1="22.104" x2="22.104" y1="6.712" y2="18.945" gradientUnits="userSpaceOnUse"><stop stop-color="#FA972A"/><stop offset="1" stop-color="#FEB32C"/></linearGradient><linearGradient id="paint1_linear_99_36750" x1="19.689" x2="19.689" y1="28.935" y2="48.58" gradientUnits="userSpaceOnUse"><stop stop-color="#769CD4"/><stop offset="1" stop-color="#5EB4E6"/></linearGradient><linearGradient id="paint2_linear_99_36750" x1="27.378" x2="27.378" y1="21.246" y2="34.046" gradientUnits="userSpaceOnUse"><stop stop-color="#C1D835"/><stop offset="1" stop-color="#8CC549"/></linearGradient><linearGradient id="paint3_linear_99_36750" x1="5.155" x2="5.155" y1="21.246" y2="34.046" gradientUnits="userSpaceOnUse"><stop stop-color="#F0638F"/><stop offset="1" stop-color="#CC86BC"/></linearGradient><linearGradient id="paint4_linear_99_36750" x1="25.126" x2="25.126" y1="10.969" y2="28.609" gradientUnits="userSpaceOnUse"><stop stop-color="#FEE214"/><stop offset="1" stop-color="#ECE01A"/></linearGradient><linearGradient id="paint5_linear_99_36750" x1="9.412" x2="9.412" y1="26.683" y2="44.323" gradientUnits="userSpaceOnUse"><stop stop-color="#D8A6F6"/><stop offset="1" stop-color="#897DC8"/></linearGradient><linearGradient id="paint6_linear_99_36750" x1="25.126" x2="25.126" y1="26.683" y2="44.323" gradientUnits="userSpaceOnUse"><stop stop-color="#64C27C"/><stop offset="1" stop-color="#6AB5DB"/></linearGradient><linearGradient id="paint7_linear_99_36750" x1="9.412" x2="9.412" y1="10.969" y2="28.609" gradientUnits="userSpaceOnUse"><stop stop-color="#FC7657"/><stop offset="1" stop-color="#F54956"/></linearGradient><linearGradient id="paint8_linear_99_36750" x1="22.104" x2="22.104" y1="5.379" y2="17.611" gradientUnits="userSpaceOnUse"><stop stop-color="#FA972A"/><stop offset="1" stop-color="#FEB32C"/></linearGradient><linearGradient id="paint9_linear_99_36750" x1="27.896" x2="33.088" y1="47.897" y2="39.585" gradientUnits="userSpaceOnUse"><stop stop-color="#769CD4"/><stop offset="1" stop-color="#5EB4E6"/></linearGradient><linearGradient id="paint10_linear_99_36750" x1="38.745" x2="47.499" y1="31.526" y2="27.3" gradientUnits="userSpaceOnUse"><stop stop-color="#C1D835"/><stop offset="1" stop-color="#8CC549"/></linearGradient><linearGradient id="paint11_linear_99_36750" x1="16.248" x2="6.676" y1="23.195" y2="23.195" gradientUnits="userSpaceOnUse"><stop stop-color="#F0638F"/><stop offset="1" stop-color="#CC86BC"/></linearGradient><linearGradient id="paint12_linear_99_36750" x1="37.187" x2="30.6" y1="8.471" y2="15.162" gradientUnits="userSpaceOnUse"><stop stop-color="#FEE214"/><stop offset="1" stop-color="#ECE01A"/></linearGradient><linearGradient id="paint13_linear_99_36750" x1="15.481" x2="7.27" y1="28.708" y2="37.132" gradientUnits="userSpaceOnUse"><stop stop-color="#D8A6F6"/><stop offset="1" stop-color="#897DC8"/></linearGradient><linearGradient id="paint14_linear_99_36750" x1="44.125" x2="36.406" y1="36.695" y2="28.966" gradientUnits="userSpaceOnUse"><stop stop-color="#64C27C"/><stop offset="1" stop-color="#6AB5DB"/></linearGradient><linearGradient id="paint15_linear_99_36750" x1="23.077" x2="15.422" y1="16.162" y2="8.928" gradientUnits="userSpaceOnUse"><stop stop-color="#FC7657"/><stop offset="1" stop-color="#F54956"/></linearGradient><linearGradient id="paint16_linear_99_36750" x1="16.007" x2="26.527" y1="16.548" y2="23.503" gradientUnits="userSpaceOnUse"><stop stop-color="#F75111"/><stop offset="1" stop-color="#FF8216"/></linearGradient><linearGradient id="paint17_linear_99_36750" x1="22.894" x2="33.458" y1="33.253" y2="40.161" gradientUnits="userSpaceOnUse"><stop stop-color="#6A90D3"/><stop offset="1" stop-color="#378494"/></linearGradient><linearGradient id="paint18_linear_99_36750" x1="35.922" x2="28.912" y1="16.23" y2="26.699" gradientUnits="userSpaceOnUse"><stop stop-color="#A0BF10"/><stop offset="1" stop-color="#93BB26"/></linearGradient><linearGradient id="paint19_linear_99_36750" x1="19.218" x2="12.256" y1="23.192" y2="33.704" gradientUnits="userSpaceOnUse"><stop stop-color="#E25773"/><stop offset="1" stop-color="#985289"/></linearGradient><linearGradient id="paint20_linear_99_36750" x1="3.747" x2="8.033" y1="22.844" y2="33.087" gradientUnits="userSpaceOnUse"><stop stop-color="#D2242B"/><stop offset="1" stop-color="#FF422C"/></linearGradient><linearGradient id="paint21_linear_99_36750" x1="23.429" x2="27.609" y1="28.232" y2="38.394" gradientUnits="userSpaceOnUse"><stop stop-color="#50AE93"/><stop offset="1" stop-color="#4FA84B"/></linearGradient><linearGradient id="paint22_linear_99_36750" x1="29.597" x2="19.422" y1="3.97" y2="8.168" gradientUnits="userSpaceOnUse"><stop stop-color="#EAA208"/><stop offset="1" stop-color="#D7D00B"/></linearGradient><linearGradient id="paint23_linear_99_36750" x1="24.132" x2="13.911" y1="23.514" y2="27.771" gradientUnits="userSpaceOnUse"><stop stop-color="#9E7DC1"/><stop offset="1" stop-color="#495FA6"/></linearGradient><linearGradient id="paint24_linear_99_36750" x1="25.126" x2="25.126" y1="17.496" y2="24.254" gradientUnits="userSpaceOnUse"><stop stop-color="#C7621B"/><stop offset="1" stop-color="#B57C13"/></linearGradient><linearGradient id="paint25_linear_99_36750" x1="25.126" x2="25.126" y1="28.37" y2="35.128" gradientUnits="userSpaceOnUse"><stop stop-color="#534F91"/><stop offset="1" stop-color="#3F417F"/></linearGradient><linearGradient id="paint26_linear_99_36750" x1="28.147" x2="34.905" y1="27.275" y2="27.275" gradientUnits="userSpaceOnUse"><stop stop-color="#327638"/><stop offset="1" stop-color="#2C732B"/></linearGradient><linearGradient id="paint27_linear_99_36750" x1="24.031" x2="17.273" y1="25.349" y2="25.349" gradientUnits="userSpaceOnUse"><stop stop-color="#BA2920"/><stop offset="1" stop-color="#952425"/></linearGradient><linearGradient id="paint28_linear_99_36750" x1="27.544" x2="27.544" y1="20.079" y2="24.857" gradientUnits="userSpaceOnUse"><stop stop-color="#789A1B"/><stop offset="1" stop-color="#609C1C"/></linearGradient><linearGradient id="paint29_linear_99_36750" x1="19.855" x2="19.855" y1="27.766" y2="32.545" gradientUnits="userSpaceOnUse"><stop stop-color="#7D3B5D"/><stop offset="1" stop-color="#5C2F55"/></linearGradient><linearGradient id="paint30_linear_99_36750" x1="32.323" x2="27.544" y1="27.766" y2="27.766" gradientUnits="userSpaceOnUse"><stop stop-color="#2E6043"/><stop offset="1" stop-color="#366157"/></linearGradient><linearGradient id="paint31_linear_99_36750" x1="19.855" x2="24.634" y1="24.857" y2="24.857" gradientUnits="userSpaceOnUse"><stop stop-color="#C01D0E"/><stop offset="1" stop-color="#D12C11"/></linearGradient><linearGradient id="paint32_linear_99_36750" x1="20.807" x2="26.642" y1="19.163" y2="24.998" gradientUnits="userSpaceOnUse"><stop stop-color="#B80000"/><stop offset="1" stop-color="#4D0801"/></linearGradient><linearGradient id="paint33_linear_99_36750" x1="28.704" x2="27.881" y1="19.794" y2="25.495" gradientUnits="userSpaceOnUse"><stop stop-color="#B1560C"/><stop offset="1" stop-color="#2D2803"/></linearGradient><linearGradient id="paint34_linear_99_36750" x1="33.505" x2="33.718" y1="20.666" y2="26.362" gradientUnits="userSpaceOnUse"><stop stop-color="#6F7F01"/><stop offset="1" stop-color="#354B01"/></linearGradient><linearGradient id="paint35_linear_99_36750" x1="34.118" x2="26.534" y1="30.383" y2="28.999" gradientUnits="userSpaceOnUse"><stop stop-color="#126105"/><stop offset="1" stop-color="#274D23"/></linearGradient><linearGradient id="paint36_linear_99_36750" x1="35.547" x2="31.922" y1="34.595" y2="36.617" gradientUnits="userSpaceOnUse"><stop stop-color="#18572E"/><stop offset="1" stop-color="#0A446C"/></linearGradient><linearGradient id="paint37_linear_99_36750" x1="21.627" x2="24.043" y1="33.261" y2="26.135" gradientUnits="userSpaceOnUse"><stop stop-color="#28356F"/><stop offset="1" stop-color="#2C1C59"/></linearGradient><linearGradient id="paint38_linear_99_36750" x1="25.826" x2="20.827" y1="27.649" y2="32.648" gradientUnits="userSpaceOnUse"><stop stop-color="#432150"/><stop offset="1" stop-color="#6D0D34"/></linearGradient><linearGradient id="paint39_linear_99_36750" x1="25.33" x2="17.76" y1="28.825" y2="28.341" gradientUnits="userSpaceOnUse"><stop stop-color="#790718"/><stop offset="1" stop-color="#8C0A0D"/></linearGradient><clipPath id="clip0_99_36750"><rect width="41.956" height="41.867" fill="#fff" transform="translate(5.11108 5.37939)"/></clipPath></defs></svg>