<svg xmlns="http://www.w3.org/2000/svg" width="42" height="52" fill="none" viewBox="0 0 42 52"><g filter="url(#filter0_d_99_36806)"><path fill="url(#paint0_linear_99_36806)" fill-opacity=".83" fill-rule="evenodd" d="M21.0005 10.2382C31.1116 10.2382 39.378 8.31807 39.9669 5.89581L35.4484 42.573L35.4038 42.573C34.8209 46.1692 28.595 48.9997 21.0005 48.9997C13.4059 48.9997 7.18003 46.1692 6.59712 42.573L6.55254 42.573L2.03394 5.89551C2.62222 8.31791 10.8889 10.2382 21.0005 10.2382Z" clip-rule="evenodd" opacity=".874"/><mask id="mask0_99_36806" style="mask-type:luminance" width="38" height="44" x="2" y="5" maskUnits="userSpaceOnUse"><path fill="#fff" fill-rule="evenodd" d="M21.0005 10.2382C31.1116 10.2382 39.378 8.31807 39.9669 5.89581L35.4484 42.573L35.4038 42.573C34.8209 46.1692 28.595 48.9997 21.0005 48.9997C13.4059 48.9997 7.18003 46.1692 6.59712 42.573L6.55254 42.573L2.03394 5.89551C2.62222 8.31791 10.8889 10.2382 21.0005 10.2382Z" clip-rule="evenodd"/></mask><g mask="url(#mask0_99_36806)"><path fill="url(#paint1_linear_99_36806)" fill-rule="evenodd" d="M40.9302 5.61942L35.448 43.1759C35.448 43.1759 34.7079 46.1885 32.6154 47.5943C30.523 49.0002 28.6946 49.0002 28.6946 49.0002L33.714 8.11897L40.9302 4.13965V5.61942Z" clip-rule="evenodd"/><g filter="url(#filter1_f_99_36806)" opacity=".608"><path fill="#fff" fill-rule="evenodd" d="M14.1804 39.9621C17.4958 41.0722 22.7131 44.1797 27.5345 44.1797C32.3559 44.1797 36.7852 45.3632 31.5213 46.4786C26.2573 47.5939 20.0171 49.7027 14.1804 47.5939C8.3437 45.4851 4.92469 44.6104 6.6342 41.87C8.3437 39.1296 10.865 38.852 14.1804 39.9621Z" clip-rule="evenodd"/></g><g filter="url(#filter2_f_99_36806)"><path fill="url(#paint2_linear_99_36806)" fill-rule="evenodd" d="M6.552 8.91406L9.87197 47.5936L17.1536 49.0259H23.3612V10.2379C23.3612 10.2379 10.8989 8.91406 9.87197 8.91406C8.84504 8.91406 6.552 8.91406 6.552 8.91406Z" clip-rule="evenodd"/></g><g filter="url(#filter3_f_99_36806)" opacity=".539"><path fill="#BCBDBE" fill-rule="evenodd" d="M9.87207 47.5942C9.87207 47.5942 10.6262 50.663 22.2639 50.1312C33.9015 49.5993 36.3805 43.1758 36.3805 43.1758C36.3805 43.1758 29.7024 45.1339 25.4629 46.4591C21.2235 47.7842 9.87207 47.5942 9.87207 47.5942Z" clip-rule="evenodd"/></g></g><path fill="url(#paint3_linear_99_36806)" fill-opacity=".83" stroke="url(#paint4_linear_99_36806)" stroke-width=".301" d="M39.8494 5.61925C39.8494 6.16883 39.3869 6.73771 38.4318 7.28667C37.4881 7.82914 36.1124 8.32273 34.3994 8.73918C30.9758 9.57153 26.2383 10.0879 21 10.0879C15.7617 10.0879 11.0242 9.57153 7.60055 8.73918C5.88757 8.32273 4.51193 7.82914 3.56818 7.28667C2.61311 6.73771 2.15063 6.16883 2.15063 5.61925C2.15063 5.06967 2.61311 4.50079 3.56818 3.95182C4.51193 3.40935 5.88757 2.91577 7.60055 2.49931C11.0242 1.66697 15.7617 1.15063 21 1.15063C26.2383 1.15063 30.9758 1.66697 34.3994 2.49931C36.1124 2.91577 37.4881 3.40935 38.4318 3.95182C39.3869 4.50079 39.8494 5.06967 39.8494 5.61925Z"/></g><defs><filter id="filter0_d_99_36806" width="41.615" height="51.615" x=".192" y=".197" color-interpolation-filters="sRGB" filterUnits="userSpaceOnUse"><feFlood flood-opacity="0" result="BackgroundImageFix"/><feColorMatrix in="SourceAlpha" result="hardAlpha" type="matrix" values="0 0 0 0 0 0 0 0 0 0 0 0 0 0 0 0 0 0 127 0"/><feOffset dy="1.004"/><feGaussianBlur stdDeviation=".904"/><feColorMatrix type="matrix" values="0 0 0 0 0 0 0 0 0 0 0 0 0 0 0 0 0 0 0.35 0"/><feBlend in2="BackgroundImageFix" mode="normal" result="effect1_dropShadow_99_36806"/><feBlend in="SourceGraphic" in2="effect1_dropShadow_99_36806" mode="normal" result="shape"/></filter><filter id="filter1_f_99_36806" width="36.443" height="17.877" x="1.826" y="34.985" color-interpolation-filters="sRGB" filterUnits="userSpaceOnUse"><feFlood flood-opacity="0" result="BackgroundImageFix"/><feBlend in="SourceGraphic" in2="BackgroundImageFix" mode="normal" result="shape"/><feGaussianBlur result="effect1_foregroundBlur_99_36806" stdDeviation="2.184"/></filter><filter id="filter2_f_99_36806" width="20.631" height="43.933" x="4.641" y="7.003" color-interpolation-filters="sRGB" filterUnits="userSpaceOnUse"><feFlood flood-opacity="0" result="BackgroundImageFix"/><feBlend in="SourceGraphic" in2="BackgroundImageFix" mode="normal" result="shape"/><feGaussianBlur result="effect1_foregroundBlur_99_36806" stdDeviation=".955"/></filter><filter id="filter3_f_99_36806" width="33.606" height="14.114" x="6.324" y="39.627" color-interpolation-filters="sRGB" filterUnits="userSpaceOnUse"><feFlood flood-opacity="0" result="BackgroundImageFix"/><feBlend in="SourceGraphic" in2="BackgroundImageFix" mode="normal" result="shape"/><feGaussianBlur result="effect1_foregroundBlur_99_36806" stdDeviation="1.774"/></filter><linearGradient id="paint0_linear_99_36806" x1="37.089" x2="5.009" y1="9.221" y2="9.221" gradientUnits="userSpaceOnUse"><stop stop-color="#F7F7F8"/><stop offset=".414" stop-color="#DBDDDF"/><stop offset=".723" stop-color="#E1E1E3"/><stop offset=".853" stop-color="#DADBDF"/><stop offset="1" stop-color="#C1C2C5"/></linearGradient><linearGradient id="paint1_linear_99_36806" x1="37.497" x2="30.543" y1="18.485" y2="18.421" gradientUnits="userSpaceOnUse"><stop stop-color="#EEE"/><stop offset="1" stop-color="#D8D8D8" stop-opacity=".01"/></linearGradient><linearGradient id="paint2_linear_99_36806" x1="23.361" x2="6.552" y1="9.751" y2="9.751" gradientUnits="userSpaceOnUse"><stop stop-color="#EEE" stop-opacity=".01"/><stop offset=".388" stop-color="#fff" stop-opacity=".343"/><stop offset=".485" stop-color="#FBFBFB" stop-opacity=".429"/><stop offset=".593" stop-color="#F6F6F6" stop-opacity=".373"/><stop offset="1" stop-color="#D8D8D8" stop-opacity=".01"/><stop offset="1" stop-color="#D8D8D8"/></linearGradient><linearGradient id="paint3_linear_99_36806" x1="3.166" x2="38.922" y1="9.966" y2="9.966" gradientUnits="userSpaceOnUse"><stop stop-color="#fff"/><stop offset=".224" stop-color="#D9D9D9" stop-opacity=".923"/><stop offset=".609" stop-color="#fff" stop-opacity=".853"/><stop offset=".732" stop-color="#fff" stop-opacity=".824"/><stop offset="1" stop-color="#B8B5B5" stop-opacity=".657"/></linearGradient><linearGradient id="paint4_linear_99_36806" x1="2" x2="2" y1="1" y2="10.239" gradientUnits="userSpaceOnUse"><stop stop-color="#E2E0E0"/><stop offset="1" stop-color="#fff"/></linearGradient></defs></svg>