<svg xmlns="http://www.w3.org/2000/svg" width="52" height="53" fill="none" viewBox="0 0 52 53"><g id="App-icons/Apple-tv" clip-path="url(#clip0_99_36768)" filter="url(#filter0_d_99_36768)"><path id="Background" fill="url(#paint0_linear_99_36768)" d="M49.9968 15.2396C49.994 14.7595 49.9885 14.2796 49.9751 13.7997C49.9469 12.7539 49.8855 11.6992 49.6995 10.665C49.5108 9.61594 49.2029 8.6396 48.7174 7.68638C48.2402 6.74955 47.6168 5.89224 46.873 5.149C46.1294 4.40576 45.2719 3.78281 44.3347 3.3059C43.3805 2.82037 42.4031 2.51245 41.3529 2.32388C40.3186 2.13817 39.2636 2.0766 38.2178 2.04835C37.7376 2.03536 37.2574 2.02988 36.7772 2.02691C36.207 2.02342 35.6368 2.02371 35.0666 2.02371L28.4464 2H23.495L16.9919 2.02371C16.4206 2.02371 15.8493 2.02342 15.2781 2.02691C14.7968 2.02988 14.3157 2.03536 13.8346 2.04835C12.7864 2.0766 11.729 2.13823 10.6922 2.32417C9.64063 2.51268 8.66175 2.82048 7.70632 3.30566C6.76709 3.78263 5.90772 4.40564 5.16256 5.149C4.41752 5.89218 3.793 6.74932 3.31492 7.68602C2.82817 8.63965 2.51955 9.61659 2.33046 10.6663C2.14429 11.7 2.0826 12.7544 2.05423 13.7997C2.0413 14.2796 2.03571 14.7596 2.0328 15.2396C2.0293 15.8095 2 16.5175 2 17.0873V23.5003V28.5048L2.02959 35.054C2.02959 35.6246 2.02936 36.1953 2.0328 36.7659C2.03571 37.2466 2.0413 37.7272 2.05429 38.2077C2.0826 39.2548 2.14441 40.3112 2.33075 41.3467C2.51978 42.3972 2.82834 43.3749 3.31469 44.3293C3.79282 45.2675 4.41746 46.1259 5.16256 46.8702C5.90766 47.6145 6.76682 48.2383 7.70586 48.716C8.66189 49.202 9.64118 49.5103 10.6935 49.6991C11.7297 49.8851 12.7868 49.9469 13.8346 49.9751C14.3157 49.988 14.7968 49.9935 15.2781 49.9968C15.8494 50 16.4206 50 16.9919 50H23.5538H28.5175H35.0666C35.6368 50 36.207 50 36.7772 49.9968C37.2574 49.9935 37.7376 49.988 38.2178 49.9751C39.264 49.9469 40.3194 49.8851 41.3541 49.6991C42.4037 49.5103 43.3807 49.202 44.3343 48.716C45.2717 48.2383 46.1294 47.6146 46.873 46.8702C47.6167 46.126 48.2402 45.2678 48.7174 44.3297C49.2029 43.3748 49.5108 42.3966 49.6995 41.3455C49.8855 40.3103 49.9469 39.2545 49.9755 38.2077C49.9885 37.7271 49.994 37.2465 49.9968 36.7659C50 36.1953 50 35.6246 50 35.054C50 35.054 50 28.6204 50 28.5048V23.495C50 23.4097 50 16.9491 50 16.9491C50 16.3793 50 15.8095 49.9968 15.2396Z"/><mask id="mask0_99_36768" style="mask-type:luminance" width="48" height="48" x="2" y="2" maskUnits="userSpaceOnUse"><path id="Mask" fill="#fff" d="M49.9968 15.2396C49.994 14.7595 49.9885 14.2796 49.9751 13.7997C49.9469 12.7539 49.8855 11.6992 49.6995 10.665C49.5108 9.61594 49.2029 8.6396 48.7174 7.68638C48.2402 6.74955 47.6168 5.89224 46.873 5.149C46.1294 4.40576 45.2719 3.78281 44.3347 3.3059C43.3805 2.82037 42.4031 2.51245 41.3529 2.32388C40.3186 2.13817 39.2636 2.0766 38.2178 2.04835C37.7376 2.03536 37.2574 2.02988 36.7772 2.02691C36.207 2.02342 35.6368 2.02371 35.0666 2.02371L28.4464 2H23.495L16.9919 2.02371C16.4206 2.02371 15.8493 2.02342 15.2781 2.02691C14.7968 2.02988 14.3157 2.03536 13.8346 2.04835C12.7864 2.0766 11.729 2.13823 10.6922 2.32417C9.64063 2.51268 8.66175 2.82048 7.70632 3.30566C6.76709 3.78263 5.90772 4.40564 5.16256 5.149C4.41752 5.89218 3.793 6.74932 3.31492 7.68602C2.82817 8.63965 2.51955 9.61659 2.33046 10.6663C2.14429 11.7 2.0826 12.7544 2.05423 13.7997C2.0413 14.2796 2.03571 14.7596 2.0328 15.2396C2.0293 15.8095 2 16.5175 2 17.0873V23.5003V28.5048L2.02959 35.054C2.02959 35.6246 2.02936 36.1953 2.0328 36.7659C2.03571 37.2466 2.0413 37.7272 2.05429 38.2077C2.0826 39.2548 2.14441 40.3112 2.33075 41.3467C2.51978 42.3972 2.82834 43.3749 3.31469 44.3293C3.79282 45.2675 4.41746 46.1259 5.16256 46.8702C5.90766 47.6145 6.76682 48.2383 7.70586 48.716C8.66189 49.202 9.64118 49.5103 10.6935 49.6991C11.7297 49.8851 12.7868 49.9469 13.8346 49.9751C14.3157 49.988 14.7968 49.9935 15.2781 49.9968C15.8494 50 16.4206 50 16.9919 50H23.5538H28.5175H35.0666C35.6368 50 36.207 50 36.7772 49.9968C37.2574 49.9935 37.7376 49.988 38.2178 49.9751C39.264 49.9469 40.3194 49.8851 41.3541 49.6991C42.4037 49.5103 43.3807 49.202 44.3343 48.716C45.2717 48.2383 46.1294 47.6146 46.873 46.8702C47.6167 46.126 48.2402 45.2678 48.7174 44.3297C49.2029 43.3748 49.5108 42.3966 49.6995 41.3455C49.8855 40.3103 49.9469 39.2545 49.9755 38.2077C49.9885 37.7271 49.994 37.2465 49.9968 36.7659C50 36.1953 50 35.6246 50 35.054C50 35.054 50 28.6204 50 28.5048V23.495C50 23.4097 50 16.9491 50 16.9491C50 16.3793 50 15.8095 49.9968 15.2396Z"/></mask><g mask="url(#mask0_99_36768)"><g id="TV" filter="url(#filter1_d_99_36768)"><path fill="#fff" fill-rule="evenodd" d="M30.948 33.5001C30.4852 33.5822 30.0559 33.6232 29.6602 33.6232C28.324 33.6232 27.3647 33.3694 26.7824 32.8618C26.2075 32.3541 25.9201 31.5106 25.9201 30.3311V23.4443H24.1824V21.4175H25.9201V18.4053H28.3277V21.4175H30.7933V23.4443H28.3277V29.7152C28.3277 30.3497 28.4658 30.8163 28.742 31.1149C29.0182 31.4061 29.4549 31.5516 30.0522 31.5516C30.2761 31.5516 30.4858 31.533 30.8591 31.4956V33.5001H30.948ZM43.2706 21.3608L38.881 33.5554H36.2943L31.8935 21.3608H34.4691L37.5037 30.9798H37.6941L40.7175 21.3608H43.2706Z" clip-rule="evenodd"/></g><g id="Apple Logo" filter="url(#filter2_d_99_36768)"><path fill="#fff" fill-rule="evenodd" d="M18.4112 19.0769C17.8223 19.7821 16.8334 20.311 16.0445 20.311C15.9556 20.311 15.8667 20.3 15.8112 20.289C15.8001 20.2449 15.7778 20.1127 15.7778 19.9805C15.7778 19.0769 16.2334 18.1953 16.7334 17.6333C17.3667 16.8951 18.4223 16.3441 19.3 16.311C19.3223 16.4102 19.3334 16.5314 19.3334 16.6526C19.3334 17.5452 18.9445 18.4378 18.4112 19.0769ZM14.6853 33.2268C14.2943 33.3956 13.9238 33.5555 13.421 33.5555C12.3457 33.5555 11.5996 32.5631 10.7438 31.3501C9.74529 29.9165 8.93335 27.7 8.93335 25.6048C8.93335 22.2305 11.1168 20.4441 13.2674 20.4441C13.8951 20.4441 14.4686 20.6754 14.9786 20.8811C15.3868 21.0457 15.7543 21.1939 16.0763 21.1939C16.3555 21.1939 16.7035 21.0557 17.1092 20.8946C17.6757 20.6696 18.3547 20.4 19.1156 20.4C19.5984 20.4 21.3649 20.4441 22.5279 22.1202C22.5213 22.1254 22.507 22.1349 22.4863 22.1486C22.2002 22.3385 20.6736 23.3513 20.6736 25.4284C20.6736 27.9978 22.901 28.913 22.9778 28.9351C22.9758 28.94 22.9713 28.9542 22.9641 28.9766C22.8908 29.2044 22.5418 30.2901 21.7928 31.3942C21.0577 32.4528 20.2786 33.5335 19.1156 33.5335C18.5423 33.5335 18.1771 33.3709 17.7999 33.203C17.3975 33.0239 16.9815 32.8387 16.2847 32.8387C15.5843 32.8387 15.122 33.0383 14.6853 33.2268Z" clip-rule="evenodd"/></g></g></g><defs><filter id="filter0_d_99_36768" width="51.203" height="51.203" x=".398" y=".843" color-interpolation-filters="sRGB" filterUnits="userSpaceOnUse"><feFlood flood-opacity="0" result="BackgroundImageFix"/><feColorMatrix in="SourceAlpha" result="hardAlpha" type="matrix" values="0 0 0 0 0 0 0 0 0 0 0 0 0 0 0 0 0 0 127 0"/><feOffset dy=".445"/><feGaussianBlur stdDeviation=".801"/><feColorMatrix type="matrix" values="0 0 0 0 0 0 0 0 0 0 0 0 0 0 0 0 0 0 0.4 0"/><feBlend in2="BackgroundImageFix" mode="normal" result="effect1_dropShadow_99_36768"/><feBlend in="SourceGraphic" in2="effect1_dropShadow_99_36768" mode="normal" result="shape"/></filter><filter id="filter1_d_99_36768" width="20.156" height="16.286" x="23.648" y="17.96" color-interpolation-filters="sRGB" filterUnits="userSpaceOnUse"><feFlood flood-opacity="0" result="BackgroundImageFix"/><feColorMatrix in="SourceAlpha" result="hardAlpha" type="matrix" values="0 0 0 0 0 0 0 0 0 0 0 0 0 0 0 0 0 0 127 0"/><feOffset dy=".089"/><feGaussianBlur stdDeviation=".267"/><feColorMatrix type="matrix" values="0 0 0 0 0 0 0 0 0 0 0 0 0 0 0 0 0 0 0.916466 0"/><feBlend in2="BackgroundImageFix" mode="normal" result="effect1_dropShadow_99_36768"/><feBlend in="SourceGraphic" in2="effect1_dropShadow_99_36768" mode="normal" result="shape"/></filter><filter id="filter2_d_99_36768" width="15.112" height="18.312" x="8.399" y="15.866" color-interpolation-filters="sRGB" filterUnits="userSpaceOnUse"><feFlood flood-opacity="0" result="BackgroundImageFix"/><feColorMatrix in="SourceAlpha" result="hardAlpha" type="matrix" values="0 0 0 0 0 0 0 0 0 0 0 0 0 0 0 0 0 0 127 0"/><feOffset dy=".089"/><feGaussianBlur stdDeviation=".267"/><feColorMatrix type="matrix" values="0 0 0 0 0 0 0 0 0 0 0 0 0 0 0 0 0 0 0.916466 0"/><feBlend in2="BackgroundImageFix" mode="normal" result="effect1_dropShadow_99_36768"/><feBlend in="SourceGraphic" in2="effect1_dropShadow_99_36768" mode="normal" result="shape"/></filter><linearGradient id="paint0_linear_99_36768" x1="49.961" x2="49.961" y1="49.923" y2="2" gradientUnits="userSpaceOnUse"><stop stop-color="#0F1315"/><stop offset="1" stop-color="#283732"/></linearGradient><clipPath id="clip0_99_36768"><rect width="48" height="48" fill="#fff" transform="translate(2 2)"/></clipPath></defs></svg>