<svg xmlns="http://www.w3.org/2000/svg" width="52" height="53" fill="none" viewBox="0 0 52 53"><g filter="url(#filter0_d_99_36789)"><g filter="url(#filter1_i_99_36789)"><path fill="url(#paint0_linear_99_36789)" d="M49.9968 15.2396C49.994 14.7595 49.9885 14.2796 49.9751 13.7997C49.9469 12.7539 49.8855 11.6992 49.6995 10.665C49.5108 9.61594 49.2029 8.6396 48.7174 7.68638C48.2402 6.74955 47.6168 5.89224 46.873 5.149C46.1294 4.40576 45.2719 3.78281 44.3347 3.3059C43.3805 2.82037 42.4031 2.51245 41.3529 2.32388C40.3186 2.13817 39.2636 2.0766 38.2178 2.04835C37.7376 2.03536 37.2574 2.02988 36.7772 2.02691C36.207 2.02342 35.6368 2.02371 35.0666 2.02371L28.4464 2H23.495L16.9919 2.02371C16.4206 2.02371 15.8493 2.02342 15.2781 2.02691C14.7968 2.02988 14.3157 2.03536 13.8346 2.04835C12.7864 2.0766 11.729 2.13823 10.6922 2.32417C9.64063 2.51268 8.66175 2.82048 7.70632 3.30566C6.76709 3.78263 5.90772 4.40564 5.16256 5.149C4.41752 5.89218 3.793 6.74932 3.31492 7.68602C2.82817 8.63965 2.51955 9.61659 2.33046 10.6663C2.14429 11.7 2.0826 12.7544 2.05423 13.7997C2.0413 14.2796 2.03571 14.7596 2.0328 15.2396C2.0293 15.8095 2 16.5175 2 17.0873V23.5003V28.5048L2.02959 35.054C2.02959 35.6246 2.02936 36.1953 2.0328 36.7659C2.03571 37.2466 2.0413 37.7272 2.05429 38.2077C2.0826 39.2548 2.14441 40.3112 2.33075 41.3467C2.51978 42.3972 2.82834 43.3749 3.31469 44.3293C3.79282 45.2675 4.41746 46.1259 5.16256 46.8702C5.90766 47.6145 6.76682 48.2383 7.70586 48.716C8.66189 49.202 9.64118 49.5103 10.6935 49.6991C11.7297 49.8851 12.7868 49.9469 13.8346 49.9751C14.3157 49.988 14.7968 49.9935 15.2781 49.9968C15.8494 50 16.4206 50 16.9919 50H23.5538H28.5175H35.0666C35.6368 50 36.207 50 36.7772 49.9968C37.2574 49.9935 37.7376 49.988 38.2178 49.9751C39.264 49.9469 40.3194 49.8851 41.3541 49.6991C42.4037 49.5103 43.3807 49.202 44.3343 48.716C45.2717 48.2383 46.1294 47.6146 46.873 46.8702C47.6167 46.126 48.2402 45.2678 48.7174 44.3297C49.2029 43.3748 49.5108 42.3966 49.6995 41.3455C49.8855 40.3103 49.9469 39.2545 49.9755 38.2077C49.9885 37.7271 49.994 37.2465 49.9968 36.7659C50 36.1953 50 35.6246 50 35.054C50 35.054 50 28.6204 50 28.5048V23.495C50 23.4097 50 16.9491 50 16.9491C50 16.3793 50 15.8095 49.9968 15.2396Z"/></g><mask id="mask0_99_36789" style="mask-type:luminance" width="48" height="48" x="2" y="2" maskUnits="userSpaceOnUse"><path fill="#fff" d="M49.9968 15.2396C49.994 14.7595 49.9885 14.2796 49.9751 13.7997C49.9469 12.7539 49.8855 11.6992 49.6995 10.665C49.5108 9.61594 49.2029 8.6396 48.7174 7.68638C48.2402 6.74955 47.6168 5.89224 46.873 5.149C46.1294 4.40576 45.2719 3.78281 44.3347 3.3059C43.3805 2.82037 42.4031 2.51245 41.3529 2.32388C40.3186 2.13817 39.2636 2.0766 38.2178 2.04835C37.7376 2.03536 37.2574 2.02988 36.7772 2.02691C36.207 2.02342 35.6368 2.02371 35.0666 2.02371L28.4464 2H23.495L16.9919 2.02371C16.4206 2.02371 15.8493 2.02342 15.2781 2.02691C14.7968 2.02988 14.3157 2.03536 13.8346 2.04835C12.7864 2.0766 11.729 2.13823 10.6922 2.32417C9.64063 2.51268 8.66175 2.82048 7.70632 3.30566C6.76709 3.78263 5.90772 4.40564 5.16256 5.149C4.41752 5.89218 3.793 6.74932 3.31492 7.68602C2.82817 8.63965 2.51955 9.61659 2.33046 10.6663C2.14429 11.7 2.0826 12.7544 2.05423 13.7997C2.0413 14.2796 2.03571 14.7596 2.0328 15.2396C2.0293 15.8095 2 16.5175 2 17.0873V23.5003V28.5048L2.02959 35.054C2.02959 35.6246 2.02936 36.1953 2.0328 36.7659C2.03571 37.2466 2.0413 37.7272 2.05429 38.2077C2.0826 39.2548 2.14441 40.3112 2.33075 41.3467C2.51978 42.3972 2.82834 43.3749 3.31469 44.3293C3.79282 45.2675 4.41746 46.1259 5.16256 46.8702C5.90766 47.6145 6.76682 48.2383 7.70586 48.716C8.66189 49.202 9.64118 49.5103 10.6935 49.6991C11.7297 49.8851 12.7868 49.9469 13.8346 49.9751C14.3157 49.988 14.7968 49.9935 15.2781 49.9968C15.8494 50 16.4206 50 16.9919 50H23.5538H28.5175H35.0666C35.6368 50 36.207 50 36.7772 49.9968C37.2574 49.9935 37.7376 49.988 38.2178 49.9751C39.264 49.9469 40.3194 49.8851 41.3541 49.6991C42.4037 49.5103 43.3807 49.202 44.3343 48.716C45.2717 48.2383 46.1294 47.6146 46.873 46.8702C47.6167 46.126 48.2402 45.2678 48.7174 44.3297C49.2029 43.3748 49.5108 42.3966 49.6995 41.3455C49.8855 40.3103 49.9469 39.2545 49.9755 38.2077C49.9885 37.7271 49.994 37.2465 49.9968 36.7659C50 36.1953 50 35.6246 50 35.054C50 35.054 50 28.6204 50 28.5048V23.495C50 23.4097 50 16.9491 50 16.9491C50 16.3793 50 15.8095 49.9968 15.2396Z"/></mask><g mask="url(#mask0_99_36789)"><g filter="url(#filter2_f_99_36789)"><ellipse cx="25.6" cy="3.466" fill="#18B6F2" fill-opacity=".4" rx="22.267" ry="22.267"/></g></g><g filter="url(#filter3_d_99_36789)"><path fill="#fff" fill-rule="evenodd" d="M27.4737 29.5555C29.3631 29.6074 30.4956 30.4429 30.8712 32.062C31.0168 32.6894 30.952 33.175 30.8392 33.5451L30.8215 33.6011C30.8185 33.6103 30.8154 33.6195 30.8124 33.6285L30.7938 33.6818C30.7875 33.6993 30.7811 33.7165 30.7747 33.7334L11.2 33.7333C10.0463 33.7333 9.11108 32.7981 9.11108 31.6444C9.11108 30.4908 10.0463 29.5555 11.2 29.5555H27.4737ZM41.0666 29.5552C42.2202 29.5552 43.1555 30.4904 43.1555 31.6441C43.1555 32.7977 42.2202 33.733 41.0666 33.733L33.8206 33.733L31.4576 29.5552L41.0666 29.5552Z" clip-rule="evenodd"/><mask id="mask1_99_36789" style="mask-type:luminance" width="35" height="5" x="9" y="29" maskUnits="userSpaceOnUse"><path fill="#fff" fill-rule="evenodd" d="M27.4737 29.5555C29.3631 29.6074 30.4956 30.4429 30.8712 32.062C31.0168 32.6894 30.952 33.175 30.8392 33.5451L30.8215 33.6011C30.8185 33.6103 30.8154 33.6195 30.8124 33.6285L30.7938 33.6818C30.7875 33.6993 30.7811 33.7165 30.7747 33.7334L11.2 33.7333C10.0463 33.7333 9.11108 32.7981 9.11108 31.6444C9.11108 30.4908 10.0463 29.5555 11.2 29.5555H27.4737ZM41.0666 29.5552C42.2202 29.5552 43.1555 30.4904 43.1555 31.6441C43.1555 32.7977 42.2202 33.733 41.0666 33.733L33.8206 33.733L31.4576 29.5552L41.0666 29.5552Z" clip-rule="evenodd"/></mask><g mask="url(#mask1_99_36789)"><g filter="url(#filter4_ii_99_36789)"><rect width="4.889" height="34.933" x="43.621" y="28.922" fill="#000" fill-opacity=".01" rx="2.196" transform="rotate(90 43.6211 28.9221)"/></g></g><path fill="#fff" fill-rule="evenodd" d="M29.2456 18.6868L40.0959 37.4801C40.6948 38.5174 40.3406 39.8438 39.3042 40.4444C38.2831 41.0362 36.9785 40.6975 36.3725 39.6899L36.3498 39.6512L28.9046 26.6784L29.1337 27.056L29.0661 26.9416L28.9643 26.767L28.8668 26.597L28.7736 26.4315L28.7138 26.3237L28.6559 26.2178L28.5999 26.114L28.5458 26.0122L28.4936 25.9123L28.4433 25.8145L28.3949 25.7187L28.3484 25.6249C28.3408 25.6094 28.3333 25.594 28.3258 25.5787L28.2822 25.4879L28.2404 25.3991C28.2336 25.3845 28.2269 25.3699 28.2202 25.3554L28.1813 25.2696L28.1443 25.1858L28.1091 25.104C28.1034 25.0905 28.0978 25.0772 28.0923 25.0639L28.06 24.9851C28.0496 24.9591 28.0394 24.9335 28.0296 24.9083L28.0011 24.8335L27.9745 24.7607L27.9498 24.6899C27.9459 24.6782 27.942 24.6667 27.9382 24.6552L27.9163 24.5874L27.8964 24.5217C27.871 24.4353 27.8507 24.3542 27.8355 24.2785L27.825 24.2228L27.8208 24.1976C27.6584 23.1863 27.6528 21.8899 28.0032 20.8249C28.0992 20.5328 28.2107 20.2648 28.327 20.0244L28.3682 19.9407C28.4234 19.8307 28.4794 19.7268 28.535 19.6296L28.5767 19.5579C28.5836 19.5461 28.5905 19.5345 28.5975 19.523L28.6387 19.4551C28.6456 19.4439 28.6524 19.4329 28.6593 19.422L28.6999 19.358L28.7401 19.2965L28.7796 19.2377L28.8184 19.1816L28.8563 19.1282L28.8933 19.0775L28.9292 19.0296L28.964 18.9846C28.9697 18.9773 28.9753 18.9702 28.9809 18.9631L29.0137 18.9224L29.0452 18.8846L29.0751 18.8497L29.1033 18.8178L29.1299 18.7889L29.1546 18.763C29.1871 18.7299 29.2174 18.7044 29.2456 18.6868ZM25.2194 11.713L26.1209 13.2745L23.6545 17.5302L21.4978 13.7723C20.9287 12.7807 21.2621 11.5183 22.2407 10.9354L22.2847 10.9098L22.299 10.9019C23.3308 10.3309 24.6298 10.6917 25.2194 11.713Z" clip-rule="evenodd"/><mask id="mask2_99_36789" style="mask-type:luminance" width="20" height="31" x="21" y="10" maskUnits="userSpaceOnUse"><path fill="#fff" fill-rule="evenodd" d="M29.2456 18.6868L40.0959 37.4801C40.6948 38.5174 40.3406 39.8438 39.3042 40.4444C38.2831 41.0362 36.9785 40.6975 36.3725 39.6899L36.3498 39.6512L28.9046 26.6784L29.1337 27.056L29.0661 26.9416L28.9643 26.767L28.8668 26.597L28.7736 26.4315L28.7138 26.3237L28.6559 26.2178L28.5999 26.114L28.5458 26.0122L28.4936 25.9123L28.4433 25.8145L28.3949 25.7187L28.3484 25.6249C28.3408 25.6094 28.3333 25.594 28.3258 25.5787L28.2822 25.4879L28.2404 25.3991C28.2336 25.3845 28.2269 25.3699 28.2202 25.3554L28.1813 25.2696L28.1443 25.1858L28.1091 25.104C28.1034 25.0905 28.0978 25.0772 28.0923 25.0639L28.06 24.9851C28.0496 24.9591 28.0394 24.9335 28.0296 24.9083L28.0011 24.8335L27.9745 24.7607L27.9498 24.6899C27.9459 24.6782 27.942 24.6667 27.9382 24.6552L27.9163 24.5874L27.8964 24.5217C27.871 24.4353 27.8507 24.3542 27.8355 24.2785L27.825 24.2228L27.8208 24.1976C27.6584 23.1863 27.6528 21.8899 28.0032 20.8249C28.0992 20.5328 28.2107 20.2648 28.327 20.0244L28.3682 19.9407C28.4234 19.8307 28.4794 19.7268 28.535 19.6296L28.5767 19.5579C28.5836 19.5461 28.5905 19.5345 28.5975 19.523L28.6387 19.4551C28.6456 19.4439 28.6524 19.4329 28.6593 19.422L28.6999 19.358L28.7401 19.2965L28.7796 19.2377L28.8184 19.1816L28.8563 19.1282L28.8933 19.0775L28.9292 19.0296L28.964 18.9846C28.9697 18.9773 28.9753 18.9702 28.9809 18.9631L29.0137 18.9224L29.0452 18.8846L29.0751 18.8497L29.1033 18.8178L29.1299 18.7889L29.1546 18.763C29.1871 18.7299 29.2174 18.7044 29.2456 18.6868ZM25.2194 11.713L26.1209 13.2745L23.6545 17.5302L21.4978 13.7723C20.9287 12.7807 21.2621 11.5183 22.2407 10.9354L22.2847 10.9098L22.299 10.9019C23.3308 10.3309 24.6298 10.6917 25.2194 11.713Z" clip-rule="evenodd"/></mask><g mask="url(#mask2_99_36789)"><g filter="url(#filter5_ii_99_36789)"><rect width="4.889" height="34.933" x="41.419" y="39.36" fill="#000" fill-opacity=".01" rx="2.196" transform="rotate(150 41.4189 39.3601)"/></g></g><path fill="#fff" fill-rule="evenodd" d="M16.1587 34.8218C16.8127 34.9982 17.3992 35.4156 17.9184 36.0739L15.9269 39.5232C15.3376 40.5438 14.0451 40.9088 13.0108 40.3531L12.9748 40.3333C11.9623 39.7682 11.5931 38.4965 12.1396 37.4788L12.164 37.4346L13.6279 34.8989C14.3956 34.5994 15.2392 34.5737 16.1587 34.8218ZM29.9922 10.847L29.997 10.8497C31.0095 11.4148 31.3787 12.6865 30.8321 13.7043L30.8077 13.7485L21.6816 29.5554H16.7128L27.0449 11.6598C27.6401 10.6289 28.9528 10.2669 29.9922 10.847Z" clip-rule="evenodd"/><mask id="mask3_99_36789" style="mask-type:luminance" width="21" height="31" x="11" y="10" maskUnits="userSpaceOnUse"><path fill="#fff" fill-rule="evenodd" d="M16.1587 34.8218C16.8127 34.9982 17.3992 35.4156 17.9184 36.0739L15.9269 39.5232C15.3376 40.5438 14.0451 40.9088 13.0108 40.3531L12.9748 40.3333C11.9623 39.7682 11.5931 38.4965 12.1396 37.4788L12.164 37.4346L13.6279 34.8989C14.3956 34.5994 15.2392 34.5737 16.1587 34.8218ZM29.9922 10.847L29.997 10.8497C31.0095 11.4148 31.3787 12.6865 30.8321 13.7043L30.8077 13.7485L21.6816 29.5554H16.7128L27.0449 11.6598C27.6401 10.6289 28.9528 10.2669 29.9922 10.847Z" clip-rule="evenodd"/></mask><g mask="url(#mask3_99_36789)"><g filter="url(#filter6_ii_99_36789)"><rect width="4.889" height="34.933" x="28.187" y="9.113" fill="#000" fill-opacity=".01" rx="2.196" transform="rotate(30 28.1873 9.11279)"/></g></g></g></g><defs><filter id="filter0_d_99_36789" width="51.217" height="51.217" x=".392" y=".838" color-interpolation-filters="sRGB" filterUnits="userSpaceOnUse"><feFlood flood-opacity="0" result="BackgroundImageFix"/><feColorMatrix in="SourceAlpha" result="hardAlpha" type="matrix" values="0 0 0 0 0 0 0 0 0 0 0 0 0 0 0 0 0 0 127 0"/><feOffset dy=".447"/><feGaussianBlur stdDeviation=".804"/><feColorMatrix type="matrix" values="0 0 0 0 0 0 0 0 0 0 0 0 0 0 0 0 0 0 0.4 0"/><feBlend in2="BackgroundImageFix" mode="normal" result="effect1_dropShadow_99_36789"/><feBlend in="SourceGraphic" in2="effect1_dropShadow_99_36789" mode="normal" result="shape"/></filter><filter id="filter1_i_99_36789" width="48" height="49.608" x="2" y=".392" color-interpolation-filters="sRGB" filterUnits="userSpaceOnUse"><feFlood flood-opacity="0" result="BackgroundImageFix"/><feBlend in="SourceGraphic" in2="BackgroundImageFix" mode="normal" result="shape"/><feColorMatrix in="SourceAlpha" result="hardAlpha" type="matrix" values="0 0 0 0 0 0 0 0 0 0 0 0 0 0 0 0 0 0 127 0"/><feOffset dy="-1.608"/><feGaussianBlur stdDeviation="2.949"/><feComposite in2="hardAlpha" k2="-1" k3="1" operator="arithmetic"/><feColorMatrix type="matrix" values="0 0 0 0 0.0745098 0 0 0 0 0.356863 0 0 0 0 0.85098 0 0 0 1 0"/><feBlend in2="shape" mode="normal" result="effect1_innerShadow_99_36789"/></filter><filter id="filter2_f_99_36789" width="68.822" height="68.822" x="-8.811" y="-30.945" color-interpolation-filters="sRGB" filterUnits="userSpaceOnUse"><feFlood flood-opacity="0" result="BackgroundImageFix"/><feBlend in="SourceGraphic" in2="BackgroundImageFix" mode="normal" result="shape"/><feGaussianBlur result="effect1_foregroundBlur_99_36789" stdDeviation="6.072"/></filter><filter id="filter3_d_99_36789" width="38.155" height="34.275" x="7.324" y="9.588" color-interpolation-filters="sRGB" filterUnits="userSpaceOnUse"><feFlood flood-opacity="0" result="BackgroundImageFix"/><feColorMatrix in="SourceAlpha" result="hardAlpha" type="matrix" values="0 0 0 0 0 0 0 0 0 0 0 0 0 0 0 0 0 0 127 0"/><feOffset dx=".268" dy="1.072"/><feGaussianBlur stdDeviation="1.028"/><feColorMatrix type="matrix" values="0 0 0 0 0 0 0 0 0 0.00624873 0 0 0 0 0.111696 0 0 0 0.616778 0"/><feBlend in2="BackgroundImageFix" mode="normal" result="effect1_dropShadow_99_36789"/><feBlend in="SourceGraphic" in2="effect1_dropShadow_99_36789" mode="normal" result="shape"/></filter><filter id="filter4_ii_99_36789" width="35.737" height="4.978" x="7.884" y="28.833" color-interpolation-filters="sRGB" filterUnits="userSpaceOnUse"><feFlood flood-opacity="0" result="BackgroundImageFix"/><feBlend in="SourceGraphic" in2="BackgroundImageFix" mode="normal" result="shape"/><feColorMatrix in="SourceAlpha" result="hardAlpha" type="matrix" values="0 0 0 0 0 0 0 0 0 0 0 0 0 0 0 0 0 0 127 0"/><feOffset dx="-.804"/><feGaussianBlur stdDeviation="1.34"/><feComposite in2="hardAlpha" k2="-1" k3="1" operator="arithmetic"/><feColorMatrix type="matrix" values="0 0 0 0 0.282043 0 0 0 0 0.498681 0 0 0 0 0.731884 0 0 0 0.87052 0"/><feBlend in2="shape" mode="normal" result="effect1_innerShadow_99_36789"/><feColorMatrix in="SourceAlpha" result="hardAlpha" type="matrix" values="0 0 0 0 0 0 0 0 0 0 0 0 0 0 0 0 0 0 127 0"/><feOffset dx="-.268" dy="-.089"/><feGaussianBlur stdDeviation=".402"/><feComposite in2="hardAlpha" k2="-1" k3="1" operator="arithmetic"/><feColorMatrix type="matrix" values="0 0 0 0 1 0 0 0 0 1 0 0 0 0 1 0 0 0 0.51751 0"/><feBlend in2="effect1_innerShadow_99_36789" mode="normal" result="effect2_innerShadow_99_36789"/></filter><filter id="filter5_ii_99_36789" width="20.897" height="31.18" x="19.718" y="9.821" color-interpolation-filters="sRGB" filterUnits="userSpaceOnUse"><feFlood flood-opacity="0" result="BackgroundImageFix"/><feBlend in="SourceGraphic" in2="BackgroundImageFix" mode="normal" result="shape"/><feColorMatrix in="SourceAlpha" result="hardAlpha" type="matrix" values="0 0 0 0 0 0 0 0 0 0 0 0 0 0 0 0 0 0 127 0"/><feOffset dx="-.804"/><feGaussianBlur stdDeviation="1.34"/><feComposite in2="hardAlpha" k2="-1" k3="1" operator="arithmetic"/><feColorMatrix type="matrix" values="0 0 0 0 0.282043 0 0 0 0 0.498681 0 0 0 0 0.731884 0 0 0 0.87052 0"/><feBlend in2="shape" mode="normal" result="effect1_innerShadow_99_36789"/><feColorMatrix in="SourceAlpha" result="hardAlpha" type="matrix" values="0 0 0 0 0 0 0 0 0 0 0 0 0 0 0 0 0 0 127 0"/><feOffset dx="-.268" dy="-.089"/><feGaussianBlur stdDeviation=".402"/><feComposite in2="hardAlpha" k2="-1" k3="1" operator="arithmetic"/><feColorMatrix type="matrix" values="0 0 0 0 1 0 0 0 0 1 0 0 0 0 1 0 0 0 0.51751 0"/><feBlend in2="effect1_innerShadow_99_36789" mode="normal" result="effect2_innerShadow_99_36789"/></filter><filter id="filter6_ii_99_36789" width="20.898" height="31.18" x="10.72" y="9.827" color-interpolation-filters="sRGB" filterUnits="userSpaceOnUse"><feFlood flood-opacity="0" result="BackgroundImageFix"/><feBlend in="SourceGraphic" in2="BackgroundImageFix" mode="normal" result="shape"/><feColorMatrix in="SourceAlpha" result="hardAlpha" type="matrix" values="0 0 0 0 0 0 0 0 0 0 0 0 0 0 0 0 0 0 127 0"/><feOffset dx="-.804"/><feGaussianBlur stdDeviation="1.34"/><feComposite in2="hardAlpha" k2="-1" k3="1" operator="arithmetic"/><feColorMatrix type="matrix" values="0 0 0 0 0.282043 0 0 0 0 0.498681 0 0 0 0 0.731884 0 0 0 0.87052 0"/><feBlend in2="shape" mode="normal" result="effect1_innerShadow_99_36789"/><feColorMatrix in="SourceAlpha" result="hardAlpha" type="matrix" values="0 0 0 0 0 0 0 0 0 0 0 0 0 0 0 0 0 0 127 0"/><feOffset dx="-.268" dy="-.089"/><feGaussianBlur stdDeviation=".402"/><feComposite in2="hardAlpha" k2="-1" k3="1" operator="arithmetic"/><feColorMatrix type="matrix" values="0 0 0 0 1 0 0 0 0 1 0 0 0 0 1 0 0 0 0.51751 0"/><feBlend in2="effect1_innerShadow_99_36789" mode="normal" result="effect2_innerShadow_99_36789"/></filter><linearGradient id="paint0_linear_99_36789" x1="2.377" x2="2.377" y1="2" y2="49.246" gradientUnits="userSpaceOnUse"><stop stop-color="#18B6F2"/><stop offset="1" stop-color="#1869E3"/></linearGradient></defs></svg>