<svg xmlns="http://www.w3.org/2000/svg" width="35" height="48" fill="none" viewBox="0 0 35 48"><g id="Files/Numbers"><g id="Background" filter="url(#filter0_i_99_18560)"><path fill="url(#paint0_linear_99_18560)" fill-rule="evenodd" d="M0 2.14444C0 0.9601 0.960101 0 2.14444 0H20.1433C21.3481 0 22.5018 0.486581 23.3426 1.34935L33.7318 12.0088C34.5449 12.8431 35 13.962 35 15.127V45.8556C35 47.0399 34.0399 48 32.8556 48H2.14444C0.9601 48 0 47.0399 0 45.8556V24V2.14444Z" clip-rule="evenodd"/></g><mask id="mask0_99_18560" style="mask-type:luminance" width="35" height="48" x="0" y="0" maskUnits="userSpaceOnUse"><path id="Mask" fill="#fff" fill-rule="evenodd" d="M0 2.14444C0 0.9601 0.960101 0 2.14444 0H20.1433C21.3481 0 22.5018 0.486581 23.3426 1.34935L33.7318 12.0088C34.5449 12.8431 35 13.962 35 15.127V45.8556C35 47.0399 34.0399 48 32.8556 48H2.14444C0.9601 48 0 47.0399 0 45.8556V24V2.14444Z" clip-rule="evenodd"/></mask><g mask="url(#mask0_99_18560)"><g id="Numbers"><path id="Rectangle" fill="url(#paint1_linear_99_18560)" fill-rule="evenodd" d="M5.18054 35.4319C5.20674 35.5559 5.31613 35.6445 5.4428 35.6445H29.3047C29.4313 35.6445 29.5407 35.5559 29.5669 35.4319L29.6563 35.0092C29.7033 34.787 29.5337 34.5779 29.3066 34.5779H5.44086C5.21372 34.5779 5.0442 34.787 5.09118 35.0092L5.18054 35.4319Z" clip-rule="evenodd"/><path id="Rectangle_2" fill="url(#paint2_linear_99_18560)" fill-rule="evenodd" d="M5.65383 25.4885C5.66657 25.3009 5.82243 25.1553 6.01041 25.1553H28.7371C28.925 25.1553 29.0809 25.3009 29.0936 25.4885L29.7215 34.7292C29.7356 34.9356 29.5719 35.1108 29.365 35.1108H5.38252C5.17559 35.1108 5.0119 34.9356 5.02593 34.7292L5.65383 25.4885Z" clip-rule="evenodd"/><g id="Rectangle_3" filter="url(#filter1_ii_99_18560)"><rect width="4.419" height="9.333" x="8.889" y="23.467" fill="url(#paint3_linear_99_18560)" rx=".625"/></g><g id="Rectangle_4" filter="url(#filter2_ii_99_18560)"><path fill="url(#paint4_linear_99_18560)" d="M8.88892 24.0029C8.88892 23.7068 9.12894 23.4668 9.42503 23.4668H12.772C13.0681 23.4668 13.3081 23.7068 13.3081 24.0029V24.7736C13.3081 25.0203 13.1081 25.2203 12.8613 25.2203H9.33568C9.08894 25.2203 8.88892 25.0203 8.88892 24.7736V24.0029Z"/></g><g id="Rectangle Copy 35" filter="url(#filter3_ii_99_18560)"><path fill="url(#paint5_linear_99_18560)" fill-rule="evenodd" d="M13.8384 19.4692C13.8384 19.1238 14.1184 18.8438 14.4638 18.8438H17.6321C17.9775 18.8438 18.2576 19.1238 18.2576 19.4692V32.1738C18.2576 32.5193 17.9775 32.7993 17.6321 32.7993H14.4638C14.1184 32.7993 13.8384 32.5193 13.8384 32.1738V19.4692Z" clip-rule="evenodd"/></g><g id="Rectangle Copy 36" filter="url(#filter4_ii_99_18560)"><path fill="url(#paint6_linear_99_18560)" d="M13.8384 19.3799C13.8384 19.0838 14.0784 18.8438 14.3745 18.8438H17.7215C18.0175 18.8438 18.2576 19.0838 18.2576 19.3799V19.997C18.2576 20.2437 18.0575 20.4438 17.8108 20.4438H14.2851C14.0384 20.4438 13.8384 20.2437 13.8384 19.997V19.3799Z"/></g><g id="Rectangle Copy 37" filter="url(#filter5_ii_99_18560)"><path fill="url(#paint7_linear_99_18560)" fill-rule="evenodd" d="M18.7879 12.6255C18.7879 12.28 19.0679 12 19.4134 12H22.5816C22.9271 12 23.2071 12.28 23.2071 12.6255V32.1745C23.2071 32.52 22.9271 32.8 22.5816 32.8H19.4134C19.0679 32.8 18.7879 32.52 18.7879 32.1745V12.6255Z" clip-rule="evenodd"/></g><g id="Rectangle Copy 38" filter="url(#filter6_ii_99_18560)"><path fill="url(#paint8_linear_99_18560)" d="M18.7879 12.5361C18.7879 12.24 19.0279 12 19.324 12H22.671C22.9671 12 23.2071 12.24 23.2071 12.5361V12.7977C23.2071 13.0444 23.0071 13.2444 22.7603 13.2444H19.2347C18.9879 13.2444 18.7879 13.0444 18.7879 12.7977V12.5361Z"/></g><g id="Rectangle Copy 39" filter="url(#filter7_ii_99_18560)"><path fill="url(#paint9_linear_99_18560)" fill-rule="evenodd" d="M23.7374 16.937C23.7374 16.5916 24.0174 16.3115 24.3628 16.3115H27.5311C27.8765 16.3115 28.1566 16.5916 28.1566 16.937V32.1749C28.1566 32.5204 27.8765 32.8004 27.5311 32.8004H24.3628C24.0174 32.8004 23.7374 32.5204 23.7374 32.1749V16.937Z" clip-rule="evenodd"/></g><g id="Rectangle Copy 40" filter="url(#filter8_ii_99_18560)"><path fill="url(#paint10_linear_99_18560)" d="M23.7374 16.625C23.7374 16.3289 23.9774 16.0889 24.2735 16.0889H27.6204C27.9165 16.0889 28.1566 16.3289 28.1566 16.625V16.9754C28.1566 17.2222 27.9565 17.4222 27.7098 17.4222H24.1841C23.9374 17.4222 23.7374 17.2222 23.7374 16.9754V16.625Z"/></g><g id="Group 10"><path id="1" fill="#828282" d="M7.76789 27.0079V26.4746H7.4837L7.13153 26.5696V26.6735L7.46576 26.5833H7.48276V27.0079H7.76789Z"/><path id="2" fill="#828282" d="M7.89165 28.5197V28.4292H7.36369V28.4227L7.59425 28.3279C7.6984 28.2857 7.77108 28.2505 7.81229 28.2224C7.8535 28.1945 7.87411 28.1664 7.87411 28.138C7.87411 28.0934 7.83429 28.0568 7.75465 28.0285C7.67556 28.0004 7.57309 27.9863 7.44723 27.9863C7.31691 27.9863 7.21109 28.0019 7.12978 28.0332C7.04847 28.0644 7.00781 28.1051 7.00781 28.1553V28.1571H7.24172V28.155C7.24172 28.131 7.2601 28.1115 7.29686 28.0966C7.33306 28.0815 7.38039 28.0739 7.43887 28.0739C7.49401 28.0739 7.5394 28.0805 7.57504 28.0937C7.61013 28.1072 7.62767 28.1243 7.62767 28.1452C7.62767 28.1623 7.61347 28.1796 7.58506 28.1971C7.55666 28.2152 7.50013 28.2419 7.41548 28.2775L7.02201 28.4436V28.5197H7.89165Z"/><path id="3" fill="#828282" d="M7.35583 30.1193C7.48577 30.1193 7.59283 30.1049 7.67701 30.076C7.76118 30.0472 7.80327 30.0105 7.80327 29.966C7.80327 29.9327 7.78039 29.9052 7.73462 29.8834C7.68937 29.8618 7.62756 29.849 7.54917 29.845V29.8387C7.61283 29.8329 7.66359 29.8194 7.70147 29.7983C7.73988 29.7772 7.75908 29.752 7.75908 29.7227C7.75908 29.6829 7.72146 29.65 7.64623 29.6243C7.57048 29.5987 7.4742 29.5859 7.35741 29.5859C7.23325 29.5859 7.13382 29.6 7.05911 29.6281C6.98441 29.6563 6.94495 29.6943 6.94074 29.7424H7.16091C7.16407 29.7204 7.18274 29.7029 7.21694 29.69C7.25114 29.6771 7.29585 29.6707 7.35109 29.6707C7.40686 29.6707 7.45105 29.6766 7.48367 29.6886C7.51681 29.7008 7.53339 29.7171 7.53339 29.7375C7.53339 29.7581 7.51655 29.7748 7.48288 29.7877C7.44974 29.8006 7.40607 29.8071 7.35188 29.8071H7.21299V29.8862H7.35425C7.41791 29.8862 7.46815 29.8926 7.50498 29.9055C7.5418 29.9182 7.56022 29.9356 7.56022 29.9579C7.56022 29.9795 7.54154 29.997 7.50419 30.0106C7.46631 30.0242 7.41764 30.031 7.3582 30.031C7.29717 30.031 7.24772 30.0247 7.20984 30.012C7.17196 29.9996 7.15118 29.9826 7.1475 29.9611H6.91943C6.92469 30.0089 6.96705 30.0472 7.04649 30.076C7.12593 30.1049 7.22904 30.1193 7.35583 30.1193Z"/><path id="4" fill="#828282" fill-rule="evenodd" d="M7.58484 31.6404V31.7335H7.34815V31.6404H6.76794V31.5417C6.86054 31.4631 7.01696 31.3493 7.23721 31.2002H7.58484V31.5476H7.74017V31.6404H7.58484ZM7.03283 31.5557H7.38636V31.2891H7.37356C7.25039 31.375 7.13681 31.4619 7.03283 31.5498V31.5557Z" clip-rule="evenodd"/><path id="5" fill="#828282" d="M7.22209 33.2965C7.3697 33.2965 7.48873 33.2808 7.5792 33.2493C7.66966 33.218 7.7149 33.177 7.7149 33.1264C7.7149 33.0797 7.67591 33.0414 7.59795 33.0114C7.51938 32.9815 7.41909 32.9665 7.29708 32.9665C7.17329 32.9665 7.08222 32.982 7.0239 33.0131H7.00783L7.0364 32.8905H7.63723V32.8076L6.82749 32.8076L6.76321 33.0841H7.00426C7.05187 33.0555 7.12537 33.0412 7.22477 33.0412C7.29321 33.0412 7.34916 33.0492 7.39261 33.0653C7.43606 33.0814 7.45778 33.1025 7.45778 33.1287C7.45778 33.1545 7.43606 33.1753 7.39261 33.1911C7.34976 33.207 7.29351 33.2149 7.22388 33.2149C7.16257 33.2149 7.1105 33.2089 7.06764 33.1967C7.02479 33.1846 6.99949 33.1687 6.99176 33.1488H6.74268C6.74684 33.192 6.79267 33.2272 6.88016 33.2546C6.96944 33.2825 7.08341 33.2965 7.22209 33.2965Z"/></g></g><g id="Corner" filter="url(#filter9_f_99_18560)" opacity=".199"><path fill="#050A5B" fill-rule="evenodd" d="M21.1895 -0.329329C24.841 -0.730189 32.3134 5.01617 32.3134 5.01617C32.3134 5.01617 35.6187 10.8918 35.6187 15.0918C30.6754 14.1793 18.649 16.4445 18.649 16.4445C18.649 16.4445 19.5588 5.01617 21.1895 -0.329329Z" clip-rule="evenodd"/></g><path id="Shadow" fill="url(#paint11_linear_99_18560)" fill-rule="evenodd" d="M18.5606 -0.259595L22.6796 -0.355469L29.7773 5.26114L35.0884 11.7182V15.1112L35.0184 14.6594C34.9171 14.0062 34.3549 13.5244 33.6939 13.5244H23.6077C22.5714 13.5244 21.7313 12.6843 21.7313 11.648V1.35C21.7313 0.681578 21.2388 0.115334 20.5768 0.0226631L18.5606 -0.259595Z" clip-rule="evenodd"/></g></g><defs><filter id="filter0_i_99_18560" width="36.966" height="49.876" x="-1.966" y="0" color-interpolation-filters="sRGB" filterUnits="userSpaceOnUse"><feFlood flood-opacity="0" result="BackgroundImageFix"/><feBlend in="SourceGraphic" in2="BackgroundImageFix" mode="normal" result="shape"/><feColorMatrix in="SourceAlpha" result="hardAlpha" type="matrix" values="0 0 0 0 0 0 0 0 0 0 0 0 0 0 0 0 0 0 127 0"/><feOffset dx="-1.966" dy="1.876"/><feGaussianBlur stdDeviation="9.784"/><feComposite in2="hardAlpha" k2="-1" k3="1" operator="arithmetic"/><feColorMatrix type="matrix" values="0 0 0 0 0 0 0 0 0 0 0 0 0 0 0 0 0 0 0.0275623 0"/><feBlend in2="shape" mode="normal" result="effect1_innerShadow_99_18560"/></filter><filter id="filter1_ii_99_18560" width="5.223" height="9.333" x="8.442" y="23.467" color-interpolation-filters="sRGB" filterUnits="userSpaceOnUse"><feFlood flood-opacity="0" result="BackgroundImageFix"/><feBlend in="SourceGraphic" in2="BackgroundImageFix" mode="normal" result="shape"/><feColorMatrix in="SourceAlpha" result="hardAlpha" type="matrix" values="0 0 0 0 0 0 0 0 0 0 0 0 0 0 0 0 0 0 127 0"/><feOffset dx="-.447"/><feGaussianBlur stdDeviation=".223"/><feComposite in2="hardAlpha" k2="-1" k3="1" operator="arithmetic"/><feColorMatrix type="matrix" values="0 0 0 0 0.29563 0 0 0 0 0 0 0 0 0 0 0 0 0 0.356616 0"/><feBlend in2="shape" mode="normal" result="effect1_innerShadow_99_18560"/><feColorMatrix in="SourceAlpha" result="hardAlpha" type="matrix" values="0 0 0 0 0 0 0 0 0 0 0 0 0 0 0 0 0 0 127 0"/><feOffset dx=".357"/><feGaussianBlur stdDeviation=".179"/><feComposite in2="hardAlpha" k2="-1" k3="1" operator="arithmetic"/><feColorMatrix type="matrix" values="0 0 0 0 0.294118 0 0 0 0 0 0 0 0 0 0 0 0 0 0.258741 0"/><feBlend in2="effect1_innerShadow_99_18560" mode="normal" result="effect2_innerShadow_99_18560"/></filter><filter id="filter2_ii_99_18560" width="4.419" height="2.111" x="8.889" y="23.377" color-interpolation-filters="sRGB" filterUnits="userSpaceOnUse"><feFlood flood-opacity="0" result="BackgroundImageFix"/><feBlend in="SourceGraphic" in2="BackgroundImageFix" mode="normal" result="shape"/><feColorMatrix in="SourceAlpha" result="hardAlpha" type="matrix" values="0 0 0 0 0 0 0 0 0 0 0 0 0 0 0 0 0 0 127 0"/><feOffset dy="-.089"/><feGaussianBlur stdDeviation=".134"/><feComposite in2="hardAlpha" k2="-1" k3="1" operator="arithmetic"/><feColorMatrix type="matrix" values="0 0 0 0 1 0 0 0 0 1 0 0 0 0 1 0 0 0 0.5 0"/><feBlend in2="shape" mode="normal" result="effect1_innerShadow_99_18560"/><feColorMatrix in="SourceAlpha" result="hardAlpha" type="matrix" values="0 0 0 0 0 0 0 0 0 0 0 0 0 0 0 0 0 0 127 0"/><feOffset dy=".268"/><feGaussianBlur stdDeviation=".223"/><feComposite in2="hardAlpha" k2="-1" k3="1" operator="arithmetic"/><feColorMatrix type="matrix" values="0 0 0 0 0.913725 0 0 0 0 0.247059 0 0 0 0 0.317647 0 0 0 0.311462 0"/><feBlend in2="effect1_innerShadow_99_18560" mode="normal" result="effect2_innerShadow_99_18560"/></filter><filter id="filter3_ii_99_18560" width="5.045" height="13.955" x="13.481" y="18.844" color-interpolation-filters="sRGB" filterUnits="userSpaceOnUse"><feFlood flood-opacity="0" result="BackgroundImageFix"/><feBlend in="SourceGraphic" in2="BackgroundImageFix" mode="normal" result="shape"/><feColorMatrix in="SourceAlpha" result="hardAlpha" type="matrix" values="0 0 0 0 0 0 0 0 0 0 0 0 0 0 0 0 0 0 127 0"/><feOffset dx="-.447"/><feGaussianBlur stdDeviation=".179"/><feComposite in2="hardAlpha" k2="-1" k3="1" operator="arithmetic"/><feColorMatrix type="matrix" values="0 0 0 0 0.29563 0 0 0 0 0.0875066 0 0 0 0 0 0 0 0 0.251776 0"/><feBlend in2="shape" mode="normal" result="effect1_innerShadow_99_18560"/><feColorMatrix in="SourceAlpha" result="hardAlpha" type="matrix" values="0 0 0 0 0 0 0 0 0 0 0 0 0 0 0 0 0 0 127 0"/><feOffset dx=".357"/><feGaussianBlur stdDeviation=".134"/><feComposite in2="hardAlpha" k2="-1" k3="1" operator="arithmetic"/><feColorMatrix type="matrix" values="0 0 0 0 0.294118 0 0 0 0 0.122345 0 0 0 0 0 0 0 0 0.258741 0"/><feBlend in2="effect1_innerShadow_99_18560" mode="normal" result="effect2_innerShadow_99_18560"/></filter><filter id="filter4_ii_99_18560" width="4.419" height="1.957" x="13.838" y="18.754" color-interpolation-filters="sRGB" filterUnits="userSpaceOnUse"><feFlood flood-opacity="0" result="BackgroundImageFix"/><feBlend in="SourceGraphic" in2="BackgroundImageFix" mode="normal" result="shape"/><feColorMatrix in="SourceAlpha" result="hardAlpha" type="matrix" values="0 0 0 0 0 0 0 0 0 0 0 0 0 0 0 0 0 0 127 0"/><feOffset dy="-.089"/><feGaussianBlur stdDeviation=".134"/><feComposite in2="hardAlpha" k2="-1" k3="1" operator="arithmetic"/><feColorMatrix type="matrix" values="0 0 0 0 1 0 0 0 0 0.919417 0 0 0 0 0.804611 0 0 0 0.5 0"/><feBlend in2="shape" mode="normal" result="effect1_innerShadow_99_18560"/><feColorMatrix in="SourceAlpha" result="hardAlpha" type="matrix" values="0 0 0 0 0 0 0 0 0 0 0 0 0 0 0 0 0 0 127 0"/><feOffset dy=".268"/><feGaussianBlur stdDeviation=".223"/><feComposite in2="hardAlpha" k2="-1" k3="1" operator="arithmetic"/><feColorMatrix type="matrix" values="0 0 0 0 1 0 0 0 0 0.61393 0 0 0 0 0.150953 0 0 0 0.311462 0"/><feBlend in2="effect1_innerShadow_99_18560" mode="normal" result="effect2_innerShadow_99_18560"/></filter><filter id="filter5_ii_99_18560" width="4.955" height="20.8" x="18.52" y="12" color-interpolation-filters="sRGB" filterUnits="userSpaceOnUse"><feFlood flood-opacity="0" result="BackgroundImageFix"/><feBlend in="SourceGraphic" in2="BackgroundImageFix" mode="normal" result="shape"/><feColorMatrix in="SourceAlpha" result="hardAlpha" type="matrix" values="0 0 0 0 0 0 0 0 0 0 0 0 0 0 0 0 0 0 127 0"/><feOffset dx="-.447"/><feGaussianBlur stdDeviation=".134"/><feComposite in2="hardAlpha" k2="-1" k3="1" operator="arithmetic"/><feColorMatrix type="matrix" values="0 0 0 0 0 0 0 0 0 0.228091 0 0 0 0 0.0414711 0 0 0 0.270323 0"/><feBlend in2="shape" mode="normal" result="effect1_innerShadow_99_18560"/><feColorMatrix in="SourceAlpha" result="hardAlpha" type="matrix" values="0 0 0 0 0 0 0 0 0 0 0 0 0 0 0 0 0 0 127 0"/><feOffset dx=".357"/><feGaussianBlur stdDeviation=".134"/><feComposite in2="hardAlpha" k2="-1" k3="1" operator="arithmetic"/><feColorMatrix type="matrix" values="0 0 0 0 0 0 0 0 0 0.294118 0 0 0 0 0.16459 0 0 0 0.308676 0"/><feBlend in2="effect1_innerShadow_99_18560" mode="normal" result="effect2_innerShadow_99_18560"/></filter><filter id="filter6_ii_99_18560" width="4.419" height="1.602" x="18.788" y="11.911" color-interpolation-filters="sRGB" filterUnits="userSpaceOnUse"><feFlood flood-opacity="0" result="BackgroundImageFix"/><feBlend in="SourceGraphic" in2="BackgroundImageFix" mode="normal" result="shape"/><feColorMatrix in="SourceAlpha" result="hardAlpha" type="matrix" values="0 0 0 0 0 0 0 0 0 0 0 0 0 0 0 0 0 0 127 0"/><feOffset dy="-.089"/><feGaussianBlur stdDeviation=".134"/><feComposite in2="hardAlpha" k2="-1" k3="1" operator="arithmetic"/><feColorMatrix type="matrix" values="0 0 0 0 0.702172 0 0 0 0 0.992725 0 0 0 0 0.792479 0 0 0 1 0"/><feBlend in2="shape" mode="normal" result="effect1_innerShadow_99_18560"/><feColorMatrix in="SourceAlpha" result="hardAlpha" type="matrix" values="0 0 0 0 0 0 0 0 0 0 0 0 0 0 0 0 0 0 127 0"/><feOffset dy=".268"/><feGaussianBlur stdDeviation=".223"/><feComposite in2="hardAlpha" k2="-1" k3="1" operator="arithmetic"/><feColorMatrix type="matrix" values="0 0 0 0 0.43745 0 0 0 0 0.985507 0 0 0 0 0.578884 0 0 0 1 0"/><feBlend in2="effect1_innerShadow_99_18560" mode="normal" result="effect2_innerShadow_99_18560"/></filter><filter id="filter7_ii_99_18560" width="5.045" height="16.489" x="23.38" y="16.311" color-interpolation-filters="sRGB" filterUnits="userSpaceOnUse"><feFlood flood-opacity="0" result="BackgroundImageFix"/><feBlend in="SourceGraphic" in2="BackgroundImageFix" mode="normal" result="shape"/><feColorMatrix in="SourceAlpha" result="hardAlpha" type="matrix" values="0 0 0 0 0 0 0 0 0 0 0 0 0 0 0 0 0 0 127 0"/><feOffset dx="-.447"/><feGaussianBlur stdDeviation=".179"/><feComposite in2="hardAlpha" k2="-1" k3="1" operator="arithmetic"/><feColorMatrix type="matrix" values="0 0 0 0 0.29563 0 0 0 0 0.0875066 0 0 0 0 0 0 0 0 0.251776 0"/><feBlend in2="shape" mode="normal" result="effect1_innerShadow_99_18560"/><feColorMatrix in="SourceAlpha" result="hardAlpha" type="matrix" values="0 0 0 0 0 0 0 0 0 0 0 0 0 0 0 0 0 0 127 0"/><feOffset dx=".357"/><feGaussianBlur stdDeviation=".134"/><feComposite in2="hardAlpha" k2="-1" k3="1" operator="arithmetic"/><feColorMatrix type="matrix" values="0 0 0 0 0.294118 0 0 0 0 0.122345 0 0 0 0 0 0 0 0 0.258741 0"/><feBlend in2="effect1_innerShadow_99_18560" mode="normal" result="effect2_innerShadow_99_18560"/></filter><filter id="filter8_ii_99_18560" width="4.419" height="1.69" x="23.737" y="15.999" color-interpolation-filters="sRGB" filterUnits="userSpaceOnUse"><feFlood flood-opacity="0" result="BackgroundImageFix"/><feBlend in="SourceGraphic" in2="BackgroundImageFix" mode="normal" result="shape"/><feColorMatrix in="SourceAlpha" result="hardAlpha" type="matrix" values="0 0 0 0 0 0 0 0 0 0 0 0 0 0 0 0 0 0 127 0"/><feOffset dy="-.089"/><feGaussianBlur stdDeviation=".134"/><feComposite in2="hardAlpha" k2="-1" k3="1" operator="arithmetic"/><feColorMatrix type="matrix" values="0 0 0 0 0.804611 0 0 0 0 0.995901 0 0 0 0 1 0 0 0 0.5 0"/><feBlend in2="shape" mode="normal" result="effect1_innerShadow_99_18560"/><feColorMatrix in="SourceAlpha" result="hardAlpha" type="matrix" values="0 0 0 0 0 0 0 0 0 0 0 0 0 0 0 0 0 0 127 0"/><feOffset dy=".268"/><feGaussianBlur stdDeviation=".223"/><feComposite in2="hardAlpha" k2="-1" k3="1" operator="arithmetic"/><feColorMatrix type="matrix" values="0 0 0 0 0.150953 0 0 0 0 0.661569 0 0 0 0 1 0 0 0 0.311462 0"/><feBlend in2="effect1_innerShadow_99_18560" mode="normal" result="effect2_innerShadow_99_18560"/></filter><filter id="filter9_f_99_18560" width="27.657" height="27.481" x="13.306" y="-5.693" color-interpolation-filters="sRGB" filterUnits="userSpaceOnUse"><feFlood flood-opacity="0" result="BackgroundImageFix"/><feBlend in="SourceGraphic" in2="BackgroundImageFix" mode="normal" result="shape"/><feGaussianBlur result="effect1_foregroundBlur_99_18560" stdDeviation="2.672"/></filter><linearGradient id="paint0_linear_99_18560" x1="10.934" x2="-23.974" y1="-10.972" y2="19.141" gradientUnits="userSpaceOnUse"><stop stop-color="#F1F1F1"/><stop offset="1" stop-color="#FBFBFB"/></linearGradient><linearGradient id="paint1_linear_99_18560" x1="29.747" x2="5" y1="36.178" y2="36.178" gradientUnits="userSpaceOnUse"><stop stop-color="#BDBDBD"/><stop offset=".975" stop-color="#BDBDBD"/><stop offset="1" stop-color="#919191"/></linearGradient><linearGradient id="paint2_linear_99_18560" x1="5" x2="5" y1="25.155" y2="35.111" gradientUnits="userSpaceOnUse"><stop stop-color="#E6E6E6"/><stop offset="1" stop-color="#fff"/></linearGradient><linearGradient id="paint3_linear_99_18560" x1="8.889" x2="8.889" y1="23.467" y2="32.8" gradientUnits="userSpaceOnUse"><stop stop-color="#F45B67"/><stop offset="1" stop-color="#E0273E"/></linearGradient><linearGradient id="paint4_linear_99_18560" x1="8.889" x2="8.889" y1="23.467" y2="25.22" gradientUnits="userSpaceOnUse"><stop stop-color="#F87B7F"/><stop offset="1" stop-color="#FF948C"/></linearGradient><linearGradient id="paint5_linear_99_18560" x1="13.838" x2="13.838" y1="18.844" y2="32.799" gradientUnits="userSpaceOnUse"><stop stop-color="#FFB635"/><stop offset="1" stop-color="#F06711"/></linearGradient><linearGradient id="paint6_linear_99_18560" x1="13.838" x2="13.838" y1="18.844" y2="20.444" gradientUnits="userSpaceOnUse"><stop stop-color="#FFD585"/><stop offset="1" stop-color="#FFCC70"/></linearGradient><linearGradient id="paint7_linear_99_18560" x1="18.788" x2="18.788" y1="12" y2="32.8" gradientUnits="userSpaceOnUse"><stop stop-color="#50E783"/><stop offset="1" stop-color="#01BB22"/></linearGradient><linearGradient id="paint8_linear_99_18560" x1="18.824" x2="18.824" y1="12" y2="13.224" gradientUnits="userSpaceOnUse"><stop stop-color="#78F498"/><stop offset="1" stop-color="#8EF19F"/></linearGradient><linearGradient id="paint9_linear_99_18560" x1="23.737" x2="23.737" y1="16.311" y2="32.8" gradientUnits="userSpaceOnUse"><stop stop-color="#53CDFA"/><stop offset="1" stop-color="#017AF3"/></linearGradient><linearGradient id="paint10_linear_99_18560" x1="23.737" x2="23.737" y1="16.089" y2="17.422" gradientUnits="userSpaceOnUse"><stop stop-color="#6AD1FB"/><stop offset="1" stop-color="#80D6FD"/></linearGradient><linearGradient id="paint11_linear_99_18560" x1="25.379" x2="19.395" y1="3.541" y2="10.201" gradientUnits="userSpaceOnUse"><stop stop-color="#EBEBEB"/><stop offset="1" stop-color="#FBFBFB"/></linearGradient></defs></svg>