<svg xmlns="http://www.w3.org/2000/svg" width="32" height="32" fill="none" viewBox="0 0 32 32"><path fill="#007AFF" d="M13.3291 23.6187C13.8936 23.6187 14.3003 23.2036 14.3003 22.6475V21.1699L16.3257 23.0791C16.7241 23.4526 17.0562 23.6187 17.4629 23.6187C18.0273 23.6187 18.4341 23.2036 18.4341 22.6475V19.4766H18.6748C21.8955 19.4766 23.9209 20.29 25.3735 23.0044C25.6641 23.5356 26.0459 23.6187 26.3945 23.6187C26.8345 23.6187 27.2495 23.2202 27.2495 22.5063C27.2495 16.3721 24.6431 12.5454 18.6748 12.5454H18.4341V9.40771C18.4341 8.85156 18.0273 8.39502 17.4463 8.39502C17.0396 8.39502 16.7656 8.56934 16.3257 8.98438L14.3003 10.877V9.40771C14.3003 8.85156 13.8936 8.39502 13.3125 8.39502C12.9058 8.39502 12.6318 8.56934 12.1919 8.98438L5.63428 15.1104C5.31055 15.4175 5.21924 15.7246 5.21924 16.0068C5.21924 16.2808 5.31885 16.5962 5.63428 16.895L12.1919 23.0791C12.582 23.4526 12.9224 23.6187 13.3291 23.6187ZM12.7065 21.7593L6.79639 16.1646C6.72998 16.0981 6.70508 16.0566 6.70508 16.0068C6.70508 15.957 6.72998 15.9072 6.79639 15.8491L12.7065 10.1797C12.748 10.1465 12.7979 10.1133 12.8477 10.1133C12.9224 10.1133 12.9639 10.1631 12.9639 10.2295V12.1221L9.77637 15.1104C9.45264 15.4175 9.35303 15.7246 9.35303 16.0068C9.35303 16.2808 9.46094 16.5962 9.77637 16.895L12.9639 19.9082V21.7095C12.9639 21.7842 12.9224 21.834 12.8477 21.834C12.8062 21.834 12.7563 21.8091 12.7065 21.7593ZM16.9897 21.834C16.9399 21.834 16.8901 21.8091 16.8403 21.7593L10.9302 16.1646C10.8638 16.0981 10.8389 16.0566 10.8389 16.0068C10.8389 15.957 10.8638 15.9072 10.9302 15.8491L16.8403 10.1797C16.8818 10.1465 16.9316 10.1133 16.9814 10.1133C17.0562 10.1133 17.0977 10.1631 17.0977 10.2295V13.5249C17.0977 13.7158 17.189 13.7988 17.3799 13.7988H18.4922C24.1865 13.7988 25.9048 17.75 26.0708 21.668C26.0708 21.7344 26.0459 21.7593 26.0044 21.7593C25.9712 21.7593 25.9546 21.7344 25.9297 21.6763C24.9502 19.5928 22.4351 18.2231 18.4922 18.2231H17.3799C17.189 18.2231 17.0977 18.3062 17.0977 18.4971V21.7095C17.0977 21.7842 17.0562 21.834 16.9897 21.834Z"/></svg>