<svg width="32" height="32" viewBox="0 0 32 32" fill="none" xmlns="http://www.w3.org/2000/svg">
<path d="M8.81982 25.4116H23.1802C24.915 25.4116 25.7866 24.5483 25.7866 22.8384V18.6133C25.7866 18.3228 25.6704 18.0405 25.4629 17.8662C25.6787 17.4927 25.7866 17.0195 25.7866 16.4551V11.873C25.7866 11.1177 25.7368 10.603 25.3135 10.2046L22.375 7.42383C21.4702 6.57715 20.8228 6.31152 19.5942 6.31152H12.4058C11.1855 6.31152 10.5298 6.57715 9.6333 7.42383L6.68652 10.2046C6.26318 10.603 6.21338 11.1177 6.21338 11.873V16.4551C6.21338 17.0195 6.32129 17.4927 6.53711 17.8662C6.32959 18.0405 6.21338 18.3228 6.21338 18.6133V22.8384C6.21338 24.5483 7.08496 25.4116 8.81982 25.4116ZM16 13.9648C14.8296 13.9648 14.0742 12.9521 14.0742 11.9893V11.9561C14.0742 11.6074 13.8667 11.2837 13.4351 11.2837H8.16406C7.69092 11.2837 7.5332 11.0679 7.91504 10.7109L10.6543 8.12939C11.1606 7.65625 11.4927 7.47363 12.2812 7.47363H19.7188C20.5156 7.47363 20.8394 7.65625 21.3457 8.12939L24.085 10.7109C24.4834 11.0845 24.3008 11.2837 23.8442 11.2837H18.5649C18.1333 11.2837 17.9341 11.6074 17.9341 11.9561V11.9893C17.9341 12.9521 17.1787 13.9648 16 13.9648ZM8.83643 17.6919C8.00635 17.6919 7.5498 17.2437 7.5498 16.3804V12.5039H12.8125C13.0117 14.0479 14.3149 15.2017 16 15.2017C17.6851 15.2017 18.9883 14.0479 19.1875 12.5039H24.4502V16.3804C24.4502 17.2437 23.9854 17.6919 23.1636 17.6919H8.83643ZM16 20.373C15.0371 20.373 14.3564 19.6841 14.1406 18.9121H17.8594C17.6436 19.6841 16.9629 20.373 16 20.373ZM8.83643 24.0752C8.00635 24.0752 7.5498 23.627 7.5498 22.7637V18.9121H12.8125C13.0117 20.4561 14.3149 21.6099 16 21.6099C17.6851 21.6099 18.9883 20.4561 19.1875 18.9121H24.4502V22.7637C24.4502 23.627 23.9854 24.0752 23.1636 24.0752H8.83643Z" fill="#007AFF"/>
</svg>
