<svg xmlns="http://www.w3.org/2000/svg" width="32" height="32" fill="none" viewBox="0 0 32 32"><path fill="#007AFF" d="M10.3389 22.1494C12.8789 22.1494 14.7051 20.6636 14.7051 18.6382C14.7051 16.9946 13.5264 15.9155 11.6338 15.791V15.7578C13.2109 15.4922 14.1904 14.438 14.1904 12.9604C14.1904 11.1675 12.5635 9.87256 10.2974 9.87256C8.5874 9.87256 7.20947 10.6196 6.62012 11.8564C6.4624 12.1636 6.396 12.4458 6.396 12.7695C6.396 13.1597 6.66162 13.417 7.04346 13.417C7.41699 13.417 7.59131 13.2759 7.70752 12.8857C8.07275 11.7983 8.98584 11.1758 10.2476 11.1758C11.7334 11.1758 12.688 11.9561 12.688 13.1597C12.688 14.3965 11.667 15.2183 10.1812 15.2183H9.26807C8.87793 15.2183 8.6123 15.459 8.6123 15.8408C8.6123 16.2144 8.87793 16.4634 9.26807 16.4634H10.1978C12.0405 16.4634 13.1362 17.2437 13.1362 18.6299C13.1362 19.9082 11.9907 20.813 10.3472 20.813C8.91943 20.813 7.89014 20.1738 7.5166 19.0781C7.38379 18.7212 7.18457 18.5635 6.82764 18.5635C6.4043 18.5635 6.12207 18.8291 6.12207 19.2607C6.12207 19.5513 6.19678 19.8169 6.35449 20.1074C7.04346 21.4189 8.48779 22.1494 10.3389 22.1494ZM17.0708 21.9419H20.3579C23.6948 21.9419 25.8696 19.5596 25.8696 15.9819C25.8696 12.4292 23.6948 10.0718 20.3579 10.0718H17.0708C16.6143 10.0718 16.3154 10.3706 16.3154 10.8354V21.1699C16.3154 21.6431 16.6143 21.9419 17.0708 21.9419ZM17.8262 20.5806V11.4165H20.25C22.7319 11.4165 24.334 13.2427 24.334 15.9902C24.334 18.7461 22.7319 20.5806 20.25 20.5806H17.8262Z"/></svg>