<svg width="32" height="32" viewBox="0 0 32 32" fill="none" xmlns="http://www.w3.org/2000/svg">
<path d="M20.2271 19.5015L21.2148 20.6221H24.4023C25.4814 20.6221 26.0791 20.0327 26.0791 18.9453V9.88086C26.0791 8.79346 25.4814 8.2124 24.4023 8.2124H8.59766C7.57666 8.2124 6.9209 8.79346 6.9209 9.88086V18.9453C6.9209 20.0327 7.51855 20.6221 8.59766 20.6221H11.7935L12.7729 19.5015H8.80518C8.34863 19.5015 8.10791 19.2524 8.10791 18.7959V10.0303C8.10791 9.56543 8.34863 9.32471 8.80518 9.32471H24.1948C24.6514 9.32471 24.8921 9.56543 24.8921 10.0303V18.7959C24.8921 19.2524 24.6514 19.5015 24.1948 19.5015H20.2271ZM21.5718 23.8262C21.9619 23.8262 22.1113 23.4194 21.8623 23.1372L16.8569 17.4678C16.666 17.252 16.334 17.252 16.1431 17.4678L11.1377 23.1372C10.8887 23.4194 11.0381 23.8262 11.4282 23.8262H21.5718Z" fill="#007AFF"/>
</svg>
