<svg xmlns="http://www.w3.org/2000/svg" width="32" height="32" fill="none" viewBox="0 0 32 32"><path fill="#007AFF" d="M22.3086 12.6284C23.8774 12.6284 25.1807 11.3252 25.1807 9.74805C25.1807 8.1709 23.8774 6.86768 22.3086 6.86768C20.7231 6.86768 19.4282 8.1709 19.4282 9.74805C19.4282 11.3252 20.7231 12.6284 22.3086 12.6284ZM8.34668 19.2109C8.34668 20.6304 8.47119 21.8091 9.31787 22.6558C10.1646 23.5024 11.3599 23.6353 12.771 23.6353H19.2207C20.6401 23.6353 21.8354 23.5024 22.6821 22.6558C23.5288 21.8091 23.6533 20.6304 23.6533 19.2109V13.5581C23.2881 13.6826 22.8896 13.749 22.4746 13.7324C22.4165 13.749 22.375 13.749 22.3169 13.7573V19.4351C22.3169 20.2983 22.209 21.1782 21.7026 21.6846C21.2046 22.1826 20.3081 22.2988 19.4531 22.2988H12.5469C11.6919 22.2988 10.7954 22.1826 10.2891 21.6846C9.79102 21.1782 9.68311 20.2983 9.68311 19.4351V12.6201C9.68311 11.7485 9.79102 10.8521 10.2891 10.354C10.7954 9.84766 11.7002 9.73975 12.5718 9.73975H18.2993C18.2993 9.68164 18.3076 9.63184 18.3159 9.58203C18.2993 9.16699 18.3657 8.76855 18.4902 8.40332H12.7544C11.3599 8.40332 10.1646 8.53613 9.31787 9.38281C8.47119 10.2295 8.34668 11.4165 8.34668 12.8027V19.2109Z"/></svg>