<svg xmlns="http://www.w3.org/2000/svg" width="32" height="32" fill="none" viewBox="0 0 32 32"><path fill="#007AFF" d="M16 24.4736C20.6318 24.4736 24.4668 20.6304 24.4668 16.0068C24.4668 11.375 20.6235 7.54004 15.9917 7.54004C11.3682 7.54004 7.5332 11.375 7.5332 16.0068C7.5332 20.6304 11.3765 24.4736 16 24.4736ZM16 23.0625C12.082 23.0625 8.95264 19.9248 8.95264 16.0068C8.95264 12.0889 12.0737 8.95117 15.9917 8.95117C19.9097 8.95117 23.0474 12.0889 23.0557 16.0068C23.064 19.9248 19.918 23.0625 16 23.0625ZM12.3892 18.6216C12.3892 19.103 12.6299 19.377 13.0532 19.3687C13.4766 19.3604 13.7173 19.103 13.7173 18.6216V16.314C13.7173 15.5586 14.0825 15.2183 14.7964 15.2183L16.9629 15.21V16.5215C16.9629 17.0527 17.5688 17.3101 18.0254 16.9116L20.001 15.1934C20.499 14.77 20.499 14.3301 20.001 13.8984L18.0254 12.1802C17.5688 11.7817 16.9629 12.0391 16.9629 12.5786V13.8818H14.7715C13.1611 13.8818 12.3892 14.6455 12.3892 16.2476V18.6216Z"/></svg>