<svg width="32" height="32" viewBox="0 0 32 32" fill="none" xmlns="http://www.w3.org/2000/svg">
<path d="M14.7798 23.6187C15.3442 23.6187 15.751 23.2036 15.751 22.6475V19.4766H15.9917C19.2124 19.4766 21.2378 20.29 22.6904 23.0044C22.981 23.5356 23.3628 23.6187 23.7114 23.6187C24.1514 23.6187 24.5664 23.2202 24.5664 22.5063C24.5664 16.3721 21.9683 12.5454 15.9917 12.5454H15.751V9.40771C15.751 8.85156 15.3442 8.39502 14.7632 8.39502C14.3564 8.39502 14.0825 8.56934 13.6426 8.98438L7.09326 15.1104C6.76953 15.4175 6.66992 15.7246 6.66992 16.0068C6.66992 16.2808 6.77783 16.5962 7.09326 16.895L13.6426 23.0791C14.041 23.4526 14.373 23.6187 14.7798 23.6187ZM14.3066 21.834C14.2568 21.834 14.207 21.8091 14.1655 21.7593L8.24707 16.1646C8.18066 16.0981 8.15576 16.0566 8.15576 16.0068C8.15576 15.957 8.18066 15.9072 8.24707 15.8491L14.1572 10.1797C14.1987 10.1465 14.2485 10.1133 14.2983 10.1133C14.373 10.1133 14.4146 10.1631 14.4146 10.2295V13.5249C14.4146 13.7158 14.5059 13.7988 14.6968 13.7988H15.8091C21.5034 13.7988 23.2217 17.75 23.3877 21.668C23.3877 21.7344 23.3628 21.7593 23.3213 21.7593C23.2881 21.7593 23.2715 21.7344 23.2466 21.6763C22.2671 19.5928 19.752 18.2231 15.8091 18.2231H14.6968C14.5059 18.2231 14.4146 18.3062 14.4146 18.4971V21.7095C14.4146 21.7842 14.373 21.834 14.3066 21.834Z" fill="#007AFF"/>
</svg>
