<svg xmlns="http://www.w3.org/2000/svg" width="32" height="32" fill="none" viewBox="0 0 32 32"><path fill="#007AFF" d="M17.2119 24.6187C17.6187 24.6187 17.9507 24.4526 18.3491 24.0791L24.8984 17.895C25.2139 17.5962 25.3218 17.2808 25.3218 17.0068C25.3218 16.7246 25.2222 16.4175 24.8984 16.1104L18.3491 9.98438C17.9092 9.56934 17.6353 9.39502 17.2285 9.39502C16.6475 9.39502 16.2324 9.85156 16.2324 10.4077V13.5454H15.9917C10.0234 13.5454 7.42529 17.3721 7.42529 23.5063C7.42529 24.2202 7.83203 24.6187 8.28027 24.6187C8.62891 24.6187 9.01074 24.5356 9.30127 24.0044C10.7456 21.29 12.7793 20.4766 15.9917 20.4766H16.2324V23.6475C16.2324 24.2036 16.6475 24.6187 17.2119 24.6187ZM17.6851 22.834C17.6187 22.834 17.5688 22.7842 17.5688 22.7095V19.4971C17.5688 19.3062 17.4858 19.2231 17.2949 19.2231H16.1826C12.2397 19.2231 9.72461 20.5928 8.74512 22.6763C8.72021 22.7344 8.70361 22.7593 8.66211 22.7593C8.62891 22.7593 8.604 22.7344 8.604 22.668C8.77002 18.75 10.48 14.7988 16.1826 14.7988H17.2949C17.4858 14.7988 17.5688 14.7158 17.5688 14.5249V11.2295C17.5688 11.1631 17.6187 11.1133 17.6934 11.1133C17.7432 11.1133 17.793 11.1465 17.8345 11.1797L23.7446 16.8491C23.8027 16.9072 23.8276 16.957 23.8276 17.0068C23.8276 17.0566 23.811 17.0981 23.7446 17.1646L17.8262 22.7593C17.7847 22.8091 17.7349 22.834 17.6851 22.834Z"/></svg>