<svg xmlns="http://www.w3.org/2000/svg" width="32" height="32" fill="none" viewBox="0 0 32 32"><path fill="#007AFF" d="M8.53125 21.8423H21.7876C23.1987 21.8423 24.394 21.7095 25.2407 20.8628C26.0874 20.0161 26.2119 18.8291 26.2119 17.4097V14.604C26.2119 13.1929 26.0874 12.0059 25.2407 11.1592C24.394 10.3125 23.1987 10.1797 21.7876 10.1797H8.51465C7.12012 10.1797 5.9248 10.3125 5.07812 11.1675C4.23145 12.0142 4.10693 13.1929 4.10693 14.5874V17.4097C4.10693 18.8291 4.23145 20.0161 5.07812 20.8628C5.9248 21.7095 7.12012 21.8423 8.53125 21.8423ZM8.30713 20.5059C7.45215 20.5059 6.55566 20.3896 6.04932 19.8833C5.55127 19.3853 5.44336 18.4971 5.44336 17.6421V14.4048C5.44336 13.5249 5.55127 12.6367 6.04932 12.1304C6.55566 11.6323 7.46045 11.5161 8.33203 11.5161H22.0117C22.8667 11.5161 23.7632 11.6323 24.2695 12.1387C24.7676 12.6367 24.8755 13.5249 24.8755 14.3799V17.6421C24.8755 18.4971 24.7676 19.3853 24.2695 19.8833C23.7632 20.3896 22.8667 20.5059 22.0117 20.5059H8.30713ZM7.9751 19.4517H22.3521C22.9331 19.4517 23.2568 19.3853 23.5059 19.1362C23.7549 18.8872 23.8296 18.5635 23.8296 17.9824V14.0396C23.8296 13.4585 23.7466 13.1348 23.5059 12.8857C23.2568 12.6367 22.9331 12.5703 22.3521 12.5703H7.9751C7.39404 12.5703 7.07031 12.6367 6.82129 12.8857C6.58057 13.1348 6.49756 13.4585 6.49756 14.0396V17.9824C6.49756 18.5635 6.58057 18.8872 6.82129 19.1362C7.07031 19.3853 7.39404 19.4517 7.9751 19.4517ZM27.3408 18.1567C28.0049 18.1152 28.8848 17.2769 28.8848 16.0068C28.8848 14.7451 28.0049 13.9067 27.3408 13.8652V18.1567Z"/></svg>