<svg xmlns="http://www.w3.org/2000/svg" width="32" height="32" fill="none" viewBox="0 0 32 32"><path fill="#007AFF" d="M7.33203 24.3491C9.98828 24.3491 12.188 22.3818 12.5615 19.8252H13.8979C14.1719 20.4229 14.7778 20.8379 15.4917 20.8379C16.4546 20.8379 17.2349 20.0576 17.2349 19.103C17.2349 18.6382 17.0522 18.2148 16.7534 17.8994L20.8291 13.5332L21.1694 14.4131C19.5093 15.3096 18.3804 17.0527 18.3804 19.0698C18.3804 21.9917 20.7544 24.3491 23.6763 24.3491C26.5898 24.3491 28.9556 21.9834 28.9556 19.0698C28.9556 16.1479 26.5898 13.7905 23.6763 13.7905C23.2197 13.7905 22.7715 13.8486 22.3481 13.9565L20.1235 8.229C19.9741 7.83057 19.7002 7.67285 19.2188 7.67285H16.8447C16.4878 7.67285 16.1973 7.96338 16.1973 8.32031C16.1973 8.67725 16.4878 8.95947 16.8447 8.95947H18.9946C19.061 8.95947 19.0776 8.97607 19.1025 9.01758L20.3643 12.313L13.0679 13.3921L11.9888 11.3418H12.8521C13.209 11.3418 13.4995 11.0596 13.4995 10.7026C13.4995 10.354 13.2007 10.0552 12.8521 10.0552H9.58984C9.24121 10.0552 8.94238 10.354 8.94238 10.7026C8.94238 11.0596 9.23291 11.3418 9.58984 11.3418H10.6025L11.748 13.5664L10.5112 14.8447C9.63135 14.1807 8.52734 13.7905 7.33203 13.7905C4.41016 13.7905 2.04443 16.1479 2.04443 19.0698C2.04443 21.9917 4.41016 24.3491 7.33203 24.3491ZM15.4917 17.3682C15.3838 17.3682 15.2842 17.3765 15.1846 17.3931L13.6572 14.4961L19.1108 13.6992L15.6162 17.3682C15.5747 17.3682 15.5332 17.3682 15.4917 17.3682ZM12.5947 18.6299C12.5034 17.5176 12.0718 16.5049 11.3994 15.6914L12.3457 14.7202L14.0806 18.0737C13.9644 18.2397 13.873 18.4307 13.8149 18.6299H12.5947ZM7.33203 23.0459C5.12402 23.0459 3.35596 21.2778 3.35596 19.0698C3.35596 16.8701 5.13232 15.0938 7.33203 15.0938C8.17041 15.0938 8.95068 15.3511 9.59814 15.7993L7.48145 17.9907C7.43164 17.9907 7.38184 17.9824 7.33203 17.9824C6.72607 17.9824 6.26123 18.4556 6.25293 19.0698C6.24463 19.6675 6.71777 20.1489 7.33203 20.1489C7.63916 20.1489 7.90479 20.0244 8.104 19.8252H11.2417C10.8848 21.668 9.27441 23.0459 7.33203 23.0459ZM23.6763 23.0459C21.4683 23.0459 19.6919 21.2778 19.6919 19.0698C19.6919 17.6172 20.4722 16.3389 21.6426 15.6499L22.7466 18.5137C22.647 18.6714 22.5889 18.8623 22.5889 19.0698C22.5806 19.6675 23.062 20.1572 23.6763 20.1572C24.2822 20.1572 24.7554 19.6675 24.7554 19.0698C24.7554 18.5469 24.4067 18.1152 23.917 18.0156L22.8213 15.1851C23.0952 15.127 23.3857 15.0938 23.6763 15.0938C25.8677 15.0938 27.6523 16.8867 27.6523 19.0698C27.6523 21.2695 25.8677 23.0459 23.6763 23.0459ZM8.51904 18.6299L10.478 16.6294C10.918 17.1938 11.2085 17.8828 11.2915 18.6299H8.51904ZM15.5 19.7007C15.1597 19.7007 14.894 19.4268 14.894 19.1113C14.894 18.7793 15.1597 18.5054 15.5 18.5054C15.832 18.5054 16.0894 18.771 16.0894 19.1113C16.0894 19.4351 15.832 19.7007 15.5 19.7007Z"/></svg>