<svg xmlns="http://www.w3.org/2000/svg" width="32" height="32" fill="none" viewBox="0 0 32 32"><path fill="#007AFF" d="M11.4429 23.6602H20.5488C22.1841 23.6602 23.0557 22.8135 23.0557 21.1865V12.9189C23.8608 12.7861 24.2925 12.1802 24.2925 11.292V10.0303C24.2925 9.01758 23.7363 8.37842 22.7153 8.37842H9.27637C8.30518 8.37842 7.69922 9.01758 7.69922 10.0303V11.292C7.69922 12.1802 8.13086 12.7861 8.93604 12.9189V21.1865C8.93604 22.8218 9.80762 23.6602 11.4429 23.6602ZM9.6167 11.6904C9.20166 11.6904 9.03564 11.5161 9.03564 11.1011V10.2212C9.03564 9.80615 9.20166 9.63184 9.6167 9.63184H22.3833C22.7983 9.63184 22.9561 9.80615 22.9561 10.2212V11.1011C22.9561 11.5161 22.7983 11.6904 22.3833 11.6904H9.6167ZM11.4263 22.4067C10.6792 22.4067 10.2725 22 10.2725 21.2529V12.9438H21.7192V21.2529C21.7192 22 21.3042 22.4067 20.5654 22.4067H11.4263ZM13.2607 16.2891H18.7393C19.0879 16.2891 19.3369 16.0483 19.3369 15.6831V15.4175C19.3369 15.0522 19.0879 14.8198 18.7393 14.8198H13.2607C12.9121 14.8198 12.6714 15.0522 12.6714 15.4175V15.6831C12.6714 16.0483 12.9121 16.2891 13.2607 16.2891Z"/></svg>