<svg width="32" height="32" viewBox="0 0 32 32" fill="none" xmlns="http://www.w3.org/2000/svg">
<path d="M5.3999 21.1821C5.3999 23.498 7.4751 25.2329 10.0151 25.2329C12.5469 25.2329 14.6138 23.498 14.6138 21.1821V19.0405C15.0205 18.8911 15.502 18.8081 16 18.8081C16.5645 18.8081 17.0044 18.8579 17.3779 18.9824V21.1821C17.3779 23.498 19.4448 25.2329 21.9766 25.2329C24.5083 25.2329 26.5918 23.498 26.5918 21.1821C26.5918 20.5762 26.5005 20.0117 26.1602 19.2231L22.7153 11.188C22.2422 10.1089 21.2544 9.47803 20.0093 9.47803C18.4155 9.47803 17.3779 10.4907 17.3779 12.0098V12.7983C16.9629 12.6987 16.5146 12.6489 16 12.6489C15.5186 12.6489 15.0537 12.7236 14.6138 12.8398V12.0098C14.6138 10.4907 13.5762 9.47803 11.9824 9.47803C10.7373 9.47803 9.74121 10.1089 9.27637 11.188L5.82324 19.2231C5.48291 20.0117 5.3999 20.5762 5.3999 21.1821ZM7.87354 17.6294L10.4053 11.7441C10.6875 11.0801 11.252 10.6899 11.9326 10.6899C12.8125 10.6899 13.377 11.271 13.377 12.1426V18.4512C12.5469 17.6294 11.3184 17.1313 10.0151 17.1313C9.27637 17.1313 8.521 17.314 7.87354 17.6294ZM24.1182 17.6294C23.4707 17.314 22.7153 17.1313 21.9766 17.1313C20.6733 17.1313 19.4365 17.6294 18.6064 18.4512V12.1426C18.6064 11.271 19.1792 10.6899 20.0591 10.6899C20.7314 10.6899 21.2959 11.0801 21.5781 11.7441L24.1182 17.6294ZM16 13.7363C16.5645 13.7363 17.0044 13.7944 17.3779 13.9106V15.3301C16.9629 15.2305 16.5146 15.189 16 15.189C15.5186 15.189 15.0537 15.2554 14.6138 15.3799V13.9771C15.0205 13.8276 15.502 13.7363 16 13.7363ZM16 16.2764C16.5645 16.2764 17.0044 16.3262 17.3779 16.4507V17.8618C16.9629 17.7622 16.5146 17.7207 16 17.7207C15.5186 17.7207 15.0537 17.7871 14.6138 17.9116V16.5088C15.0205 16.3594 15.502 16.2764 16 16.2764ZM6.70312 21.1821C6.70312 19.5137 8.13916 18.3765 10.0151 18.3765C11.8828 18.3765 13.3687 19.5137 13.3687 21.1821C13.3687 22.8506 11.8828 23.9878 10.0151 23.9878C8.13916 23.9878 6.70312 22.8506 6.70312 21.1821ZM25.2803 21.1821C25.2803 22.8506 23.8442 23.9878 21.9766 23.9878C20.1006 23.9878 18.623 22.8506 18.623 21.1821C18.623 19.5137 20.1006 18.3765 21.9766 18.3765C23.8442 18.3765 25.2803 19.5137 25.2803 21.1821Z" fill="#007AFF"/>
</svg>
