<svg xmlns="http://www.w3.org/2000/svg" width="32" height="32" fill="none" viewBox="0 0 32 32"><path fill="#007AFF" d="M16.5 10.7148C15.811 9.86816 14.126 9.10449 12.2417 9.10449C9.75977 9.10449 7.76758 10.3745 7.27783 11.5781V24.0459C7.27783 24.7266 7.71777 24.9922 8.20752 24.9922C8.59766 24.9922 8.81348 24.876 9.0542 24.6934C9.63525 24.2119 10.5981 23.6558 12.2417 23.6558C13.9019 23.6558 15.0142 24.2036 15.4956 24.6353C15.728 24.8262 16.0103 24.9922 16.5 24.9922C16.9897 24.9922 17.2554 24.8013 17.4961 24.6353C18.019 24.2368 19.0981 23.6558 20.75 23.6558C22.4019 23.6558 23.3813 24.2202 23.9375 24.6934C24.1865 24.876 24.4023 24.9922 24.7842 24.9922C25.2739 24.9922 25.7139 24.7266 25.7139 24.0459V11.5781C25.2241 10.3745 23.2319 9.10449 20.75 9.10449C18.874 9.10449 17.189 9.86816 16.5 10.7148ZM8.71387 12.0015C8.91309 11.4453 10.2163 10.4492 12.2417 10.4492C14.2837 10.4492 15.6035 11.4536 15.7778 12.0015V23.3237C14.9146 22.6846 13.6279 22.3193 12.2417 22.3193C10.8555 22.3193 9.56885 22.6846 8.71387 23.3569V12.0015ZM24.2778 12.0015V23.3569C23.4229 22.6846 22.1362 22.3193 20.75 22.3193C19.3638 22.3193 18.0854 22.6846 17.2139 23.3237V12.0015C17.3882 11.4536 18.7163 10.4492 20.75 10.4492C22.7837 10.4492 24.0786 11.4453 24.2778 12.0015Z"/></svg>