<svg width="32" height="32" viewBox="0 0 32 32" fill="none" xmlns="http://www.w3.org/2000/svg">
<path d="M13.0801 10.0884V10.8438H19.9282V10.0884C19.9282 9.66504 19.6377 9.39111 19.1895 9.39111H13.8105C13.3623 9.39111 13.0801 9.66504 13.0801 10.0884ZM16.5 15.7495C13.271 15.7495 10.2993 15.3096 7.25293 14.0479V13.3755C7.25293 11.6821 8.10791 10.8438 9.81787 10.8438H11.5776V10.0054C11.5776 8.75195 12.3994 7.97998 13.7192 7.97998H19.2725C20.6006 7.97998 21.4224 8.75195 21.4224 10.0054V10.8438H23.1738C24.8921 10.8438 25.7388 11.6821 25.7388 13.3755V14.0479C22.6924 15.3096 19.7207 15.7495 16.5 15.7495ZM9.81787 23.9839C8.10791 23.9839 7.25293 23.1538 7.25293 21.4521V15.4175C9.67676 16.2808 11.9761 16.729 14.292 16.8867V17.5591C14.292 18.1484 14.624 18.4722 15.2051 18.4722H17.7866C18.376 18.4722 18.708 18.1484 18.708 17.5591V16.8867C21.0156 16.729 23.3149 16.2808 25.7388 15.4175V21.4521C25.7388 23.1538 24.8921 23.9839 23.1738 23.9839H9.81787Z" fill="#007AFF"/>
</svg>
