<svg xmlns="http://www.w3.org/2000/svg" width="32" height="32" fill="none" viewBox="0 0 32 32"><path fill="#007AFF" d="M8.21387 24.8389C9.6001 26.2251 11.2188 26.2417 12.5801 24.8804C13.5845 23.876 14.6387 21.5103 15.4189 20.5806L17.187 22.3569C17.8345 23.0127 18.6147 23.0127 19.2456 22.3818L20.3164 21.3027C20.8228 20.7881 20.9224 20.207 20.6152 19.6592L24.1431 16.1313C25.0645 15.21 25.0479 14.106 24.1016 13.1597L17.5854 6.63525C16.7139 5.76367 15.2031 6.104 14.896 7.45703C14.2236 10.3872 14.1074 11.0596 13.2441 12.3711C12.7461 12.1553 12.2148 12.2798 11.75 12.7363L10.6792 13.8154C10.0483 14.4463 10.04 15.2183 10.6958 15.874L12.4722 17.6421C11.5508 18.4224 9.18506 19.4683 8.18066 20.4727C6.81934 21.834 6.82764 23.4609 8.21387 24.8389ZM18.8887 15.3428C19.312 15.7661 21.5781 14.5293 22.4912 13.5L23.0889 14.0977C23.4707 14.4795 23.4707 14.9443 23.1138 15.3013L19.7354 18.688L14.2817 13.2344C15.2612 11.7651 15.4355 10.7192 16.1328 8.146C16.2407 7.72266 16.5894 7.61475 16.8716 7.88867L20.7397 11.7485C20.5405 13.1265 19.8018 14.1392 18.9136 15.0273C18.8057 15.1353 18.814 15.2681 18.8887 15.3428ZM11.833 14.5542L12.5054 13.8984C12.7212 13.6826 12.9536 13.6743 13.1694 13.8901L19.1709 19.8833C19.3784 20.0991 19.3784 20.3315 19.1543 20.5557L18.5068 21.2114C18.291 21.4438 18.042 21.4521 17.8262 21.2197L15.8423 19.2275C15.5352 18.9204 15.1367 18.9536 14.7881 19.2939C14.1406 19.9331 13.0034 22.6641 11.6836 23.9756C10.8867 24.7808 9.92383 24.7808 9.09375 23.959C8.28027 23.1372 8.27197 22.166 9.07715 21.3691C10.397 20.0576 13.1279 18.9204 13.7671 18.2729C14.0991 17.916 14.1406 17.5176 13.8335 17.2188L11.833 15.2266C11.6172 15.0107 11.6172 14.77 11.833 14.5542ZM10.3638 23.7349C10.9282 23.7349 11.3848 23.27 11.3848 22.7056C11.3848 22.1411 10.9282 21.6846 10.3638 21.6846C9.79932 21.6846 9.33447 22.1411 9.33447 22.7056C9.33447 23.27 9.79932 23.7349 10.3638 23.7349Z"/></svg>