<svg xmlns="http://www.w3.org/2000/svg" width="32" height="32" fill="none" viewBox="0 0 32 32"><path fill="#007AFF" d="M8.91309 23.6602H24.0869C25.8135 23.6602 26.6934 22.7969 26.6934 21.0869V12.396C26.6934 10.686 25.8135 9.83105 24.0869 9.83105H21.7129C21.0571 9.83105 20.8579 9.69824 20.4844 9.2832L19.8203 8.53613C19.4053 8.07959 18.9819 7.83057 18.127 7.83057H14.8149C13.96 7.83057 13.5366 8.07959 13.1216 8.53613L12.4575 9.2832C12.084 9.68994 11.8765 9.83105 11.229 9.83105H8.91309C7.17822 9.83105 6.30664 10.686 6.30664 12.396V21.0869C6.30664 22.7969 7.17822 23.6602 8.91309 23.6602ZM16.5 21.2114C13.9849 21.2114 11.9678 19.2026 11.9678 16.6709C11.9678 14.1475 13.9849 12.1387 16.5 12.1387C19.0151 12.1387 21.0239 14.1475 21.0239 16.6709C21.0239 19.2026 19.0068 21.2114 16.5 21.2114ZM21.5801 13.6162C21.5801 13.0518 22.0781 12.5537 22.6592 12.5537C23.2319 12.5537 23.7217 13.0518 23.7217 13.6162C23.7217 14.2056 23.2319 14.6787 22.6592 14.687C22.0781 14.687 21.5801 14.2139 21.5801 13.6162ZM16.5 19.9497C18.3096 19.9497 19.7705 18.4971 19.7705 16.6709C19.7705 14.853 18.3096 13.3921 16.5 13.3921C14.6904 13.3921 13.2212 14.853 13.2212 16.6709C13.2212 18.4971 14.6987 19.9497 16.5 19.9497Z"/></svg>