<svg xmlns="http://www.w3.org/2000/svg" width="32" height="32" fill="none" viewBox="0 0 32 32"><path fill="#007AFF" d="M7.28418 24.0171H8.25537C8.87793 24.0171 9.35938 23.5439 9.35938 22.9297V21.5352C11.2021 21.6514 13.8667 21.7344 16 21.7344C18.1333 21.7344 20.8062 21.6514 22.6489 21.5352V22.9297C22.6489 23.5439 23.1221 24.0171 23.7446 24.0171H24.7241C25.3467 24.0171 25.8198 23.5439 25.8198 22.9297V18.1401C25.8198 16.7456 25.5376 15.957 24.7739 14.9609L24.0684 14.0562C23.7695 12.562 23.2134 10.9932 22.9312 10.3789C22.4829 9.44092 21.6279 8.88477 20.5239 8.73535C19.9678 8.66895 18.1499 8.61914 16 8.61914C13.8584 8.61914 12.0405 8.67725 11.4844 8.73535C10.3804 8.86816 9.51709 9.44092 9.07715 10.3789C8.78662 10.9932 8.23877 12.562 7.93164 14.0562L7.23438 14.9609C6.4624 15.957 6.18018 16.7456 6.18018 18.1401V22.9297C6.18018 23.5439 6.66162 24.0171 7.28418 24.0171ZM9.6084 13.3672C9.79932 12.4541 10.2061 11.2671 10.48 10.7856C10.7041 10.3955 10.9448 10.2295 11.3931 10.1714C12.0239 10.0801 13.4351 10.0303 16 10.0303C18.5732 10.0303 19.9844 10.0635 20.6069 10.1714C21.0552 10.2378 21.2876 10.3955 21.52 10.7856C21.8022 11.2588 22.1841 12.4541 22.3999 13.3672C22.4746 13.6743 22.3418 13.7905 22.0264 13.7656C20.6484 13.6826 19.0049 13.5913 16 13.5913C13.0034 13.5913 11.3599 13.6826 9.98193 13.7656C9.6582 13.7905 9.53369 13.6743 9.6084 13.3672ZM10.0151 19.4932C9.25977 19.4932 8.67871 18.9204 8.67871 18.1567C8.67871 17.4014 9.25977 16.8286 10.0151 16.8286C10.7705 16.8286 11.3516 17.4014 11.3516 18.1567C11.3516 18.9204 10.7705 19.4932 10.0151 19.4932ZM21.9849 19.4932C21.2295 19.4932 20.6567 18.9204 20.6567 18.1567C20.6567 17.4014 21.2295 16.8286 21.9849 16.8286C22.7485 16.8286 23.3213 17.4014 23.3213 18.1567C23.3213 18.9204 22.7485 19.4932 21.9849 19.4932ZM13.8086 19.1694C13.2358 19.1694 12.8457 18.771 12.8457 18.2065C12.8457 17.6421 13.2358 17.2437 13.8086 17.2437H18.1997C18.7642 17.2437 19.1543 17.6421 19.1543 18.2065C19.1543 18.771 18.7642 19.1694 18.1997 19.1694H13.8086Z"/></svg>