<svg xmlns="http://www.w3.org/2000/svg" width="32" height="32" fill="none" viewBox="0 0 32 32"><path fill="#007AFF" d="M14.7568 23.3364C15.1138 23.3364 15.396 23.1787 15.5952 22.8716L23.4395 10.52C23.5889 10.2793 23.647 10.0967 23.647 9.90576C23.647 9.44922 23.3481 9.15039 22.8916 9.15039C22.5596 9.15039 22.377 9.2583 22.1777 9.57373L14.7236 21.4521L10.8555 16.3887C10.6479 16.0981 10.4404 15.9819 10.1416 15.9819C9.66846 15.9819 9.34473 16.3057 9.34473 16.7622C9.34473 16.9531 9.42773 17.1689 9.58545 17.3682L13.8936 22.855C14.1426 23.1787 14.3999 23.3364 14.7568 23.3364Z"/></svg>