<svg width="32" height="32" viewBox="0 0 32 32" fill="none" xmlns="http://www.w3.org/2000/svg">
<path d="M16 24.4736C20.6318 24.4736 24.4668 20.6304 24.4668 16.0068C24.4668 11.375 20.6235 7.54004 15.9917 7.54004C11.3682 7.54004 7.5332 11.375 7.5332 16.0068C7.5332 20.6304 11.3765 24.4736 16 24.4736ZM16 23.0625C12.082 23.0625 8.95264 19.9248 8.95264 16.0068C8.95264 12.0889 12.0737 8.95117 15.9917 8.95117C19.9097 8.95117 23.0474 12.0889 23.0557 16.0068C23.064 19.9248 19.918 23.0625 16 23.0625ZM15.0869 19.9497C15.3608 19.9497 15.5933 19.8169 15.7593 19.5596L19.5527 13.5913C19.644 13.4336 19.752 13.2427 19.752 13.0601C19.752 12.6948 19.4199 12.4541 19.0713 12.4541C18.8638 12.4541 18.6562 12.5786 18.4985 12.8276L15.0537 18.3477L13.4185 16.2393C13.2192 15.9736 13.0366 15.8989 12.8042 15.8989C12.4473 15.8989 12.165 16.1895 12.165 16.563C12.165 16.7373 12.2397 16.9199 12.356 17.0776L14.3813 19.5596C14.5889 19.8335 14.813 19.9497 15.0869 19.9497Z" fill="#007AFF"/>
</svg>
