<svg xmlns="http://www.w3.org/2000/svg" width="32" height="32" fill="none" viewBox="0 0 32 32"><path fill="#007AFF" d="M9.51074 19.439L15.9355 12.8647C16.085 12.707 16.2842 12.6157 16.5 12.6157C16.7075 12.6157 16.915 12.707 17.0562 12.8647L23.481 19.439C23.6221 19.5718 23.7051 19.7627 23.7051 19.9785C23.7051 20.4102 23.3813 20.7339 22.9497 20.7339C22.7422 20.7339 22.543 20.6592 22.4102 20.5181L16.5 14.4751L10.5815 20.5181C10.457 20.6592 10.2578 20.7339 10.042 20.7339C9.61035 20.7339 9.28662 20.4102 9.28662 19.9785C9.28662 19.7627 9.36963 19.5718 9.51074 19.439Z"/></svg>