<svg xmlns="http://www.w3.org/2000/svg" width="32" height="32" fill="none" viewBox="0 0 32 32"><path fill="#007AFF" d="M16.5 21.4312C16.7075 21.4312 16.915 21.3481 17.0562 21.1904L23.481 14.6079C23.6221 14.4668 23.7051 14.2842 23.7051 14.0767C23.7051 13.645 23.3813 13.313 22.9497 13.313C22.7422 13.313 22.5513 13.396 22.4102 13.5288L16.5 19.5718L10.5815 13.5288C10.4487 13.396 10.2578 13.313 10.042 13.313C9.61035 13.313 9.28662 13.645 9.28662 14.0767C9.28662 14.2842 9.36963 14.4668 9.51074 14.6162L15.9355 21.1904C16.0933 21.3481 16.2842 21.4312 16.5 21.4312Z"/></svg>