<svg xmlns="http://www.w3.org/2000/svg" width="32" height="32" fill="none" viewBox="0 0 32 32"><path fill="#007AFF" d="M16 8.58594C15.8091 8.58594 15.6348 8.66064 15.4355 8.82666L9.84082 13.3672C9.69971 13.4917 9.6167 13.666 9.6167 13.915C9.6167 14.3467 9.94043 14.6704 10.3721 14.6704C10.5547 14.6704 10.729 14.604 10.9282 14.4546L16 10.3208L21.0718 14.4546C21.2627 14.604 21.4453 14.6704 21.6196 14.6704C22.0596 14.6704 22.3833 14.3467 22.3833 13.915C22.3833 13.666 22.3003 13.4917 22.1592 13.3672L16.5645 8.81836C16.3652 8.66064 16.1826 8.58594 16 8.58594ZM16 23.2783C16.1826 23.2783 16.3652 23.2036 16.5645 23.0459L22.1592 18.4971C22.3003 18.3726 22.3833 18.1982 22.3833 17.9492C22.3833 17.5176 22.0596 17.1855 21.6196 17.1855C21.4453 17.1855 21.2627 17.2603 21.0718 17.4097L16 21.5435L10.9282 17.4097C10.729 17.2603 10.5547 17.1855 10.3721 17.1855C9.94043 17.1855 9.6167 17.5176 9.6167 17.9492C9.6167 18.1982 9.69971 18.3726 9.84082 18.4971L15.4355 23.0376C15.6348 23.2036 15.8091 23.2783 16 23.2783Z"/></svg>