<svg xmlns="http://www.w3.org/2000/svg" width="32" height="32" fill="none" viewBox="0 0 32 32"><path fill="#007AFF" d="M16 24.4736C20.6318 24.4736 24.4668 20.6304 24.4668 16.0068C24.4668 11.375 20.6235 7.54004 15.9917 7.54004C11.3682 7.54004 7.5332 11.375 7.5332 16.0068C7.5332 20.6304 11.3765 24.4736 16 24.4736ZM16 23.0625C12.082 23.0625 8.95264 19.9248 8.95264 16.0068C8.95264 12.0889 12.0737 8.95117 15.9917 8.95117C19.9097 8.95117 23.0474 12.0889 23.0557 16.0068C23.064 19.9248 19.918 23.0625 16 23.0625ZM11.6587 16.9033H15.9917C16.3154 16.9033 16.5728 16.6543 16.5728 16.3223V10.7275C16.5728 10.4038 16.3154 10.1548 15.9917 10.1548C15.668 10.1548 15.4189 10.4038 15.4189 10.7275V15.7495H11.6587C11.3267 15.7495 11.0776 15.9985 11.0776 16.3223C11.0776 16.6543 11.3267 16.9033 11.6587 16.9033Z"/></svg>