<svg xmlns="http://www.w3.org/2000/svg" width="32" height="32" fill="none" viewBox="0 0 32 32"><path fill="#007AFF" d="M12.7876 14.0728V17.9492H11.1191C9.48389 17.9492 8.15576 19.2358 8.15576 20.8794C8.15576 22.5229 9.48389 23.8511 11.1191 23.8511C12.7544 23.8511 14.0825 22.5229 14.0825 20.8794V19.2192H17.9092V20.8794C17.9092 22.5229 19.2373 23.8511 20.8726 23.8511C22.5078 23.8511 23.8359 22.5229 23.8359 20.8794C23.8359 19.2358 22.5078 17.9492 20.8726 17.9492H19.2041V14.0728H20.8726C22.5078 14.0728 23.8359 12.7861 23.8359 11.1426C23.8359 9.49902 22.5078 8.1626 20.8726 8.1626C19.2373 8.1626 17.9092 9.49902 17.9092 11.1426V12.8027H14.0825V11.1426C14.0825 9.49902 12.7544 8.1626 11.1191 8.1626C9.48389 8.1626 8.15576 9.49902 8.15576 11.1426C8.15576 12.7861 9.48389 14.0728 11.1191 14.0728H12.7876ZM11.1191 12.8193C10.2061 12.8193 9.45068 12.064 9.45068 11.1426C9.45068 10.2212 10.2061 9.45752 11.1191 9.45752C12.0322 9.45752 12.7876 10.2212 12.7876 11.1426V12.8193H11.1191ZM20.8726 12.8193H19.2041V11.1426C19.2041 10.2212 19.9595 9.45752 20.8726 9.45752C21.7856 9.45752 22.541 10.2212 22.541 11.1426C22.541 12.064 21.7856 12.8193 20.8726 12.8193ZM14.0825 17.9658V14.0562H17.9092V17.9658H14.0825ZM11.1191 19.1943H12.7876V20.8711C12.7876 21.7925 12.0322 22.5479 11.1191 22.5479C10.2061 22.5479 9.45068 21.7925 9.45068 20.8711C9.45068 19.9497 10.2061 19.1943 11.1191 19.1943ZM20.8726 19.1943C21.7856 19.1943 22.541 19.9497 22.541 20.8711C22.541 21.7925 21.7856 22.5479 20.8726 22.5479C19.9595 22.5479 19.2041 21.7925 19.2041 20.8711V19.1943H20.8726Z"/></svg>