<svg width="32" height="32" viewBox="0 0 32 32" fill="none" xmlns="http://www.w3.org/2000/svg">
<path d="M11.6338 23.6602H20.3496C21.9849 23.6602 22.7153 22.8965 22.9561 21.2695L24.1846 12.9438H24.3755C25.3965 12.9438 25.9526 12.3047 25.9526 11.292V10.0303C25.9526 9.01758 25.3965 8.37842 24.3755 8.37842H7.61621C6.64502 8.37842 6.03906 9.01758 6.03906 10.0303V11.292C6.03906 12.3047 6.59521 12.9438 7.61621 12.9438H7.79883L9.03564 21.2695C9.27637 22.9048 10.0068 23.6602 11.6338 23.6602ZM7.95654 11.6904C7.5415 11.6904 7.37549 11.5161 7.37549 11.1011V10.2212C7.37549 9.80615 7.5415 9.63184 7.95654 9.63184H24.0435C24.4585 9.63184 24.6162 9.80615 24.6162 10.2212V11.1011C24.6162 11.5161 24.4585 11.6904 24.0435 11.6904H7.95654ZM11.6587 22.4067C10.9116 22.4067 10.48 22.0747 10.3638 21.2529L9.12695 12.9438H22.8647L21.6279 21.2529C21.5034 22.0747 21.0635 22.4067 20.333 22.4067H11.6587ZM13.5845 20.6719C13.7588 20.6719 13.9082 20.5889 14.0244 20.4727L15.9834 18.5054L17.959 20.4727C18.0752 20.5806 18.2163 20.6719 18.4072 20.6719C18.7559 20.6719 19.0381 20.373 19.0381 20.0244C19.0381 19.8335 18.9634 19.7007 18.8389 19.5762L16.8882 17.6172L18.8472 15.6333C18.98 15.5005 19.0464 15.376 19.0464 15.2017C19.0464 14.8447 18.7642 14.5625 18.4072 14.5625C18.2412 14.5625 18.1084 14.6289 17.9756 14.7617L15.9834 16.729L14.0161 14.77C13.8916 14.6455 13.7588 14.5791 13.5845 14.5791C13.2275 14.5791 12.9453 14.853 12.9453 15.2017C12.9453 15.3843 13.02 15.5254 13.1362 15.6416L15.0952 17.6172L13.1362 19.5845C13.02 19.7007 12.9453 19.8418 12.9453 20.0244C12.9453 20.373 13.2275 20.6719 13.5845 20.6719Z" fill="#007AFF"/>
</svg>
