<svg width="32" height="32" viewBox="0 0 32 32" fill="none" xmlns="http://www.w3.org/2000/svg">
<path d="M8.81982 23.6602H23.1802C24.9233 23.6602 25.7866 22.7969 25.7866 21.0869V10.9517C25.7866 9.2417 24.9233 8.37842 23.1802 8.37842H8.81982C7.08496 8.37842 6.21338 9.2334 6.21338 10.9517V21.0869C6.21338 22.8052 7.08496 23.6602 8.81982 23.6602ZM7.5498 11.0181C7.5498 10.1548 8.00635 9.71484 8.83643 9.71484H23.1636C23.9854 9.71484 24.4502 10.1548 24.4502 11.0181V11.1675H7.5498V11.0181ZM8.83643 22.3237C8.00635 22.3237 7.5498 21.8838 7.5498 21.0205V12.3379H24.4502V21.0205C24.4502 21.8838 23.9854 22.3237 23.1636 22.3237H8.83643ZM9.78271 20.2817C9.78271 20.7134 10.0815 20.9956 10.5215 20.9956H21.5034C21.9434 20.9956 22.2422 20.7134 22.2422 20.2817V19.0366C22.2422 18.5967 21.9434 18.3145 21.5034 18.3145H10.5215C10.0815 18.3145 9.78271 18.5967 9.78271 19.0366V20.2817Z" fill="#007AFF"/>
</svg>
