<svg xmlns="http://www.w3.org/2000/svg" width="32" height="32" fill="none" viewBox="0 0 32 32"><path fill="#007AFF" d="M16 24.4736C20.6318 24.4736 24.4668 20.6304 24.4668 16.0068C24.4668 11.375 20.6235 7.54004 15.9917 7.54004C11.3682 7.54004 7.5332 11.375 7.5332 16.0068C7.5332 20.6304 11.3765 24.4736 16 24.4736ZM16 23.0625C12.082 23.0625 8.95264 19.9248 8.95264 16.0068C8.95264 12.0889 12.0737 8.95117 15.9917 8.95117C19.9097 8.95117 23.0474 12.0889 23.0557 16.0068C23.064 19.9248 19.918 23.0625 16 23.0625ZM16 11.7817C15.6431 11.7817 15.3774 12.0391 15.3774 12.4043V16.5547L15.4438 18.3062L14.6138 17.3101L13.626 16.314C13.5098 16.2061 13.3604 16.1313 13.186 16.1313C12.8457 16.1313 12.5884 16.397 12.5884 16.729C12.5884 16.9033 12.6382 17.0527 12.7461 17.1606L15.5186 19.9248C15.6846 20.0908 15.8257 20.1572 16 20.1572C16.1826 20.1572 16.332 20.0825 16.4897 19.9248L19.2539 17.1606C19.3618 17.0527 19.4282 16.9033 19.4282 16.729C19.4282 16.397 19.1626 16.1313 18.8223 16.1313C18.6396 16.1313 18.4902 16.1978 18.3823 16.314L17.4028 17.3101L16.5562 18.3145L16.6226 16.5547V12.4043C16.6226 12.0391 16.3652 11.7817 16 11.7817Z"/></svg>