<svg width="32" height="32" viewBox="0 0 32 32" fill="none" xmlns="http://www.w3.org/2000/svg">
<path d="M24.2593 9.2002L24.8569 8.58594C25.1392 8.28711 25.1392 7.88867 24.8569 7.61475L24.666 7.41553C24.4087 7.1582 24.002 7.19141 23.728 7.45703L23.1221 8.05469L24.2593 9.2002ZM14.2734 18.2563L15.8921 17.5508L23.645 9.80615L22.5078 8.68555L14.7632 16.4302L14.0161 17.9907C13.9497 18.1318 14.1157 18.3228 14.2734 18.2563ZM11.252 23.6353H20.9971C22.4912 23.6353 23.3545 22.772 23.3545 21.062V12.1885L22.0181 13.5249V20.9956C22.0181 21.8589 21.5532 22.2988 20.9805 22.2988H11.2769C10.4468 22.2988 9.98193 21.8589 9.98193 20.9956V11.5742C9.98193 10.7109 10.4468 10.2627 11.2769 10.2627H18.8389L20.1753 8.92627H11.252C9.52539 8.92627 8.64551 9.78955 8.64551 11.4995V21.062C8.64551 22.7803 9.52539 23.6353 11.252 23.6353Z" fill="#007AFF"/>
</svg>
