<svg xmlns="http://www.w3.org/2000/svg" width="32" height="32" fill="none" viewBox="0 0 32 32"><path fill="#007AFF" d="M9.44238 23.1704H22.8066C24.3008 23.1704 25.1641 22.3071 25.1641 20.5972V11.4331C25.1641 9.73145 24.2925 8.86816 22.5576 8.86816H9.19336C7.69922 8.86816 6.83594 9.72314 6.83594 11.4331V20.5972C6.83594 22.3154 7.70752 23.1704 9.44238 23.1704ZM15.0122 16.4385L8.74512 10.2544C8.92773 10.1797 9.14355 10.1382 9.39258 10.1382H22.6074C22.8647 10.1382 23.0889 10.1797 23.2715 10.2627L17.021 16.4385C16.6641 16.7954 16.3403 16.9531 16.0166 16.9531C15.6846 16.9531 15.3608 16.7871 15.0122 16.4385ZM8.10596 20.5972V11.4331C8.10596 11.3667 8.10596 11.3999 8.10596 11.3418L12.8789 16.0317L8.11426 20.7383C8.10596 20.6968 8.10596 20.647 8.10596 20.5972ZM23.894 11.4414V20.6055C23.894 20.6387 23.894 20.6802 23.894 20.7134L19.1543 16.0317L23.894 11.3667C23.894 11.4414 23.894 11.4414 23.894 11.4414ZM9.39258 21.9004C9.16016 21.9004 8.96094 21.8672 8.78662 21.7925L13.7505 16.8867L14.29 17.418C14.8711 17.9907 15.4272 18.2314 16.0166 18.2314C16.5977 18.2314 17.1621 17.9907 17.7432 17.418L18.2827 16.8867L23.2383 21.7842C23.0557 21.8672 22.8481 21.9004 22.6074 21.9004H9.39258Z"/></svg>