<svg width="32" height="32" viewBox="0 0 32 32" fill="none" xmlns="http://www.w3.org/2000/svg">
<path d="M11.5923 24.9053H20.4077C22.126 24.9053 22.981 24.0337 22.981 22.3071V14.77C22.981 13.6992 22.8564 13.2344 22.1924 12.5537L17.6187 7.89697C16.9878 7.24951 16.4648 7.1084 15.5352 7.1084H11.5923C9.88232 7.1084 9.01904 7.98828 9.01904 9.71484V22.3071C9.01904 24.042 9.87402 24.9053 11.5923 24.9053ZM11.6504 23.5688C10.7954 23.5688 10.3555 23.1123 10.3555 22.2822V9.73975C10.3555 8.91797 10.7954 8.44482 11.6587 8.44482H15.3525V13.2676C15.3525 14.3135 15.8755 14.8281 16.9131 14.8281H21.6445V22.2822C21.6445 23.1123 21.2046 23.5688 20.3413 23.5688H11.6504ZM17.0625 13.5747C16.7305 13.5747 16.606 13.4419 16.606 13.1099V8.70215L21.3872 13.5747H17.0625Z" fill="#007AFF"/>
</svg>
