<svg xmlns="http://www.w3.org/2000/svg" width="32" height="32" fill="none" viewBox="0 0 32 32"><path fill="#007AFF" d="M16 24.4736C20.6318 24.4736 24.4668 20.6304 24.4668 16.0068C24.4668 11.375 20.6235 7.54004 15.9917 7.54004C11.3682 7.54004 7.5332 11.375 7.5332 16.0068C7.5332 20.6304 11.3765 24.4736 16 24.4736ZM16 23.0625C12.082 23.0625 8.95264 19.9248 8.95264 16.0068C8.95264 12.0889 12.0737 8.95117 15.9917 8.95117C19.9097 8.95117 23.0474 12.0889 23.0557 16.0068C23.064 19.9248 19.918 23.0625 16 23.0625ZM11.4844 14.3716H20.5322C20.8975 14.3716 21.1631 14.1392 21.1631 13.7905C21.1631 13.4336 20.8975 13.2012 20.5322 13.2012H11.4844C11.1108 13.2012 10.8535 13.4336 10.8535 13.7905C10.8535 14.1392 11.1108 14.3716 11.4844 14.3716ZM12.7129 17.1191H19.3037C19.6689 17.1191 19.9263 16.8867 19.9263 16.5381C19.9263 16.1895 19.6689 15.9487 19.3037 15.9487H12.7129C12.3394 15.9487 12.082 16.1895 12.082 16.5381C12.082 16.8867 12.3394 17.1191 12.7129 17.1191ZM13.9912 19.875H18.0171C18.3823 19.875 18.6479 19.6426 18.6479 19.2939C18.6479 18.937 18.3823 18.7046 18.0171 18.7046H13.9912C13.626 18.7046 13.3687 18.937 13.3687 19.2939C13.3687 19.6426 13.626 19.875 13.9912 19.875Z"/></svg>