<svg xmlns="http://www.w3.org/2000/svg" width="32" height="32" fill="none" viewBox="0 0 32 32"><path fill="#007AFF" d="M9.68311 24.1582C10.0317 24.1582 10.314 23.8843 10.314 23.5356V18.9204C10.5215 18.8291 11.3018 18.5303 12.522 18.5303C15.5933 18.5303 17.519 20.0327 20.4409 20.0327C21.7358 20.0327 22.2173 19.8916 22.8481 19.6094C23.4209 19.3521 23.7944 18.9204 23.7944 18.1567V9.73145C23.7944 9.2832 23.4126 9.02588 22.9312 9.02588C22.5244 9.02588 21.7607 9.37451 20.333 9.37451C17.4111 9.37451 15.4937 7.87207 12.4141 7.87207C11.1191 7.87207 10.6294 8.01318 9.99854 8.29541C9.42578 8.55273 9.05225 8.98438 9.05225 9.73975V23.5356C9.05225 23.876 9.34277 24.1582 9.68311 24.1582Z"/></svg>