<svg width="32" height="32" viewBox="0 0 32 32" fill="none" xmlns="http://www.w3.org/2000/svg">
<path d="M9.68311 24.1582C10.0317 24.1582 10.314 23.8843 10.314 23.5356V18.9204C10.5215 18.8291 11.3018 18.5303 12.522 18.5303C15.5933 18.5303 17.519 20.0327 20.4409 20.0327C21.7358 20.0327 22.2173 19.8916 22.8481 19.6094C23.4209 19.3521 23.7944 18.9204 23.7944 18.1567V9.73145C23.7944 9.2832 23.4126 9.02588 22.9312 9.02588C22.5244 9.02588 21.7607 9.37451 20.333 9.37451C17.4111 9.37451 15.4937 7.87207 12.4141 7.87207C11.1191 7.87207 10.6294 8.01318 9.99854 8.29541C9.42578 8.55273 9.05225 8.98438 9.05225 9.73975V23.5356C9.05225 23.876 9.34277 24.1582 9.68311 24.1582ZM20.4409 18.7793C17.6768 18.7793 15.7178 17.2769 12.522 17.2769C11.6089 17.2769 10.7788 17.3848 10.314 17.5757V9.78125C10.4302 9.50732 11.1191 9.12549 12.4141 9.12549C15.3359 9.12549 17.2866 10.6279 20.333 10.6279C21.2378 10.6279 21.9849 10.52 22.541 10.3623V18.1235C22.4248 18.3975 21.7358 18.7793 20.4409 18.7793Z" fill="#007AFF"/>
</svg>
