<svg width="32" height="32" viewBox="0 0 32 32" fill="none" xmlns="http://www.w3.org/2000/svg">
<path d="M9.67676 23.5522H23.564C25.0498 23.5522 25.9214 22.689 25.9214 20.979V12.4541C25.9214 10.7441 25.0415 9.88086 23.3149 9.88086H15.3462C14.7817 9.88086 14.4414 9.74805 14.0264 9.39111L13.52 8.97607C12.9722 8.51123 12.5488 8.36182 11.7271 8.36182H9.36133C7.90869 8.36182 7.07031 9.19189 7.07031 10.8604V20.979C7.07031 22.6973 7.94189 23.5522 9.67676 23.5522ZM8.40674 10.9351C8.40674 10.1133 8.83838 9.68994 9.63525 9.68994H11.3867C11.9346 9.68994 12.2666 9.83105 12.6899 10.188L13.1963 10.6113C13.7358 11.0596 14.1758 11.2173 14.9976 11.2173H23.29C24.1118 11.2173 24.585 11.6655 24.585 12.5288V13.002H8.40674V10.9351ZM9.69336 22.2158C8.86328 22.2158 8.40674 21.7759 8.40674 20.9126V14.2554H24.585V20.9209C24.585 21.7759 24.1118 22.2158 23.29 22.2158H9.69336Z" fill="#007AFF"/>
</svg>
