<svg width="32" height="32" viewBox="0 0 32 32" fill="none" xmlns="http://www.w3.org/2000/svg">
<path d="M6.71973 22.5396C7.06006 22.5396 7.34229 22.4316 7.67432 22.2324L16.1328 17.252C16.5894 16.9863 16.8384 16.6875 16.9297 16.3389V21.1201C16.9297 22.0415 17.4775 22.5396 18.125 22.5396C18.4653 22.5396 18.7476 22.4316 19.0796 22.2324L27.5464 17.252C28.1274 16.9033 28.3848 16.4966 28.3848 16.0151C28.3848 15.542 28.1274 15.1353 27.5464 14.7866L19.0796 9.80615C18.7476 9.60693 18.4653 9.49902 18.125 9.49902C17.4775 9.49902 16.9297 9.99707 16.9297 10.9185V15.6997C16.8384 15.3511 16.5894 15.0522 16.1328 14.7866L7.67432 9.80615C7.33398 9.60693 7.06006 9.49902 6.71973 9.49902C6.07227 9.49902 5.52441 9.99707 5.52441 10.9185V21.1201C5.52441 22.0415 6.07227 22.5396 6.71973 22.5396Z" fill="#007AFF"/>
</svg>
