<svg xmlns="http://www.w3.org/2000/svg" width="32" height="32" fill="none" viewBox="0 0 32 32"><path fill="#007AFF" d="M15.1616 24.8804H16.8384C17.4775 24.8804 17.9673 24.4902 18.1167 23.876L18.4736 22.3237L18.7393 22.2324L20.0923 23.0625C20.6318 23.4028 21.2544 23.3198 21.7109 22.8633L22.873 21.7095C23.3296 21.2529 23.4126 20.6221 23.0723 20.0908L22.2256 18.7461L22.3252 18.4971L23.8774 18.1318C24.4834 17.9824 24.8818 17.4844 24.8818 16.8535V15.21C24.8818 14.5791 24.4917 14.0811 23.8774 13.9316L22.3418 13.5581L22.2339 13.2925L23.0806 11.9478C23.4209 11.4165 23.3379 10.7939 22.8813 10.3291L21.7192 9.16699C21.271 8.71875 20.6484 8.63574 20.1089 8.96777L18.7559 9.79785L18.4736 9.68994L18.1167 8.1377C17.9673 7.52344 17.4775 7.1333 16.8384 7.1333H15.1616C14.5225 7.1333 14.0327 7.52344 13.8833 8.1377L13.5181 9.68994L13.2358 9.79785L11.8911 8.96777C11.3516 8.63574 10.7207 8.71875 10.2725 9.16699L9.11865 10.3291C8.66211 10.7939 8.5708 11.4165 8.91943 11.9478L9.75781 13.2925L9.6582 13.5581L8.12256 13.9316C7.5083 14.0811 7.11816 14.5791 7.11816 15.21V16.8535C7.11816 17.4844 7.5166 17.9824 8.12256 18.1318L9.6748 18.4971L9.76611 18.7461L8.92773 20.0908C8.5791 20.6221 8.67041 21.2529 9.12695 21.7095L10.2808 22.8633C10.7373 23.3198 11.3682 23.4028 11.9077 23.0625L13.2524 22.2324L13.5181 22.3237L13.8833 23.876C14.0327 24.4902 14.5225 24.8804 15.1616 24.8804ZM15.2944 23.5854C15.1533 23.5854 15.0786 23.5273 15.0537 23.3945L14.5557 21.3359C14.0493 21.2114 13.5762 21.0122 13.2192 20.7881L11.4097 21.9004C11.3101 21.9751 11.2021 21.9585 11.1025 21.8589L10.123 20.8794C10.0317 20.7881 10.0234 20.6885 10.0898 20.5723L11.2021 18.7793C11.0112 18.4307 10.7954 17.9575 10.6626 17.4512L8.604 16.9614C8.47119 16.9365 8.41309 16.8618 8.41309 16.7207V15.3345C8.41309 15.1851 8.46289 15.1187 8.604 15.0938L10.6543 14.5957C10.7871 14.0562 11.0361 13.5664 11.1855 13.2593L10.0815 11.4663C10.0068 11.3418 10.0151 11.2422 10.1064 11.1426L11.0942 10.1797C11.1938 10.0801 11.2852 10.0635 11.4097 10.1382L13.2026 11.2256C13.5596 11.0264 14.0659 10.8188 14.564 10.6777L15.0537 8.61914C15.0786 8.48633 15.1533 8.42822 15.2944 8.42822H16.7056C16.8467 8.42822 16.9214 8.48633 16.938 8.61914L17.4443 10.6943C17.959 10.8271 18.4072 11.0347 18.7808 11.2339L20.582 10.1382C20.7148 10.0635 20.7979 10.0801 20.9058 10.1797L21.8853 11.1426C21.9849 11.2422 21.9849 11.3418 21.9102 11.4663L20.8062 13.2593C20.9639 13.5664 21.2046 14.0562 21.3374 14.5957L23.396 15.0938C23.5288 15.1187 23.5869 15.1851 23.5869 15.3345V16.7207C23.5869 16.8618 23.5205 16.9365 23.396 16.9614L21.3291 17.4512C21.1963 17.9575 20.9888 18.4307 20.7896 18.7793L21.9019 20.5723C21.9683 20.6885 21.9683 20.7881 21.8687 20.8794L20.8975 21.8589C20.7896 21.9585 20.6899 21.9751 20.582 21.9004L18.7725 20.7881C18.4155 21.0122 17.9507 21.2114 17.4443 21.3359L16.938 23.3945C16.9214 23.5273 16.8467 23.5854 16.7056 23.5854H15.2944ZM16 19.1777C17.7349 19.1777 19.1626 17.75 19.1626 16.0068C19.1626 14.2803 17.7349 12.8525 16 12.8525C14.2651 12.8525 12.8291 14.2803 12.8291 16.0068C12.8291 17.7417 14.2568 19.1777 16 19.1777ZM16 17.8911C14.9707 17.8911 14.124 17.0444 14.124 16.0068C14.124 14.9858 14.9707 14.1392 16 14.1392C17.0127 14.1392 17.8594 14.9858 17.8594 16.0068C17.8594 17.0361 17.0127 17.8911 16 17.8911Z"/></svg>