<svg width="32" height="32" viewBox="0 0 32 32" fill="none" xmlns="http://www.w3.org/2000/svg">
<path d="M10.8223 21.9707C13.354 21.9707 15.396 19.9121 15.4375 17.4302C15.7944 17.2974 16.1763 17.2476 16.4917 17.2476C16.8071 17.2476 17.1973 17.2974 17.5542 17.4302C17.5874 19.937 19.6294 21.9707 22.1694 21.9707C24.5601 21.9707 26.5273 20.1528 26.7681 17.8369H27.7476C28.1294 17.8369 28.2788 17.6128 28.2788 17.3057V16.9902C28.2788 16.6748 28.1294 16.459 27.7476 16.459H26.7017C26.2866 14.3506 24.4106 12.7402 22.1694 12.7402C20.0029 12.7402 18.1934 14.2261 17.6953 16.2266C17.3052 16.0771 16.8569 16.0273 16.4917 16.0273C16.1265 16.0273 15.6782 16.0771 15.2964 16.2266C14.79 14.2261 12.9722 12.7402 10.8223 12.7402C8.57275 12.7402 6.70508 14.3506 6.28174 16.459H5.23584C4.8623 16.459 4.71289 16.6748 4.71289 16.9902V17.3057C4.71289 17.6128 4.8623 17.8369 5.23584 17.8369H6.22363C6.46436 20.1528 8.43164 21.9707 10.8223 21.9707ZM10.8223 20.7256C8.96289 20.7256 7.45215 19.2231 7.45215 17.3555C7.45215 15.4961 8.96289 13.9854 10.8223 13.9854C12.6733 13.9854 14.1924 15.4961 14.1924 17.3555C14.1924 19.2231 12.6982 20.7256 10.8223 20.7256ZM22.1694 20.7256C20.2935 20.7256 18.7993 19.2231 18.7993 17.3555C18.7993 15.4961 20.2935 13.9854 22.1694 13.9854C24.0288 13.9854 25.5396 15.4961 25.5396 17.3555C25.5396 19.2231 24.0288 20.7256 22.1694 20.7256Z" fill="#007AFF"/>
</svg>
