<svg width="32" height="32" viewBox="0 0 32 32" fill="none" xmlns="http://www.w3.org/2000/svg">
<path d="M6.32959 23.5854L7.77393 25.0381C8.50439 25.7769 9.34277 25.7271 10.1313 24.8555L18.7808 15.3262C19.0049 15.4009 19.2373 15.3843 19.5029 15.3345L20.4077 15.1685L20.9722 15.7412L20.939 16.2144C20.9058 16.6377 21.0137 16.9614 21.4287 17.3682L22.0762 17.999C22.4829 18.4058 23.0059 18.4307 23.4043 18.0322L25.8779 15.5503C26.2764 15.1519 26.2598 14.6455 25.853 14.2388L25.1973 13.5913C24.7905 13.1846 24.4751 13.0518 24.0684 13.085L23.5786 13.1265L23.0308 12.5869L23.2383 11.6323C23.3462 11.1509 23.2134 10.7773 22.7153 10.2793L20.8477 8.41992C18.0088 5.59766 14.2402 5.66406 11.7832 8.12109C11.4263 8.46973 11.4014 8.95947 11.6006 9.2915C11.7998 9.59863 12.1899 9.79785 12.7378 9.65674C13.9829 9.36621 15.2778 9.31641 16.4897 10.1133L15.9917 11.3501C15.8257 11.7568 15.8008 12.0972 15.9087 12.4043L6.50391 21.2363C5.66553 22.0166 5.59912 22.8467 6.32959 23.5854ZM13.0532 8.43652C15.1201 6.92578 17.9175 7.18311 19.8101 9.07568L21.877 11.126C22.0762 11.3252 22.1094 11.4829 22.0513 11.7734L21.7773 13.0352L23.0557 14.2969L23.894 14.2471C24.1099 14.2388 24.1763 14.2554 24.3423 14.4214L24.832 14.9111L22.7568 16.9863L22.2671 16.4966C22.1011 16.3306 22.0762 16.2642 22.0845 16.04L22.1426 15.21L20.8726 13.9482L19.5776 14.1641C19.3037 14.2222 19.1792 14.1973 18.9717 13.998L17.27 12.2964C17.0542 12.0972 17.0293 11.9561 17.1621 11.6406L17.9092 9.86426C16.5811 8.62744 14.8545 8.09619 13.1279 8.60254C12.9951 8.63574 12.9453 8.52783 13.0532 8.43652ZM8.39648 23.959L7.40039 22.9712C7.00195 22.5811 7.09326 22.2905 7.43359 21.9834L16.6226 13.334L17.8677 14.5957L9.37598 23.9341C9.07715 24.2744 8.79492 24.3574 8.39648 23.959Z" fill="#007AFF"/>
</svg>
