<svg width="32" height="32" viewBox="0 0 32 32" fill="none" xmlns="http://www.w3.org/2000/svg">
<path d="M8.25732 13.6577C8.25732 17.1938 11.2207 20.6719 15.9023 23.6602C16.0767 23.7681 16.3257 23.8843 16.5 23.8843C16.6743 23.8843 16.9233 23.7681 17.106 23.6602C21.7793 20.6719 24.7427 17.1938 24.7427 13.6577C24.7427 10.7192 22.7256 8.64404 20.0361 8.64404C18.5005 8.64404 17.2554 9.37451 16.5 10.4951C15.7612 9.38281 14.4995 8.64404 12.9639 8.64404C10.2744 8.64404 8.25732 10.7192 8.25732 13.6577ZM9.59375 13.6577C9.59375 11.4497 11.0215 9.98047 12.9473 9.98047C14.5078 9.98047 15.4043 10.9517 15.9355 11.7817C16.1597 12.1138 16.3008 12.2051 16.5 12.2051C16.6992 12.2051 16.8237 12.1055 17.0645 11.7817C17.6372 10.9683 18.5005 9.98047 20.0527 9.98047C21.9785 9.98047 23.4062 11.4497 23.4062 13.6577C23.4062 16.7456 20.144 20.0742 16.6743 22.3818C16.5913 22.4399 16.5332 22.4814 16.5 22.4814C16.4668 22.4814 16.4087 22.4399 16.334 22.3818C12.856 20.0742 9.59375 16.7456 9.59375 13.6577Z" fill="#007AFF"/>
</svg>
