<svg width="32" height="32" viewBox="0 0 32 32" fill="none" xmlns="http://www.w3.org/2000/svg">
<path d="M6.08887 15.542C6.08887 15.8823 6.35449 16.2061 6.80273 16.2061C7.03516 16.2061 7.22607 16.0815 7.40039 15.9404L15.7095 8.96777C15.8921 8.80176 16.1162 8.80176 16.2988 8.96777L24.6079 15.9404C24.7739 16.0815 24.9648 16.2061 25.1973 16.2061C25.5874 16.2061 25.9028 15.9653 25.9028 15.5669C25.9028 15.3179 25.8198 15.1519 25.6455 15.0024L23.3213 13.0435V9.72314C23.3213 9.35791 23.0889 9.12549 22.7236 9.12549H21.8354C21.4785 9.12549 21.2378 9.35791 21.2378 9.72314V11.292L17.0044 7.73926C16.3901 7.21631 15.6265 7.21631 15.0039 7.73926L6.35449 15.0024C6.17188 15.1519 6.08887 15.3511 6.08887 15.542ZM8.67871 22.9546C8.67871 24.1001 9.37598 24.7808 10.5464 24.7808H21.4619C22.6323 24.7808 23.3213 24.1001 23.3213 22.9546V16.3721L16.498 10.6528C16.1826 10.3872 15.8091 10.3955 15.502 10.6528L8.67871 16.3721V22.9546ZM18.1416 23.4443H13.8584V17.9575C13.8584 17.5757 14.1157 17.3267 14.4976 17.3267H17.5107C17.8926 17.3267 18.1416 17.5757 18.1416 17.9575V23.4443Z" fill="#007AFF"/>
</svg>
