<svg width="32" height="32" viewBox="0 0 32 32" fill="none" xmlns="http://www.w3.org/2000/svg">
<path d="M7.84863 20.8711H9.43408V22.1411C9.43408 23.8511 10.2974 24.7144 12.0405 24.7144H24.1514C25.8779 24.7144 26.7495 23.8511 26.7495 22.1411V13.7407C26.7495 12.0308 25.8779 11.1675 24.1514 11.1675H22.5576V9.89746C22.5576 8.1875 21.686 7.32422 19.9595 7.32422H7.84863C6.10547 7.32422 5.24219 8.1875 5.24219 9.89746V18.2979C5.24219 20.0078 6.10547 20.8711 7.84863 20.8711ZM7.86523 19.5347C7.03516 19.5347 6.57861 19.0864 6.57861 18.2231V9.97217C6.57861 9.10889 7.03516 8.66064 7.86523 8.66064H19.9346C20.7563 8.66064 21.2212 9.10889 21.2212 9.97217V11.1675H12.0405C10.2974 11.1675 9.43408 12.0225 9.43408 13.7407V19.5347H7.86523ZM10.7705 13.8154C10.7705 12.9521 11.2271 12.5039 12.0571 12.5039H24.1265C24.9482 12.5039 25.4131 12.9521 25.4131 13.8154V20.4229L22.4082 17.5757C22.0513 17.2437 21.6113 17.0776 21.1714 17.0776C20.7231 17.0776 20.3164 17.2354 19.9429 17.5674L16.2573 20.8379L14.7798 19.5098C14.4395 19.2026 14.0659 19.0366 13.6758 19.0366C13.3105 19.0366 12.9702 19.1943 12.6216 19.5015L10.7705 21.1035V13.8154ZM14.9209 17.7832C15.9751 17.7832 16.8467 16.9116 16.8467 15.8408C16.8467 14.7866 15.9751 13.9067 14.9209 13.9067C13.8501 13.9067 12.9785 14.7866 12.9785 15.8408C12.9785 16.9116 13.8501 17.7832 14.9209 17.7832Z" fill="#007AFF"/>
</svg>
