<svg xmlns="http://www.w3.org/2000/svg" width="32" height="32" fill="none" viewBox="0 0 32 32"><path fill="#007AFF" d="M15.3359 12.0308C15.3359 11.6572 15.6099 11.4165 15.9917 11.4165C16.3818 11.4165 16.6558 11.6572 16.6558 12.0308V7.49023C16.6558 7.1416 16.3486 6.84277 15.9917 6.84277C15.6348 6.84277 15.3359 7.1416 15.3359 7.49023V12.0308ZM16.6807 11.4995V16.3555L16.6309 17.5342L17.1455 16.9863L18.4072 15.6499C18.5234 15.5088 18.7061 15.4424 18.8721 15.4424C19.229 15.4424 19.5029 15.6997 19.5029 16.0483C19.5029 16.231 19.4282 16.3721 19.2954 16.5049L16.4897 19.2109C16.3237 19.377 16.1743 19.4351 16 19.4351C15.8174 19.4351 15.668 19.377 15.502 19.2109L12.6963 16.5049C12.5635 16.3721 12.4888 16.231 12.4888 16.0483C12.4888 15.6997 12.7544 15.4424 13.1113 15.4424C13.2773 15.4424 13.4683 15.5088 13.5845 15.6499L14.8379 16.9863L15.3691 17.5425L15.311 16.3555V11.4995H11.2354C9.50049 11.4995 8.62891 12.3628 8.62891 14.0728V22.1909C8.62891 23.9009 9.50049 24.7642 11.2354 24.7642H20.7563C22.4912 24.7642 23.3628 23.9009 23.3628 22.1909V14.0728C23.3628 12.3628 22.4912 11.4995 20.7563 11.4995H16.6807Z"/></svg>