<svg xmlns="http://www.w3.org/2000/svg" width="32" height="32" fill="none" viewBox="0 0 32 32"><path fill="#007AFF" d="M16.5 19.3022C16.666 19.3022 16.8154 19.2524 16.9814 19.0864L19.7871 16.3721C19.9116 16.2476 19.978 16.1147 19.978 15.9404C19.978 15.6001 19.7207 15.3594 19.3721 15.3594C19.2144 15.3594 19.04 15.4258 18.9238 15.5586L17.6704 16.895L17.106 17.4844L17.1558 16.2393V7.49023C17.1558 7.1416 16.8569 6.84277 16.5 6.84277C16.1431 6.84277 15.8359 7.1416 15.8359 7.49023V16.2393L15.894 17.4844L15.3296 16.895L14.0679 15.5586C13.9517 15.4258 13.7773 15.3594 13.6113 15.3594C13.271 15.3594 13.0137 15.6001 13.0137 15.9404C13.0137 16.1147 13.0884 16.2476 13.2129 16.3721L16.0186 19.0864C16.1846 19.2524 16.334 19.3022 16.5 19.3022ZM11.7354 24.7642H21.2563C22.9912 24.7642 23.8628 23.9009 23.8628 22.1909V13.9067C23.8628 12.1968 22.9912 11.3335 21.2563 11.3335H18.9404V12.6699H21.2314C22.0532 12.6699 22.5264 13.1182 22.5264 13.9814V22.1162C22.5264 22.9795 22.0532 23.4277 21.2314 23.4277H11.752C10.9219 23.4277 10.4653 22.9795 10.4653 22.1162V13.9814C10.4653 13.1182 10.9219 12.6699 11.752 12.6699H14.0513V11.3335H11.7354C10.0005 11.3335 9.12891 12.1968 9.12891 13.9067V22.1909C9.12891 23.9009 10.0005 24.7642 11.7354 24.7642Z"/></svg>