<svg xmlns="http://www.w3.org/2000/svg" width="32" height="32" fill="none" viewBox="0 0 32 32"><path fill="#007AFF" d="M16 24.4736C20.6318 24.4736 24.4668 20.6304 24.4668 16.0068C24.4668 11.375 20.6235 7.54004 15.9917 7.54004C11.3682 7.54004 7.5332 11.375 7.5332 16.0068C7.5332 20.6304 11.3765 24.4736 16 24.4736ZM15.917 12.9771C15.2944 12.9771 14.7964 12.479 14.7964 11.8481C14.7964 11.2173 15.2944 10.7192 15.917 10.7192C16.5396 10.7192 17.0293 11.2173 17.0293 11.8481C17.0293 12.479 16.5396 12.9771 15.917 12.9771ZM14.4976 20.73C14.1406 20.73 13.8667 20.4727 13.8667 20.1157C13.8667 19.7837 14.1406 19.5098 14.4976 19.5098H15.5518V15.6084H14.6387C14.29 15.6084 14.0161 15.3511 14.0161 14.9941C14.0161 14.6621 14.29 14.3882 14.6387 14.3882H16.249C16.689 14.3882 16.9214 14.7036 16.9214 15.1685V19.5098H17.9756C18.3325 19.5098 18.6064 19.7837 18.6064 20.1157C18.6064 20.4727 18.3325 20.73 17.9756 20.73H14.4976Z"/></svg>