<svg xmlns="http://www.w3.org/2000/svg" width="32" height="32" fill="none" viewBox="0 0 32 32"><path fill="#007AFF" d="M16 24.4736C20.6318 24.4736 24.4668 20.6304 24.4668 16.0068C24.4668 11.375 20.6235 7.54004 15.9917 7.54004C11.3682 7.54004 7.5332 11.375 7.5332 16.0068C7.5332 20.6304 11.3765 24.4736 16 24.4736ZM16 23.0625C12.082 23.0625 8.95264 19.9248 8.95264 16.0068C8.95264 12.0889 12.0737 8.95117 15.9917 8.95117C19.9097 8.95117 23.0474 12.0889 23.0557 16.0068C23.064 19.9248 19.918 23.0625 16 23.0625ZM15.9253 13.0518C16.5312 13.0518 17.0044 12.5703 17.0044 11.9727C17.0044 11.3667 16.5312 10.8853 15.9253 10.8853C15.3276 10.8853 14.8462 11.3667 14.8462 11.9727C14.8462 12.5703 15.3276 13.0518 15.9253 13.0518ZM14.5474 20.5723H17.9258C18.2661 20.5723 18.5317 20.3315 18.5317 19.9912C18.5317 19.6675 18.2661 19.4102 17.9258 19.4102H16.8965V15.1851C16.8965 14.7368 16.6724 14.438 16.249 14.438H14.6885C14.3481 14.438 14.0825 14.6953 14.0825 15.019C14.0825 15.3594 14.3481 15.6001 14.6885 15.6001H15.5767V19.4102H14.5474C14.207 19.4102 13.9414 19.6675 13.9414 19.9912C13.9414 20.3315 14.207 20.5723 14.5474 20.5723Z"/></svg>