<svg xmlns="http://www.w3.org/2000/svg" width="32" height="32" fill="none" viewBox="0 0 32 32"><path fill="#007AFF" d="M12.9204 24.7891H19.0713C20.4243 24.7891 21.3291 23.9258 21.3291 22.6309V9.37451C21.3291 8.07959 20.4243 7.21631 19.0713 7.21631H12.9204C11.5674 7.21631 10.6626 8.07959 10.6626 9.37451V22.6309C10.6626 23.9258 11.5674 24.7891 12.9204 24.7891ZM13.0947 23.4526C12.3892 23.4526 11.999 23.0791 11.999 22.415V9.59033C11.999 8.92627 12.3892 8.55273 13.0947 8.55273H13.4268V8.93457C13.4268 9.2832 13.6509 9.51562 13.9995 9.51562H18.0088C18.3491 9.51562 18.5732 9.2832 18.5732 8.93457V8.55273H18.9053C19.6025 8.55273 19.9927 8.92627 19.9927 9.59033V22.415C19.9927 23.0791 19.6025 23.4526 18.9053 23.4526H13.0947ZM13.8169 22.8467H18.1914C18.4155 22.8467 18.5732 22.689 18.5732 22.4565C18.5732 22.2241 18.4155 22.0747 18.1914 22.0747H13.8169C13.5928 22.0747 13.4268 22.2241 13.4268 22.4565C13.4268 22.689 13.5928 22.8467 13.8169 22.8467Z"/></svg>