<svg xmlns="http://www.w3.org/2000/svg" width="32" height="32" fill="none" viewBox="0 0 32 32"><path fill="#007AFF" d="M16.772 11.2754C16.772 10.8521 16.4233 10.4951 16 10.4951C15.5767 10.4951 15.2197 10.8521 15.2197 11.2754V13.7739C15.2197 14.189 15.5767 14.5376 16 14.5376C16.4233 14.5376 16.772 14.189 16.772 13.7739V11.2754ZM11.7749 16.1978C12.0737 15.8989 12.0654 15.4175 11.7749 15.1187L10.0151 13.3423C9.72461 13.0518 9.22656 13.0435 8.92773 13.334C8.62891 13.6328 8.62891 14.1226 8.93604 14.4214L10.6875 16.1978C10.978 16.5049 11.4761 16.4883 11.7749 16.1978ZM20.1255 16.2891C20.416 16.5879 20.9224 16.5879 21.2129 16.2891L22.981 14.5127C23.2715 14.2139 23.2798 13.7241 22.981 13.4253C22.6904 13.1348 22.2007 13.1265 21.8936 13.4253L20.1255 15.2017C19.8184 15.5005 19.8184 15.9902 20.1255 16.2891ZM6.85254 19.6426C6.4458 19.6426 6.08887 19.9912 6.08887 20.4062C6.08887 20.8296 6.4458 21.1865 6.85254 21.1865H9.35938C9.78271 21.1865 10.1396 20.8296 10.1396 20.4062C10.1396 19.9912 9.78271 19.6426 9.35938 19.6426H6.85254ZM21.8687 20.4062C21.8687 20.8296 22.2173 21.1865 22.6406 21.1865H25.1392C25.5542 21.1865 25.9111 20.8296 25.9111 20.4062C25.9111 19.9912 25.5542 19.6426 25.1392 19.6426H22.6406C22.2173 19.6426 21.8687 19.9912 21.8687 20.4062ZM12.9868 21.1699H19.0049C19.4116 21.1699 19.7603 20.8296 19.7603 20.4312C19.7603 20.0244 19.4116 19.6924 19.0049 19.6924H12.9868C12.5718 19.6924 12.2231 20.0244 12.2231 20.4312C12.2231 20.8296 12.5718 21.1699 12.9868 21.1699Z"/></svg>