<svg xmlns="http://www.w3.org/2000/svg" width="32" height="32" fill="none" viewBox="0 0 32 32"><path fill="#007AFF" d="M7.27588 9.14209C7.10156 9.98877 7.03516 11.0928 7.03516 11.8315C7.03516 18.0405 10.729 22.1411 16.3735 22.1411C19.1792 22.1411 20.8477 20.8628 21.6279 19.958C22.3252 20.9126 22.7236 21.9668 23.1636 23.3447C23.2881 23.7432 23.562 23.8843 23.8525 23.8843C24.4668 23.8843 24.9565 23.353 24.9565 22.6226C24.9565 21.4771 23.313 19.4849 22.458 18.6797C18.8223 15.3262 13.2856 17.3101 11.8579 13.6079C11.75 13.3257 12.0488 13.0767 12.3228 13.3589C15.1865 16.2227 18.8721 13.8071 22.458 17.1108C22.7402 17.3599 23.0723 17.2271 23.1221 16.9282C23.1636 16.6875 23.1885 16.3057 23.1885 15.9404C23.1885 11.8896 20.3662 9.93896 16.3984 9.93896C15.0703 9.93896 13.5181 10.2627 12.2979 10.2627C10.9614 10.2627 9.45898 10.1548 8.26367 8.87646C7.92334 8.52783 7.40869 8.57764 7.27588 9.14209Z"/></svg>