<svg width="32" height="32" viewBox="0 0 32 32" fill="none" xmlns="http://www.w3.org/2000/svg">
<path d="M20.6338 17.9614L23.7964 11.1465C24.3691 9.90967 23.3813 9.08789 22.1943 9.63574L15.4458 12.7734L16.3921 13.7197L22.2856 11.0054C22.377 10.9639 22.4351 11.022 22.3936 11.1133L19.6709 16.9985L20.6338 17.9614ZM22.8916 23.4233C23.1406 23.6724 23.5557 23.6724 23.7964 23.4233C24.0371 23.1743 24.0454 22.7676 23.7964 22.5186L11.0132 9.73535C10.7642 9.48633 10.3491 9.48633 10.1001 9.73535C9.85938 9.97607 9.85938 10.3994 10.1001 10.6401L22.8916 23.4233ZM18.2266 20.1611L16.749 23.3486C16.7241 23.4233 16.6411 23.3984 16.6411 23.3403L16.6743 18.6089L14.7734 16.708L10.0254 16.7329C9.96729 16.7329 9.95068 16.6665 10.0171 16.6416L13.2295 15.1641L12.2915 14.2261L8.62256 15.9277C7.52686 16.4341 7.74268 17.9697 9.0459 17.978L15.2383 18.0029C15.3628 18.0029 15.4043 18.0444 15.4043 18.1689L15.4209 24.3115C15.4209 25.5815 16.9482 25.8804 17.521 24.6436L19.1729 21.0991L18.2266 20.1611Z" fill="#007AFF"/>
</svg>
