<svg width="32" height="32" viewBox="0 0 32 32" fill="none" xmlns="http://www.w3.org/2000/svg">
<path d="M12.1982 23.9507H19.8018C21.0469 23.9507 21.6611 23.3281 21.6611 21.9751V16.2559C21.6611 15.0771 21.188 14.4546 20.2251 14.3218V12.313C20.2251 9.18359 18.1748 7.67285 16 7.67285C13.8252 7.67285 11.7749 9.18359 11.7749 12.313V14.3218C10.812 14.4546 10.3389 15.0771 10.3389 16.2559V21.9751C10.3389 23.3281 10.9531 23.9507 12.1982 23.9507ZM13.1113 12.1387C13.1113 10.0552 14.4478 8.95117 16 8.95117C17.5522 8.95117 18.8887 10.0552 18.8887 12.1387V14.2969H13.1113V12.1387ZM12.248 22.7056C11.8662 22.7056 11.6753 22.5312 11.6753 22.0664V16.1729C11.6753 15.708 11.8662 15.542 12.248 15.542H19.7603C20.1421 15.542 20.3247 15.708 20.3247 16.1729V22.0664C20.3247 22.5312 20.1421 22.7056 19.7603 22.7056H12.248Z" fill="#007AFF"/>
</svg>
