<svg width="32" height="32" viewBox="0 0 32 32" fill="none" xmlns="http://www.w3.org/2000/svg">
<path d="M8.30518 23.876C8.5127 23.876 8.72852 23.8013 8.99414 23.6519L13.2192 21.3774L17.8096 23.9507C18.1084 24.1167 18.4321 24.1997 18.7393 24.1997C19.0298 24.1997 19.3203 24.125 19.5693 23.9839L23.9106 21.5186C24.4087 21.2446 24.6328 20.8462 24.6328 20.29V9.10889C24.6328 8.49463 24.2925 8.1543 23.6948 8.1543C23.4873 8.1543 23.2715 8.2207 22.9976 8.37012L18.5981 10.8188L14.0908 8.05469C13.8335 7.90527 13.543 7.82227 13.2524 7.82227C12.9536 7.82227 12.6548 7.90527 12.3975 8.05469L8.08105 10.5117C7.59131 10.7939 7.36719 11.1924 7.36719 11.7485V22.9131C7.36719 23.5273 7.70752 23.876 8.30518 23.876ZM12.6797 20.0576L8.93604 22.1162C8.89453 22.1328 8.85303 22.1577 8.81152 22.1577C8.74512 22.1577 8.70361 22.1079 8.70361 22.0249V12.0723C8.70361 11.873 8.77832 11.7319 8.97754 11.6157L12.3809 9.62354C12.4888 9.56543 12.5801 9.51562 12.6797 9.45752V20.0576ZM14.0161 20.1904V9.63184C14.0991 9.68164 14.1987 9.73145 14.2817 9.78125L17.9839 12.0391V22.415C17.8677 22.3486 17.7432 22.2905 17.6187 22.2241L14.0161 20.1904ZM19.3203 22.5645V11.9561L23.064 9.91406C23.1055 9.88916 23.147 9.87256 23.1802 9.87256C23.2549 9.87256 23.2964 9.92236 23.2964 10.0054V19.958C23.2964 20.1655 23.2134 20.3066 23.0225 20.4229L19.6938 22.3569C19.5693 22.4316 19.4448 22.5063 19.3203 22.5645Z" fill="#007AFF"/>
</svg>
