<svg width="32" height="32" viewBox="0 0 32 32" fill="none" xmlns="http://www.w3.org/2000/svg">
<path d="M9.82422 20.8711H11.2437V22.1411C11.2437 23.8511 12.1069 24.7144 13.8501 24.7144H22.1841C23.9106 24.7144 24.7822 23.8511 24.7822 22.1411V13.7407C24.7822 12.0308 23.9106 11.1675 22.1841 11.1675H20.7563V9.89746C20.7563 8.1875 19.8848 7.32422 18.1582 7.32422H9.82422C8.08105 7.32422 7.21777 8.1875 7.21777 9.89746V18.2979C7.21777 20.0078 8.08105 20.8711 9.82422 20.8711ZM9.84082 19.5347C9.01074 19.5347 8.5542 19.0864 8.5542 18.2231V9.97217C8.5542 9.10889 9.01074 8.66064 9.84082 8.66064H18.1333C18.9551 8.66064 19.4199 9.10889 19.4199 9.97217V11.1675H13.8501C12.1069 11.1675 11.2437 12.0225 11.2437 13.7407V19.5347H9.84082ZM13.8667 23.3779C13.0449 23.3779 12.5801 22.9297 12.5801 22.0664V13.8154C12.5801 12.9521 13.0449 12.5039 13.8667 12.5039H22.1592C22.981 12.5039 23.4458 12.9521 23.4458 13.8154V22.0664C23.4458 22.9297 22.981 23.3779 22.1592 23.3779H13.8667Z" fill="#007AFF"/>
</svg>
