<svg xmlns="http://www.w3.org/2000/svg" width="32" height="32" fill="none" viewBox="0 0 32 32"><path fill="#007AFF" d="M21.6196 16.5132L15.5186 22.6143C13.9331 24.208 11.7998 24.0503 10.4385 22.6724C9.06885 21.311 8.91113 19.1943 10.4966 17.6006L18.8223 9.2832C19.7769 8.32861 21.1797 8.1958 22.0928 9.10059C22.9976 10.022 22.8647 11.4165 21.9185 12.3711L13.7837 20.5059C13.377 20.9292 12.8789 20.8047 12.5967 20.5225C12.3145 20.2319 12.1982 19.7505 12.605 19.3271L18.291 13.6577C18.54 13.4004 18.5566 13.0352 18.3159 12.7944C18.0752 12.562 17.71 12.5786 17.4609 12.8276L11.7583 18.5303C10.9116 19.377 10.9448 20.6719 11.6919 21.4189C12.5054 22.2324 13.7339 22.2158 14.5889 21.3608L22.7568 13.1929C24.3091 11.6406 24.2427 9.59863 22.8896 8.24561C21.5698 6.92578 19.4946 6.82617 17.9424 8.37842L9.5752 16.7539C7.5249 18.8042 7.68262 21.7344 9.53369 23.5854C11.3848 25.4282 14.3149 25.5859 16.3652 23.5439L22.5078 17.4014C22.7485 17.1606 22.7485 16.7207 22.4995 16.4966C22.2588 16.2393 21.8687 16.2725 21.6196 16.5132Z"/></svg>