<svg width="32" height="32" viewBox="0 0 32 32" fill="none" xmlns="http://www.w3.org/2000/svg">
<path d="M17.27 25.1875C17.8677 25.1875 18.291 24.6729 18.5981 23.876L24.0352 9.67334C24.1846 9.2915 24.2676 8.95117 24.2676 8.66895C24.2676 8.12939 23.9355 7.79736 23.396 7.79736C23.1138 7.79736 22.7734 7.88037 22.3916 8.02979L8.11426 13.5C7.41699 13.7656 6.87744 14.189 6.87744 14.7949C6.87744 15.5586 7.4585 15.8159 8.25537 16.0566L14.2485 17.8164L15.9917 23.7349C16.2407 24.5732 16.498 25.1875 17.27 25.1875ZM14.6221 16.5547L8.89453 14.8032C8.76172 14.7617 8.72021 14.7285 8.72021 14.6704C8.72021 14.6123 8.75342 14.5708 8.87793 14.521L20.1006 10.271C20.7646 10.022 21.4038 9.68994 22.0181 9.40771C21.4702 9.85596 20.7896 10.3872 20.333 10.8438L14.6221 16.5547ZM17.4028 23.3613C17.3364 23.3613 17.3032 23.3032 17.2617 23.1704L15.5103 17.4429L21.2212 11.7319C21.6694 11.2837 22.2256 10.5864 22.6655 10.022C22.3833 10.6528 22.043 11.292 21.7939 11.9644L17.5439 23.187C17.4941 23.3115 17.4609 23.3613 17.4028 23.3613Z" fill="#007AFF"/>
</svg>
