<svg width="32" height="32" viewBox="0 0 32 32" fill="none" xmlns="http://www.w3.org/2000/svg">
<path d="M21.52 8.72705C21.8936 8.72705 22.209 8.41162 22.209 8.03809V6.24512C22.209 5.86328 21.8936 5.55615 21.52 5.55615C21.1382 5.55615 20.8311 5.86328 20.8311 6.24512V8.03809C20.8311 8.41162 21.1382 8.72705 21.52 8.72705ZM16.7056 10.3291C16.9712 10.603 17.4277 10.5947 17.6851 10.3291C17.9424 10.0635 17.9507 9.63184 17.6851 9.36621L16.3984 8.08789C16.1328 7.81396 15.7012 7.82227 15.4355 8.08789C15.1699 8.34521 15.1699 8.78516 15.4355 9.05908L16.7056 10.3291ZM25.355 10.3291C25.6123 10.5947 26.0605 10.603 26.3345 10.3291L27.5962 9.05908C27.8618 8.78516 27.8618 8.34521 27.5962 8.08789C27.3306 7.82227 26.8989 7.81396 26.6333 8.08789L25.355 9.36621C25.0894 9.63184 25.0977 10.0635 25.355 10.3291ZM9.50879 22.332H18.4902C20.8892 22.332 22.7485 20.5142 22.7485 18.1733C22.7485 18.1567 22.7485 18.1318 22.7485 18.1152C24.4253 17.5757 25.6206 16.0068 25.6206 14.1641C25.6206 11.8813 23.7944 10.0469 21.5117 10.0469C19.6689 10.0469 18.1167 11.2505 17.5938 12.9272C16.5977 11.79 15.2031 11.126 13.626 11.126C10.8784 11.126 8.5791 13.251 8.30518 15.9819C6.91895 16.4136 5.98926 17.6089 5.98926 19.1196C5.98926 20.9873 7.39209 22.332 9.50879 22.332ZM21.5117 11.2671C23.1387 11.2671 24.4004 12.5371 24.4004 14.1641C24.4004 15.4092 23.645 16.4717 22.5493 16.9033C22.0264 15.3096 20.5239 14.189 18.6313 14.0728C18.6729 12.4873 19.9263 11.2671 21.5117 11.2671ZM9.47559 21.0039C8.06445 21.0039 7.31738 20.1904 7.31738 19.1528C7.31738 18.2729 7.83203 17.4927 9.05225 17.1689C9.45068 17.061 9.6001 16.8867 9.6333 16.4634C9.82422 14.1392 11.5508 12.4624 13.626 12.4624C15.2363 12.4624 16.4897 13.3506 17.2617 14.8945C17.436 15.2515 17.6436 15.376 18.0669 15.376C20.2085 15.376 21.4204 16.6709 21.4204 18.2148C21.4204 19.7588 20.1587 21.0039 18.5151 21.0039H9.47559ZM27.6294 14.853H29.4224C29.7959 14.853 30.103 14.5459 30.103 14.1641C30.1113 13.7822 29.7959 13.4751 29.4224 13.4751H27.6294C27.2559 13.4751 26.9404 13.7822 26.9404 14.1641C26.9404 14.5459 27.2559 14.853 27.6294 14.853ZM26.6333 20.2568C26.8989 20.5225 27.3306 20.5142 27.5962 20.2485C27.8618 19.9829 27.8618 19.543 27.5962 19.2856L26.3179 18.0073C26.0522 17.75 25.6206 17.7417 25.355 18.0073C25.0894 18.2729 25.0894 18.7212 25.355 18.9868L26.6333 20.2568Z" fill="#007AFF"/>
</svg>
