<svg xmlns="http://www.w3.org/2000/svg" width="32" height="32" fill="none" viewBox="0 0 32 32"><path fill="#007AFF" d="M19.9512 24.1499C21.4038 24.1499 22.3584 23.7598 23.1968 22.8135C23.2632 22.7471 23.3296 22.6724 23.3877 22.606C23.8857 22.0498 24.1182 21.502 24.1182 20.979C24.1182 20.3813 23.7695 19.8252 23.0308 19.3105L20.6152 17.6338C19.8682 17.1191 18.9966 17.061 18.2993 17.75L17.6602 18.3892C17.4692 18.5801 17.3032 18.5884 17.1206 18.4722C16.6724 18.1899 15.7676 17.4014 15.1533 16.7871C14.5059 16.1479 13.8833 15.4341 13.5513 14.9111C13.4434 14.7202 13.4517 14.5625 13.6426 14.3716L14.2734 13.7324C14.9707 13.0352 14.9126 12.1553 14.3979 11.4165L12.7212 9.00098C12.2065 8.26221 11.6504 7.92188 11.0527 7.91357C10.5298 7.90527 9.98193 8.146 9.42578 8.64404C9.35107 8.71045 9.28467 8.76855 9.21826 8.82666C8.27197 9.67334 7.88184 10.6279 7.88184 12.064C7.88184 14.438 9.34277 17.3267 12.0239 20.0078C14.6885 22.6724 17.5854 24.1499 19.9512 24.1499ZM19.9595 22.8716C17.8428 22.9131 15.1284 21.2861 12.9785 19.1445C10.812 16.9863 9.11035 14.1807 9.15186 12.064C9.16846 11.1509 9.49219 10.3623 10.1396 9.79785C10.1978 9.74805 10.2393 9.70654 10.2974 9.66504C10.5464 9.44922 10.812 9.33301 11.0527 9.33301C11.2935 9.33301 11.5093 9.42432 11.667 9.67334L13.2773 12.0889C13.4517 12.3462 13.4683 12.6367 13.2109 12.894L12.4805 13.6245C11.9077 14.1973 11.9492 14.8945 12.3643 15.4507C12.8374 16.0898 13.6592 17.0195 14.2983 17.6504C14.9292 18.2896 15.9336 19.186 16.5811 19.6675C17.1372 20.0825 17.8345 20.124 18.4072 19.5513L19.1377 18.8208C19.395 18.5635 19.6772 18.5801 19.9429 18.7461L22.3584 20.3564C22.6074 20.5225 22.6987 20.73 22.6987 20.979C22.6987 21.2197 22.5825 21.4854 22.3667 21.7344C22.3169 21.7925 22.2837 21.834 22.2339 21.8921C21.6694 22.5396 20.8809 22.855 19.9595 22.8716Z"/></svg>