<svg xmlns="http://www.w3.org/2000/svg" width="32" height="32" fill="none" viewBox="0 0 32 32"><path fill="#007AFF" d="M6.51221 20.7173C6.80273 22.4023 7.80713 23.0996 9.52539 22.7925L9.69141 22.7676V23.1411C9.69141 24.8511 10.5547 25.7144 12.2979 25.7144H24.4004C26.1353 25.7144 27.0068 24.8511 27.0068 23.1411V14.7407C27.0068 13.0308 26.1353 12.1675 24.4004 12.1675H22.5991L22.1094 9.43652C21.8105 7.75977 20.8062 7.0459 19.0962 7.35303L7.17627 9.46143C5.45801 9.76025 4.76904 10.748 5.05957 12.4414L6.51221 20.7173ZM7.81543 20.4102L6.3877 12.2754C6.23828 11.437 6.61182 10.9141 7.43359 10.7646L19.312 8.67285C20.1172 8.53174 20.6567 8.88867 20.8062 9.73535L21.2378 12.1675H12.2979C10.5547 12.1675 9.69141 13.0225 9.69141 14.7407V21.4062L9.31787 21.4727C8.50439 21.6221 7.97314 21.2568 7.81543 20.4102ZM12.3145 24.3779C11.4844 24.3779 11.0278 23.9297 11.0278 23.0664V14.8154C11.0278 13.9521 11.4844 13.5039 12.3145 13.5039H24.3838C25.2056 13.5039 25.6704 13.9521 25.6704 14.8154V23.0664C25.6704 23.9297 25.2056 24.3779 24.3838 24.3779H12.3145Z"/></svg>