<svg width="32" height="32" viewBox="0 0 32 32" fill="none" xmlns="http://www.w3.org/2000/svg">
<path d="M15.9917 22.083C16.332 22.083 16.7637 20.7549 16.7637 18.2979V13.0518C18.1167 12.7114 19.1128 11.4829 19.1128 10.022C19.1128 8.30371 17.7266 6.89258 15.9917 6.89258C14.2651 6.89258 12.8789 8.30371 12.8789 10.022C12.8789 11.4746 13.8667 12.7031 15.2197 13.0518V18.2979C15.2197 20.7466 15.6597 22.083 15.9917 22.083ZM15.1035 10.1963C14.5391 10.1963 14.041 9.69824 14.041 9.11719C14.041 8.54443 14.5391 8.05469 15.1035 8.05469C15.6929 8.05469 16.1743 8.54443 16.1743 9.11719C16.1743 9.69824 15.6929 10.1963 15.1035 10.1963ZM16 25.1211C21.0054 25.1211 23.8774 23.3945 23.8774 21.5684C23.8774 19.377 20.3994 18.0405 18.1167 18.0156V19.2275C19.7188 19.2524 22.2007 20.124 22.2007 21.3691C22.2007 22.7969 19.5693 23.8096 16 23.8096C12.4141 23.8096 9.79932 22.8135 9.79932 21.3691C9.79932 20.124 12.2729 19.2524 13.875 19.2275V18.0156C11.5923 18.0405 8.11426 19.377 8.11426 21.5684C8.11426 23.3945 10.9946 25.1211 16 25.1211Z" fill="#007AFF"/>
</svg>
