<svg xmlns="http://www.w3.org/2000/svg" width="32" height="32" fill="none" viewBox="0 0 32 32"><path fill="#007AFF" d="M15.9917 25.5317C16.332 25.5317 16.7637 24.2036 16.7637 21.7466V14.0518C18.1167 13.7114 19.1128 12.4829 19.1128 11.022C19.1128 9.30371 17.7266 7.89258 15.9917 7.89258C14.2651 7.89258 12.8789 9.30371 12.8789 11.022C12.8789 12.4746 13.8667 13.7031 15.2197 14.0518V21.7466C15.2197 24.1953 15.6597 25.5317 15.9917 25.5317ZM15.1035 11.1963C14.5308 11.1963 14.0327 10.6982 14.0327 10.1172C14.0327 9.54443 14.5308 9.05469 15.1035 9.05469C15.6846 9.05469 16.166 9.54443 16.166 10.1172C16.166 10.6982 15.6846 11.1963 15.1035 11.1963Z"/></svg>