<svg xmlns="http://www.w3.org/2000/svg" width="32" height="32" fill="none" viewBox="0 0 32 32"><path fill="#007AFF" d="M16 24.4736C20.6318 24.4736 24.4668 20.6387 24.4668 16.0068C24.4668 11.9229 21.4868 8.46143 17.6021 7.69775V6.51904C17.6021 5.92969 17.1953 5.77197 16.7471 6.0957L14.0991 7.94678C13.7173 8.2124 13.709 8.61084 14.0991 8.88477L16.7388 10.7441C17.1953 11.0762 17.6021 10.9185 17.6021 10.3208V9.13379C20.7397 9.84766 23.0474 12.645 23.0474 16.0068C23.0474 19.9248 19.918 23.0625 16 23.0625C12.082 23.0625 8.93604 19.9248 8.94434 16.0068C8.95264 13.6494 10.0981 11.5659 11.8662 10.3042C12.2065 10.0469 12.3145 9.65674 12.1069 9.30811C11.8994 8.96777 11.4429 8.87646 11.0776 9.15869C8.94434 10.7109 7.5332 13.2178 7.5332 16.0068C7.5332 20.6387 11.3765 24.4736 16 24.4736Z"/></svg>