<svg xmlns="http://www.w3.org/2000/svg" width="32" height="32" fill="none" viewBox="0 0 32 32"><path fill="#007AFF" d="M10.9614 23.6602H21.0303C22.7734 23.6602 23.6367 22.7969 23.6367 21.0869V10.9517C23.6367 9.2417 22.7734 8.37842 21.0303 8.37842H10.9614C9.22656 8.37842 8.35498 9.2334 8.35498 10.9517V21.0869C8.35498 22.8052 9.22656 23.6602 10.9614 23.6602ZM10.978 22.3237C10.1479 22.3237 9.69141 21.8838 9.69141 21.0205V11.0181C9.69141 10.1548 10.1479 9.71484 10.978 9.71484H21.0137C21.8354 9.71484 22.3003 10.1548 22.3003 11.0181V21.0205C22.3003 21.8838 21.8354 22.3237 21.0137 22.3237H10.978ZM15.9834 19.7256C16.4316 19.7256 16.689 19.4268 16.689 18.9453V16.7041H19.0796C19.5444 16.7041 19.8682 16.4551 19.8682 16.0151C19.8682 15.5669 19.561 15.3096 19.0796 15.3096H16.689V12.9189C16.689 12.4292 16.4316 12.1304 15.9834 12.1304C15.5435 12.1304 15.3027 12.4458 15.3027 12.9189V15.3096H12.9204C12.439 15.3096 12.1235 15.5669 12.1235 16.0151C12.1235 16.4551 12.4556 16.7041 12.9204 16.7041H15.3027V18.9453C15.3027 19.4102 15.5435 19.7256 15.9834 19.7256Z"/></svg>