<svg xmlns="http://www.w3.org/2000/svg" width="32" height="32" fill="none" viewBox="0 0 32 32"><path fill="#007AFF" d="M16 24.4736C20.6318 24.4736 24.4668 20.6304 24.4668 16.0068C24.4668 11.375 20.6235 7.54004 15.9917 7.54004C11.3682 7.54004 7.5332 11.375 7.5332 16.0068C7.5332 20.6304 11.3765 24.4736 16 24.4736ZM16 23.0625C12.082 23.0625 8.95264 19.9248 8.95264 16.0068C8.95264 12.0889 12.0737 8.95117 15.9917 8.95117C19.9097 8.95117 23.0474 12.0889 23.0557 16.0068C23.064 19.9248 19.918 23.0625 16 23.0625ZM15.9751 19.7339C16.4233 19.7339 16.6807 19.4351 16.6807 18.9453V16.7041H19.0713C19.5361 16.7041 19.8599 16.4634 19.8599 16.0234C19.8599 15.5752 19.5527 15.3179 19.0713 15.3179H16.6807V12.9189C16.6807 12.4375 16.4233 12.1304 15.9751 12.1304C15.5352 12.1304 15.2944 12.4541 15.2944 12.9189V15.3179H12.9121C12.4307 15.3179 12.1152 15.5752 12.1152 16.0234C12.1152 16.4634 12.4473 16.7041 12.9121 16.7041H15.2944V18.9453C15.2944 19.4185 15.5352 19.7339 15.9751 19.7339Z"/></svg>