<svg xmlns="http://www.w3.org/2000/svg" width="32" height="32" fill="none" viewBox="0 0 32 32"><path fill="#007AFF" d="M16 23.0044C16.4067 23.0044 16.7471 22.6807 16.7471 22.2822V16.7622H22.1094C22.5078 16.7622 22.8481 16.4219 22.8481 16.0151C22.8481 15.6084 22.5078 15.2764 22.1094 15.2764H16.7471V9.74805C16.7471 9.34961 16.4067 9.02588 16 9.02588C15.5933 9.02588 15.2612 9.34961 15.2612 9.74805V15.2764H9.89062C9.49219 15.2764 9.15186 15.6084 9.15186 16.0151C9.15186 16.4219 9.49219 16.7622 9.89062 16.7622H15.2612V22.2822C15.2612 22.6807 15.5933 23.0044 16 23.0044Z"/></svg>