<svg width="32" height="32" viewBox="0 0 32 32" fill="none" xmlns="http://www.w3.org/2000/svg">
<path d="M10.0068 18.7627C10.0068 22.4233 12.4058 24.5898 15.7012 24.5898C18.3408 24.5898 19.9761 23.4858 21.0635 21.2695C21.7026 20.041 22.1924 18.5635 22.7153 16.8535C22.9312 16.1562 23.2383 15.2681 23.2383 14.8696C23.2383 14.4214 22.9146 14.1226 22.4414 14.1226C21.9185 14.1226 21.603 14.4546 21.2212 15.2432L20.0674 17.667C19.9512 17.9326 19.8184 18.0322 19.6855 18.0322C19.5112 18.0322 19.395 17.9326 19.395 17.6421V8.93457C19.395 8.44482 18.9966 8.04639 18.5068 8.04639C18.0171 8.04639 17.6187 8.44482 17.6187 8.93457V15.1602C17.3945 15.0771 17.1455 15.0107 16.8799 14.9609V7.73926C16.8799 7.24951 16.4814 6.84277 15.9917 6.84277C15.502 6.84277 15.0952 7.24951 15.0952 7.73926V14.8696C14.8379 14.8862 14.5723 14.9277 14.3149 14.9692V8.44482C14.3149 7.95508 13.9165 7.55664 13.4268 7.55664C12.937 7.55664 12.5386 7.95508 12.5386 8.44482V15.5337C12.2646 15.6665 12.0156 15.8076 11.7915 15.957V11.0264C11.7915 10.5366 11.3931 10.1382 10.9033 10.1382C10.4136 10.1382 10.0068 10.5366 10.0068 11.0264V18.7627Z" fill="#007AFF"/>
</svg>
