<svg xmlns="http://www.w3.org/2000/svg" width="32" height="32" fill="none" viewBox="0 0 32 32"><path fill="#007AFF" d="M15.5933 19.4185C16.1743 19.4185 16.4399 19.02 16.4399 18.4888V18.2065C16.4565 17.1108 16.8467 16.6543 18.1748 15.7412C19.6025 14.7783 20.5073 13.666 20.5073 12.064C20.5073 9.57373 18.4819 8.146 15.9585 8.146C14.0825 8.146 12.439 9.03418 11.7334 10.6362C11.5591 11.0264 11.4844 11.4082 11.4844 11.7236C11.4844 12.1968 11.7583 12.5288 12.2646 12.5288C12.688 12.5288 12.9702 12.2798 13.0947 11.873C13.5181 10.2959 14.564 9.69824 15.9004 9.69824C17.519 9.69824 18.7891 10.6113 18.7891 12.0557C18.7891 13.2427 18.0503 13.9067 16.9878 14.6538C15.6846 15.5586 14.73 16.5298 14.73 17.9907V18.5137C14.73 19.0449 15.0205 19.4185 15.5933 19.4185ZM15.5933 23.959C16.2573 23.959 16.7803 23.4277 16.7803 22.7803C16.7803 22.1245 16.2573 21.6016 15.5933 21.6016C14.9458 21.6016 14.4146 22.1245 14.4146 22.7803C14.4146 23.4277 14.9458 23.959 15.5933 23.959Z"/></svg>