<svg width="32" height="32" viewBox="0 0 32 32" fill="none" xmlns="http://www.w3.org/2000/svg">
<path d="M16 24.4736C20.6318 24.4736 24.4668 20.6304 24.4668 16.0068C24.4668 11.375 20.6235 7.54004 15.9917 7.54004C11.3682 7.54004 7.5332 11.375 7.5332 16.0068C7.5332 20.6304 11.3765 24.4736 16 24.4736ZM16 23.0625C12.082 23.0625 8.95264 19.9248 8.95264 16.0068C8.95264 12.0889 12.0737 8.95117 15.9917 8.95117C19.9097 8.95117 23.0474 12.0889 23.0557 16.0068C23.064 19.9248 19.918 23.0625 16 23.0625ZM15.8257 17.7251C16.2407 17.7251 16.498 17.4678 16.498 17.1357V17.0361C16.498 16.5713 16.7637 16.2808 17.3447 15.8989C18.1499 15.3677 18.7227 14.8779 18.7227 13.8901C18.7227 12.5039 17.4941 11.7651 16.083 11.7651C14.6553 11.7651 13.7173 12.4375 13.4932 13.2012C13.4517 13.3423 13.4185 13.4751 13.4185 13.6162C13.4185 13.9814 13.7173 14.189 13.9912 14.189C14.4644 14.189 14.5391 13.9316 14.8047 13.6245C15.0786 13.168 15.4771 12.894 16.0332 12.894C16.7886 12.894 17.2783 13.3174 17.2783 13.9565C17.2783 14.521 16.9297 14.7949 16.2075 15.293C15.6099 15.708 15.1616 16.1479 15.1616 16.9614V17.0693C15.1616 17.5093 15.4023 17.7251 15.8257 17.7251ZM15.8091 20.207C16.2905 20.207 16.7056 19.8252 16.7056 19.3438C16.7056 18.854 16.2988 18.4805 15.8091 18.4805C15.3193 18.4805 14.9126 18.8623 14.9126 19.3438C14.9126 19.8169 15.3276 20.207 15.8091 20.207Z" fill="#007AFF"/>
</svg>
