<svg xmlns="http://www.w3.org/2000/svg" width="32" height="32" fill="none" viewBox="0 0 32 32"><path fill="#007AFF" d="M15.6929 14.3716C15.9004 14.3716 16.0581 14.3052 16.1743 14.1807L19.5942 10.7441C19.7437 10.603 19.8018 10.437 19.8018 10.2461C19.8018 10.0635 19.7271 9.88086 19.5942 9.74805L16.1743 6.27832C16.0581 6.14551 15.8921 6.0791 15.6929 6.0791C15.3193 6.0791 15.0371 6.37793 15.0371 6.75977C15.0371 6.93408 15.1035 7.1001 15.2197 7.23291L17.436 9.40771C16.9629 9.32471 16.4814 9.2749 16 9.2749C11.9326 9.2749 8.66211 12.5371 8.66211 16.6045C8.66211 20.6802 11.9326 23.9507 16 23.9507C20.0674 23.9507 23.3296 20.6802 23.3296 16.6045C23.3296 16.2061 23.0474 15.9155 22.6406 15.9155C22.2505 15.9155 21.9932 16.2061 21.9932 16.6045C21.9932 19.9414 19.3286 22.6143 16 22.6143C12.6714 22.6143 9.99854 19.9414 9.99854 16.6045C9.99854 13.2759 12.6714 10.6113 16 10.6113C16.6309 10.6113 17.2119 10.6611 17.71 10.769L15.228 13.2344C15.1035 13.3672 15.0371 13.5332 15.0371 13.7075C15.0371 14.0894 15.3193 14.3716 15.6929 14.3716Z"/></svg>