<svg width="32" height="32" viewBox="0 0 32 32" fill="none" xmlns="http://www.w3.org/2000/svg">
<path d="M12.4575 26.1294C12.8643 26.1294 13.1465 25.9136 13.6528 25.4653L16.5166 22.917H21.8457C24.3193 22.917 25.6475 21.5474 25.6475 19.1152V12.7568C25.6475 10.3247 24.3193 8.95508 21.8457 8.95508H11.1543C8.68066 8.95508 7.35254 10.3164 7.35254 12.7568V19.1152C7.35254 21.5557 8.68066 22.917 11.1543 22.917H11.5527V25.0752C11.5527 25.7144 11.8765 26.1294 12.4575 26.1294ZM12.7979 24.6104V22.2031C12.7979 21.7549 12.6235 21.5806 12.1753 21.5806H11.1543C9.47754 21.5806 8.68896 20.7256 8.68896 19.1069V12.7568C8.68896 11.1382 9.47754 10.2915 11.1543 10.2915H21.8457C23.5142 10.2915 24.311 11.1382 24.311 12.7568V19.1069C24.311 20.7256 23.5142 21.5806 21.8457 21.5806H16.4668C16.002 21.5806 15.7695 21.647 15.4541 21.9707L12.7979 24.6104ZM16.5 17.4302C16.8984 17.4302 17.1309 17.2061 17.1392 16.7744L17.2554 12.3916C17.2637 11.9766 16.9316 11.6528 16.4917 11.6528C16.0435 11.6528 15.728 11.9683 15.7363 12.3833L15.8442 16.7744C15.8525 17.1978 16.085 17.4302 16.5 17.4302ZM16.5 20.1279C16.9814 20.1279 17.3965 19.7544 17.3965 19.2646C17.3965 18.7832 16.9897 18.4097 16.5 18.4097C16.0103 18.4097 15.6035 18.7915 15.6035 19.2646C15.6035 19.7461 16.0186 20.1279 16.5 20.1279Z" fill="#007AFF"/>
</svg>
