<svg width="32" height="32" viewBox="0 0 32 32" fill="none" xmlns="http://www.w3.org/2000/svg">
<path d="M17.1538 7.87207L19.2456 9.39941C19.7104 9.73975 20.1753 9.59863 20.1753 9.00098V7.98828H20.333C22.1343 7.98828 23.2715 9.2334 23.2715 11.0098V12.2466C23.2715 12.5288 23.5122 12.7612 23.7944 12.7612C24.0767 12.7612 24.3091 12.5288 24.3091 12.2466V11.0015C24.3091 8.62744 22.7319 7.02539 20.3413 7.02539H20.1753V5.92969C20.1753 5.31543 19.7104 5.17432 19.2456 5.52295L17.1538 7.05859C16.7969 7.31592 16.7969 7.61475 17.1538 7.87207ZM9.81592 23.6519H18.042C19.4614 23.6519 20.1753 22.9712 20.1753 21.5186V13.3091C20.1753 11.8564 19.4614 11.1758 18.042 11.1758H9.81592C8.39648 11.1758 7.68262 11.8564 7.68262 13.3091V21.5186C7.68262 22.9712 8.39648 23.6519 9.81592 23.6519ZM9.84082 22.3154C9.26807 22.3154 9.01904 22.083 9.01904 21.4937V13.334C9.01904 12.7446 9.26807 12.5122 9.84082 12.5122H18.0171C18.5898 12.5122 18.8389 12.7446 18.8389 13.334V21.4937C18.8389 22.083 18.5898 22.3154 18.0171 22.3154H9.84082Z" fill="#007AFF"/>
</svg>
