<svg xmlns="http://www.w3.org/2000/svg" width="32" height="32" fill="none" viewBox="0 0 32 32"><path fill="#007AFF" d="M16 24.4736C20.6318 24.4736 24.4668 20.6304 24.4668 16.0068C24.4668 11.375 20.6235 7.54004 15.9917 7.54004C11.3682 7.54004 7.5332 11.375 7.5332 16.0068C7.5332 20.6304 11.3765 24.4736 16 24.4736ZM16 23.0625C12.082 23.0625 8.95264 19.9248 8.95264 16.0068C8.95264 12.0889 12.0737 8.95117 15.9917 8.95117C19.9097 8.95117 23.0474 12.0889 23.0557 16.0068C23.064 19.9248 19.918 23.0625 16 23.0625ZM12.522 20.1987L17.2866 17.8662C17.5522 17.7417 17.7349 17.5508 17.8677 17.2935L20.1836 12.5371C20.4492 11.9727 20.0425 11.541 19.4614 11.8232L14.7134 14.1392C14.4561 14.2637 14.2817 14.438 14.1406 14.7202L11.8081 19.4849C11.5425 20.0327 11.9741 20.4644 12.522 20.1987ZM16 17.0361C15.4355 17.0361 14.9873 16.5796 14.9873 16.0151C14.9873 15.4507 15.4355 15.0024 16 15.0024C16.5645 15.0024 17.021 15.4507 17.021 16.0151C17.021 16.5796 16.5645 17.0361 16 17.0361Z"/></svg>