<svg xmlns="http://www.w3.org/2000/svg" width="32" height="32" fill="none" viewBox="0 0 32 32"><path fill="#007AFF" d="M16 24.4736C20.6318 24.4736 24.4668 20.6304 24.4668 16.0068C24.4668 11.375 20.6235 7.54004 15.9917 7.54004C11.3682 7.54004 7.5332 11.375 7.5332 16.0068C7.5332 20.6304 11.3765 24.4736 16 24.4736ZM11.999 17.252C11.3101 17.252 10.7456 16.6958 10.7456 15.9985C10.7456 15.3096 11.3101 14.7534 11.999 14.7534C12.6797 14.7534 13.2441 15.3096 13.2441 15.9985C13.2441 16.6958 12.688 17.252 11.999 17.252ZM15.9917 17.252C15.3027 17.252 14.7383 16.6958 14.7383 15.9985C14.7383 15.3096 15.3027 14.7534 15.9917 14.7534C16.6807 14.7534 17.2451 15.3096 17.2451 15.9985C17.2451 16.6958 16.6807 17.252 15.9917 17.252ZM19.9927 17.252C19.2954 17.252 18.7393 16.6958 18.7393 15.9985C18.7393 15.3096 19.2954 14.7534 19.9927 14.7534C20.6733 14.7534 21.2378 15.3096 21.2378 15.9985C21.2378 16.6958 20.6733 17.252 19.9927 17.252Z"/></svg>