<svg width="32" height="32" viewBox="0 0 32 32" fill="none" xmlns="http://www.w3.org/2000/svg">
<path d="M16 24.4736C20.6318 24.4736 24.4668 20.6304 24.4668 16.0068C24.4668 11.375 20.6235 7.54004 15.9917 7.54004C11.3682 7.54004 7.5332 11.375 7.5332 16.0068C7.5332 20.6304 11.3765 24.4736 16 24.4736ZM16 23.0625C12.082 23.0625 8.95264 19.9248 8.95264 16.0068C8.95264 12.0889 12.0737 8.95117 15.9917 8.95117C19.9097 8.95117 23.0474 12.0889 23.0557 16.0068C23.064 19.9248 19.918 23.0625 16 23.0625ZM12.1235 17.2188C12.7876 17.2188 13.3271 16.6709 13.3271 16.0068C13.3271 15.3428 12.7793 14.7949 12.1235 14.7949C11.4512 14.7949 10.9116 15.3428 10.9116 16.0068C10.9116 16.6709 11.4512 17.2188 12.1235 17.2188ZM15.9917 17.2188C16.6558 17.2188 17.2036 16.6709 17.2036 16.0068C17.2036 15.3428 16.6558 14.7949 15.9917 14.7949C15.3276 14.7949 14.7798 15.3428 14.7798 16.0068C14.7798 16.6709 15.3276 17.2188 15.9917 17.2188ZM19.8682 17.2188C20.5322 17.2188 21.0718 16.6709 21.0718 16.0068C21.0718 15.3428 20.5322 14.7949 19.8682 14.7949C19.1958 14.7949 18.6562 15.3428 18.6562 16.0068C18.6562 16.6709 19.1958 17.2188 19.8682 17.2188Z" fill="#007AFF"/>
</svg>
