<svg width="32" height="32" viewBox="0 0 32 32" fill="none" xmlns="http://www.w3.org/2000/svg">
<path d="M12.0176 16.0151C12.0176 15.0938 11.2705 14.355 10.3325 14.355C9.41943 14.355 8.67236 15.0938 8.67236 16.0151C8.67236 16.9365 9.41943 17.6753 10.3325 17.6753C11.2705 17.6753 12.0176 16.9365 12.0176 16.0151ZM18.1602 16.0151C18.1602 15.0938 17.4214 14.355 16.5 14.355C15.5869 14.355 14.8481 15.0938 14.8481 16.0151C14.8481 16.9365 15.5869 17.6753 16.5 17.6753C17.4214 17.6753 18.1602 16.9365 18.1602 16.0151ZM24.3276 16.0151C24.3276 15.0938 23.5889 14.355 22.6675 14.355C21.7295 14.355 20.9907 15.0938 20.9907 16.0151C20.9907 16.9365 21.7295 17.6753 22.6675 17.6753C23.5889 17.6753 24.3276 16.9365 24.3276 16.0151Z" fill="#007AFF"/>
</svg>
