<svg xmlns="http://www.w3.org/2000/svg" width="32" height="32" fill="none" viewBox="0 0 32 32"><path fill="#007AFF" d="M16 24.6147C16.1328 24.6147 16.3486 24.5649 16.5562 24.4487C21.2793 21.8008 22.8979 20.6802 22.8979 17.6504V11.3003C22.8979 10.4287 22.5244 10.1548 21.8188 9.85596C20.8394 9.44922 17.6768 8.31201 16.6973 7.97168C16.4731 7.89697 16.2324 7.84717 16 7.84717C15.7676 7.84717 15.5269 7.91357 15.311 7.97168C14.3315 8.25391 11.1606 9.45752 10.1812 9.85596C9.48389 10.1465 9.10205 10.4287 9.10205 11.3003V17.6504C9.10205 20.6802 10.729 21.7925 15.4438 24.4487C15.6597 24.5649 15.8672 24.6147 16 24.6147ZM16.332 9.2583C17.5854 9.75635 20.0176 10.6362 21.3042 11.0762C21.5283 11.1592 21.5781 11.2754 21.5781 11.5576V17.3433C21.5781 19.9082 20.3496 20.5806 16.5146 22.9131C16.3735 23.0044 16.2656 23.0542 16.1743 23.0791V9.2085C16.2241 9.2168 16.2739 9.2334 16.332 9.2583Z"/></svg>