<svg width="32" height="32" viewBox="0 0 32 32" fill="none" xmlns="http://www.w3.org/2000/svg">
<path d="M8.81982 23.6602H23.1802C24.9233 23.6602 25.7866 22.7969 25.7866 21.0869V10.9517C25.7866 9.2417 24.9233 8.37842 23.1802 8.37842H8.81982C7.08496 8.37842 6.21338 9.2334 6.21338 10.9517V21.0869C6.21338 22.8052 7.08496 23.6602 8.81982 23.6602ZM8.83643 22.3237C8.00635 22.3237 7.5498 21.8838 7.5498 21.0205V11.0181C7.5498 10.1548 8.00635 9.71484 8.83643 9.71484H18.1831V22.3237H8.83643ZM23.1636 9.71484C23.9854 9.71484 24.4502 10.1548 24.4502 11.0181V21.0205C24.4502 21.8838 23.9854 22.3237 23.1636 22.3237H19.4863V9.71484H23.1636ZM21.0801 12.7944H22.8564C23.1055 12.7944 23.3296 12.5703 23.3296 12.3296C23.3296 12.0806 23.1055 11.8647 22.8564 11.8647H21.0801C20.8228 11.8647 20.6069 12.0806 20.6069 12.3296C20.6069 12.5703 20.8228 12.7944 21.0801 12.7944ZM21.0801 14.9443H22.8564C23.1055 14.9443 23.3296 14.7202 23.3296 14.4712C23.3296 14.2222 23.1055 14.0146 22.8564 14.0146H21.0801C20.8228 14.0146 20.6069 14.2222 20.6069 14.4712C20.6069 14.7202 20.8228 14.9443 21.0801 14.9443ZM21.0801 17.0859H22.8564C23.1055 17.0859 23.3296 16.8784 23.3296 16.6294C23.3296 16.3804 23.1055 16.1646 22.8564 16.1646H21.0801C20.8228 16.1646 20.6069 16.3804 20.6069 16.6294C20.6069 16.8784 20.8228 17.0859 21.0801 17.0859Z" fill="#007AFF"/>
</svg>
