<svg xmlns="http://www.w3.org/2000/svg" width="32" height="32" fill="none" viewBox="0 0 32 32"><path fill="#007AFF" d="M8.81982 23.6602H23.1802C24.9233 23.6602 25.7866 22.7969 25.7866 21.0869V10.9517C25.7866 9.2417 24.9233 8.37842 23.1802 8.37842H8.81982C7.08496 8.37842 6.21338 9.2334 6.21338 10.9517V21.0869C6.21338 22.8052 7.08496 23.6602 8.81982 23.6602ZM8.83643 22.3237C8.00635 22.3237 7.5498 21.8838 7.5498 21.0205V11.0181C7.5498 10.1548 8.00635 9.71484 8.83643 9.71484H12.5386V22.3237H8.83643ZM23.1636 9.71484C23.9854 9.71484 24.4502 10.1548 24.4502 11.0181V21.0205C24.4502 21.8838 23.9854 22.3237 23.1636 22.3237H13.8418V9.71484H23.1636ZM10.9365 12.7944C11.1938 12.7944 11.4097 12.5703 11.4097 12.3296C11.4097 12.0806 11.1938 11.8647 10.9365 11.8647H9.16016C8.91113 11.8647 8.68701 12.0806 8.68701 12.3296C8.68701 12.5703 8.91113 12.7944 9.16016 12.7944H10.9365ZM10.9365 14.9443C11.1938 14.9443 11.4097 14.7202 11.4097 14.4712C11.4097 14.2222 11.1938 14.0146 10.9365 14.0146H9.16016C8.91113 14.0146 8.68701 14.2222 8.68701 14.4712C8.68701 14.7202 8.91113 14.9443 9.16016 14.9443H10.9365ZM10.9365 17.0859C11.1938 17.0859 11.4097 16.8784 11.4097 16.6294C11.4097 16.3804 11.1938 16.1646 10.9365 16.1646H9.16016C8.91113 16.1646 8.68701 16.3804 8.68701 16.6294C8.68701 16.8784 8.91113 17.0859 9.16016 17.0859H10.9365Z"/></svg>