<svg width="32" height="32" viewBox="0 0 32 32" fill="none" xmlns="http://www.w3.org/2000/svg">
<path d="M18.9717 12.9438C19.835 12.9438 20.5654 12.3877 20.8477 11.624H23.7197C24.0601 11.624 24.3589 11.3252 24.3589 10.9517C24.3589 10.5781 24.0601 10.2876 23.7197 10.2876H20.8477C20.5737 9.51562 19.835 8.95117 18.9717 8.95117C18.1084 8.95117 17.3613 9.51562 17.0874 10.2876H8.29688C7.92334 10.2876 7.63281 10.5781 7.63281 10.9517C7.63281 11.3252 7.92334 11.624 8.29688 11.624H17.0957C17.3696 12.3877 18.1084 12.9438 18.9717 12.9438ZM18.9717 11.9229C18.4238 11.9229 18.0005 11.4912 18.0005 10.9434C18.0005 10.3955 18.4238 9.97217 18.9717 9.97217C19.5195 9.97217 19.9429 10.3955 19.9429 10.9434C19.9429 11.4912 19.5195 11.9229 18.9717 11.9229ZM8.26367 15.3511C7.92334 15.3511 7.63281 15.6499 7.63281 16.0234C7.63281 16.397 7.92334 16.6875 8.26367 16.6875H11.2354C11.5093 17.4678 12.248 18.0239 13.1113 18.0239C13.9746 18.0239 14.7134 17.4678 14.9956 16.6875H23.6865C24.0601 16.6875 24.3589 16.397 24.3589 16.0234C24.3589 15.6499 24.0601 15.3511 23.6865 15.3511H14.9873C14.7134 14.5874 13.9746 14.0312 13.1113 14.0312C12.248 14.0312 11.5093 14.5874 11.2354 15.3511H8.26367ZM13.1113 16.9946C12.5718 16.9946 12.1401 16.563 12.1401 16.0234C12.1401 15.4756 12.5718 15.0522 13.1113 15.0522C13.6592 15.0522 14.0825 15.4756 14.0825 16.0234C14.0825 16.563 13.6592 16.9946 13.1113 16.9946ZM18.9717 23.0874C19.835 23.0874 20.5737 22.5312 20.8477 21.7593H23.7197C24.0601 21.7593 24.3589 21.4688 24.3589 21.0952C24.3589 20.7217 24.0601 20.4229 23.7197 20.4229H20.8477C20.5737 19.6509 19.835 19.103 18.9717 19.103C18.1084 19.103 17.3696 19.6509 17.0957 20.4229H8.29688C7.92334 20.4229 7.63281 20.7217 7.63281 21.0952C7.63281 21.4688 7.92334 21.7593 8.29688 21.7593H17.0874C17.3696 22.5312 18.1084 23.0874 18.9717 23.0874ZM18.9717 22.0664C18.4238 22.0664 18.0005 21.6348 18.0005 21.0952C18.0005 20.5391 18.4238 20.124 18.9717 20.124C19.5195 20.124 19.9429 20.5391 19.9429 21.0952C19.9429 21.6348 19.5195 22.0664 18.9717 22.0664Z" fill="#007AFF"/>
</svg>
