<svg width="32" height="32" viewBox="0 0 32 32" fill="none" xmlns="http://www.w3.org/2000/svg">
<path d="M16 24.4736C20.6318 24.4736 24.4668 20.6304 24.4668 16.0068C24.4668 11.375 20.6235 7.54004 15.9917 7.54004C11.3682 7.54004 7.5332 11.375 7.5332 16.0068C7.5332 20.6304 11.3765 24.4736 16 24.4736ZM16 23.0625C12.082 23.0625 8.95264 19.9248 8.95264 16.0068C8.95264 12.0889 12.0737 8.95117 15.9917 8.95117C19.9097 8.95117 23.0474 12.0889 23.0557 16.0068C23.064 19.9248 19.918 23.0625 16 23.0625ZM13.5928 15.2515C14.0825 15.2515 14.4893 14.8198 14.4893 14.2139C14.4893 13.6079 14.0825 13.1763 13.5928 13.1763C13.103 13.1763 12.7046 13.6079 12.7046 14.2139C12.7046 14.8198 13.103 15.2515 13.5928 15.2515ZM18.4404 15.2515C18.9302 15.2515 19.3369 14.8198 19.3369 14.2139C19.3369 13.6079 18.9302 13.1763 18.4404 13.1763C17.959 13.1763 17.5522 13.6079 17.5522 14.2139C17.5522 14.8198 17.959 15.2515 18.4404 15.2515ZM13.0947 18.4639C13.0947 19.0117 14.2568 20.1655 15.9917 20.1655C17.7266 20.1655 18.8887 19.0117 18.8887 18.4639C18.8887 18.2646 18.6978 18.1733 18.5234 18.2563C17.9175 18.5884 17.1953 18.9619 15.9917 18.9619C14.7881 18.9619 14.0659 18.5801 13.4683 18.2563C13.2856 18.1733 13.0947 18.2646 13.0947 18.4639Z" fill="#007AFF"/>
</svg>
