<svg width="32" height="32" viewBox="0 0 32 32" fill="none" xmlns="http://www.w3.org/2000/svg">
<path d="M7.62451 8.48633H24.3672C24.7075 8.48633 24.9482 8.2207 24.9482 7.85547C24.9482 7.49023 24.7075 7.23291 24.3672 7.23291H7.62451C7.27588 7.23291 7.04346 7.49023 7.04346 7.85547C7.04346 8.2207 7.27588 8.48633 7.62451 8.48633ZM8.62891 15.1934H10.5049C11.5591 15.1934 12.0903 14.6621 12.0903 13.5664V11.7651C12.0903 10.6694 11.5591 10.1465 10.5049 10.1465H8.62891C7.57471 10.1465 7.04346 10.6694 7.04346 11.7651V13.5664C7.04346 14.6621 7.57471 15.1934 8.62891 15.1934ZM15.0537 15.1934H16.9297C17.9839 15.1934 18.5151 14.6621 18.5151 13.5664V11.7651C18.5151 10.6694 17.9839 10.1465 16.9297 10.1465H15.0537C13.9995 10.1465 13.4683 10.6694 13.4683 11.7651V13.5664C13.4683 14.6621 13.9995 15.1934 15.0537 15.1934ZM21.4785 15.1934H23.3462C24.4004 15.1934 24.9316 14.6621 24.9316 13.5664V11.7651C24.9316 10.6694 24.4004 10.1465 23.3462 10.1465H21.4785C20.416 10.1465 19.8848 10.6694 19.8848 11.7651V13.5664C19.8848 14.6621 20.416 15.1934 21.4785 15.1934ZM8.64551 14.0229C8.35498 14.0229 8.21387 13.8735 8.21387 13.5664V11.7568C8.21387 11.4663 8.35498 11.3169 8.64551 11.3169H10.48C10.7705 11.3169 10.9199 11.4663 10.9199 11.7568V13.5664C10.9199 13.8735 10.7705 14.0229 10.48 14.0229H8.64551ZM15.0703 14.0229C14.7798 14.0229 14.6387 13.8735 14.6387 13.5664V11.7568C14.6387 11.4663 14.7798 11.3169 15.0703 11.3169H16.9131C17.2036 11.3169 17.3447 11.4663 17.3447 11.7568V13.5664C17.3447 13.8735 17.2036 14.0229 16.9131 14.0229H15.0703ZM21.4868 14.0229C21.1963 14.0229 21.0552 13.8735 21.0552 13.5664V11.7568C21.0552 11.4663 21.1963 11.3169 21.4868 11.3169H23.3296C23.6201 11.3169 23.7612 11.4663 23.7612 11.7568V13.5664C23.7612 13.8735 23.6201 14.0229 23.3296 14.0229H21.4868ZM7.62451 18.0156H24.3672C24.7075 18.0156 24.9482 17.7583 24.9482 17.3931C24.9482 17.0278 24.7075 16.7622 24.3672 16.7622H7.62451C7.27588 16.7622 7.04346 17.0278 7.04346 17.3931C7.04346 17.7583 7.27588 18.0156 7.62451 18.0156ZM8.63721 24.7227H10.5132C11.5674 24.7227 12.0986 24.1997 12.0986 23.104V21.2944C12.0986 20.1987 11.5674 19.6758 10.5132 19.6758H8.63721C7.58301 19.6758 7.05176 20.1987 7.05176 21.2944V23.104C7.05176 24.1997 7.58301 24.7227 8.63721 24.7227ZM15.062 24.7227H16.938C17.9922 24.7227 18.5234 24.1997 18.5234 23.104V21.2944C18.5234 20.1987 17.9922 19.6758 16.938 19.6758H15.062C14.0078 19.6758 13.4766 20.1987 13.4766 21.2944V23.104C13.4766 24.1997 14.0078 24.7227 15.062 24.7227ZM21.4868 24.7227H23.3545C24.417 24.7227 24.9482 24.1997 24.9482 23.104V21.2944C24.9482 20.1987 24.417 19.6758 23.3545 19.6758H21.4868C20.4326 19.6758 19.9014 20.1987 19.9014 21.2944V23.104C19.9014 24.1997 20.4326 24.7227 21.4868 24.7227ZM8.65381 23.5522C8.36328 23.5522 8.22217 23.4028 8.22217 23.104V21.3027C8.22217 20.9956 8.36328 20.8462 8.65381 20.8462H10.4883C10.7788 20.8462 10.9282 20.9956 10.9282 21.3027V23.104C10.9282 23.4028 10.7788 23.5522 10.4883 23.5522H8.65381ZM15.0869 23.5522C14.7881 23.5522 14.647 23.4028 14.647 23.104V21.3027C14.647 20.9956 14.7881 20.8462 15.0869 20.8462H16.9214C17.2119 20.8462 17.353 20.9956 17.353 21.3027V23.104C17.353 23.4028 17.2119 23.5522 16.9214 23.5522H15.0869ZM21.4951 23.5522C21.2129 23.5522 21.0718 23.4028 21.0718 23.104V21.3027C21.0718 20.9956 21.2129 20.8462 21.4951 20.8462H23.3379C23.6367 20.8462 23.7778 20.9956 23.7778 21.3027V23.104C23.7778 23.4028 23.6367 23.5522 23.3379 23.5522H21.4951Z" fill="#007AFF"/>
</svg>
