<svg width="32" height="32" viewBox="0 0 32 32" fill="none" xmlns="http://www.w3.org/2000/svg">
<path d="M19.9761 18.1733V9.67334C19.9761 9.13379 19.5859 8.69385 19.0215 8.69385C18.6313 8.69385 18.374 8.86816 17.9424 9.2666L14.6055 12.3628C14.564 12.396 14.5142 12.4292 14.4644 12.4292H14.2153L19.9761 18.1733ZM22.8398 24.208C23.0889 24.457 23.5039 24.457 23.7446 24.208C23.9937 23.9507 23.9937 23.5522 23.7446 23.3032L9.53369 9.09229C9.28467 8.84326 8.86963 8.84326 8.62061 9.09229C8.37158 9.33301 8.37158 9.75635 8.62061 9.99707L22.8398 24.208ZM11.7832 19.3853H14.1489C14.2319 19.3853 14.2983 19.4102 14.3564 19.46L17.9424 22.8135C18.3325 23.1787 18.6479 23.3364 19.0298 23.3364C19.4614 23.3364 19.7852 23.1206 19.918 22.6475L10.4551 13.1929C10.2144 13.4668 10.0898 13.8818 10.0898 14.438V17.6172C10.0898 18.8208 10.6543 19.3853 11.7832 19.3853Z" fill="#007AFF"/>
</svg>
