<svg xmlns="http://www.w3.org/2000/svg" width="32" height="32" fill="none" viewBox="0 0 32 32"><path fill="#007AFF" d="M10.5796 7.78906H21.4287C21.3789 7.0835 20.9805 6.71826 20.2168 6.71826H11.7915C11.0278 6.71826 10.6294 7.0835 10.5796 7.78906ZM8.95264 10.0884H23.0557C22.9312 9.33301 22.5742 8.91797 21.7441 8.91797H10.2642C9.43408 8.91797 9.07715 9.33301 8.95264 10.0884ZM9.70801 25.395H22.292C24.0269 25.395 24.8984 24.5317 24.8984 22.8218V13.998C24.8984 12.2964 24.0269 11.4331 22.292 11.4331H9.70801C7.96484 11.4331 7.10156 12.2881 7.10156 13.998V22.8218C7.10156 24.5317 7.96484 25.395 9.70801 25.395ZM9.72461 24.0586C8.89453 24.0586 8.43799 23.6104 8.43799 22.7471V14.0728C8.43799 13.2095 8.89453 12.7695 9.72461 12.7695H22.2754C23.0889 12.7695 23.562 13.2095 23.562 14.0728V22.7471C23.562 23.6104 23.0889 24.0586 22.2754 24.0586H9.72461Z"/></svg>