<svg width="32" height="32" viewBox="0 0 32 32" fill="none" xmlns="http://www.w3.org/2000/svg">
<path d="M10.5713 7.37402H21.4204C21.3706 6.67676 20.9722 6.30322 20.2085 6.30322H11.7832C11.0195 6.30322 10.6211 6.67676 10.5713 7.37402ZM8.94434 9.67334H23.0474C22.9229 8.91797 22.5659 8.50293 21.7358 8.50293H10.2559C9.42578 8.50293 9.06885 8.91797 8.94434 9.67334ZM22.2837 11.0181H9.69971C7.95654 11.0181 7.09326 11.873 7.09326 13.5913V16.8535C7.31738 16.8286 7.5415 16.812 7.75732 16.812C7.98145 16.812 8.20557 16.8286 8.42969 16.8535V13.6577C8.42969 12.7944 8.88623 12.3545 9.71631 12.3545H22.2671C23.0806 12.3545 23.5537 12.7944 23.5537 13.6577V22.332C23.5537 23.1953 23.0806 23.6436 22.2671 23.6436H12.8789C12.7544 24.1167 12.5552 24.5649 12.2979 24.98H22.2837C24.0186 24.98 24.8901 24.1167 24.8901 22.4067V13.5913C24.8901 11.8813 24.0186 11.0181 22.2837 11.0181ZM7.76562 26.3911C10.0483 26.3911 11.9824 24.4736 11.9824 22.1743C11.9824 19.8584 10.0815 17.9575 7.76562 17.9575C5.44971 17.9575 3.54883 19.8584 3.54883 22.1743C3.54883 24.4902 5.44971 26.3911 7.76562 26.3911ZM7.76562 22.4233C7.00195 22.4233 6.4126 21.7842 6.4126 20.9292C6.4126 20.1489 7.00195 19.4932 7.76562 19.4932C8.521 19.4932 9.11865 20.1489 9.11865 20.9292C9.11865 21.7842 8.5293 22.4233 7.76562 22.4233ZM7.76562 25.4199C6.55371 25.4199 5.59912 24.7891 5.3252 24.2163V24.1748C5.59912 23.6602 6.4458 23.0874 7.76562 23.0874C9.08545 23.0874 9.93213 23.6602 10.1978 24.1831V24.2163C9.92383 24.7974 8.97754 25.4199 7.76562 25.4199Z" fill="#007AFF"/>
</svg>
