<svg xmlns="http://www.w3.org/2000/svg" width="32" height="32" fill="none" viewBox="0 0 32 32"><path fill="#007AFF" d="M10.314 24.0752C10.6543 24.3408 11.0859 24.2495 11.6006 23.876L15.9917 20.647L20.3911 23.876C20.9058 24.2495 21.3291 24.3408 21.6777 24.0752C22.0181 23.8179 22.0928 23.3945 21.8853 22.7886L20.1504 17.6255L24.583 14.438C25.0977 14.0728 25.3052 13.6909 25.1724 13.2759C25.0396 12.8774 24.6494 12.6782 24.0103 12.6865L18.5732 12.7197L16.9214 7.53174C16.7222 6.91748 16.4233 6.61035 15.9917 6.61035C15.5684 6.61035 15.2695 6.91748 15.0703 7.53174L13.4185 12.7197L7.98145 12.6865C7.34229 12.6782 6.95215 12.8774 6.81934 13.2759C6.67822 13.6909 6.89404 14.0728 7.40869 14.438L11.8413 17.6255L10.1064 22.7886C9.89893 23.3945 9.97363 23.8179 10.314 24.0752Z"/></svg>