<svg width="32" height="32" viewBox="0 0 32 32" fill="none" xmlns="http://www.w3.org/2000/svg">
<path d="M10.314 24.0752C10.6543 24.3408 11.0859 24.2495 11.6006 23.876L15.9917 20.647L20.3911 23.876C20.9058 24.2495 21.3291 24.3408 21.6777 24.0752C22.0181 23.8179 22.0928 23.3945 21.8853 22.7886L20.1504 17.6255L24.583 14.438C25.0977 14.0728 25.3052 13.6909 25.1724 13.2759C25.0396 12.8774 24.6494 12.6782 24.0103 12.6865L18.5732 12.7197L16.9214 7.53174C16.7222 6.91748 16.4233 6.61035 15.9917 6.61035C15.5684 6.61035 15.2695 6.91748 15.0703 7.53174L13.4185 12.7197L7.98145 12.6865C7.34229 12.6782 6.95215 12.8774 6.81934 13.2759C6.67822 13.6909 6.89404 14.0728 7.40869 14.438L11.8413 17.6255L10.1064 22.7886C9.89893 23.3945 9.97363 23.8179 10.314 24.0752ZM11.5093 22.4316C11.4927 22.415 11.501 22.4067 11.5093 22.3569L13.1611 17.6089C13.2773 17.2852 13.2109 17.0278 12.9204 16.8286L8.78662 13.9731C8.74512 13.9482 8.73682 13.9316 8.74512 13.9067C8.75342 13.8818 8.77002 13.8818 8.81982 13.8818L13.8418 13.9731C14.1821 13.9814 14.3979 13.8403 14.5059 13.5L15.9502 8.69385C15.9585 8.64404 15.9751 8.62744 15.9917 8.62744C16.0166 8.62744 16.0332 8.64404 16.0415 8.69385L17.4858 13.5C17.5938 13.8403 17.8096 13.9814 18.1499 13.9731L23.1719 13.8818C23.2217 13.8818 23.2383 13.8818 23.2466 13.9067C23.2549 13.9316 23.2383 13.9482 23.2051 13.9731L19.0713 16.8286C18.7808 17.0278 18.7144 17.2852 18.8306 17.6089L20.4824 22.3569C20.4907 22.4067 20.499 22.415 20.4824 22.4316C20.4658 22.4565 20.4409 22.4399 20.4077 22.415L16.415 19.3687C16.1494 19.1611 15.8423 19.1611 15.5767 19.3687L11.584 22.415C11.5508 22.4399 11.5259 22.4565 11.5093 22.4316Z" fill="#007AFF"/>
</svg>
