<svg xmlns="http://www.w3.org/2000/svg" width="32" height="32" fill="none" viewBox="0 0 32 32"><path fill="#007AFF" d="M16 10.2876C16.3735 10.2793 16.6724 9.97217 16.6724 9.54053V7.49854C16.6724 7.06689 16.3735 6.75977 16 6.75977C15.6265 6.75977 15.3276 7.06689 15.3276 7.49854V9.54053C15.3276 9.97217 15.6265 10.2959 16 10.2876ZM20.2832 12.0557C20.5405 12.313 20.9805 12.313 21.2876 12.0142L22.7319 10.5698C23.0391 10.2627 23.0308 9.83105 22.7651 9.56543C22.5161 9.2998 22.0845 9.2998 21.769 9.60693L20.3247 11.0513C20.0259 11.3584 20.0176 11.7983 20.2832 12.0557ZM11.7168 12.0557C11.9741 11.79 11.9741 11.3584 11.667 11.0513L10.2227 9.60693C9.91553 9.2998 9.49219 9.30811 9.22656 9.56543C8.96094 9.82275 8.96094 10.2627 9.26807 10.5698L10.7124 12.0142C11.0195 12.313 11.4595 12.3213 11.7168 12.0557ZM8.19727 20.0244H25.0562C25.3467 20.0244 25.5791 19.792 25.5791 19.4932C25.5791 19.1943 25.3467 18.9702 25.0562 18.9702H19.6772C20.2168 18.2314 20.5405 17.3184 20.5405 16.3389C20.5405 13.8486 18.4736 11.79 16 11.79C13.5181 11.79 11.4595 13.8486 11.4595 16.3389C11.4595 17.3184 11.7832 18.2314 12.3228 18.9702H8.19727C7.89844 18.9702 7.67432 19.1943 7.67432 19.4932C7.67432 19.792 7.89844 20.0244 8.19727 20.0244ZM12.7959 16.3389C12.7959 14.5791 14.2402 13.1348 16 13.1348C17.7598 13.1348 19.2041 14.5791 19.2041 16.3389C19.2041 17.4346 18.6396 18.4058 17.7847 18.9702H14.207C13.3604 18.4058 12.7959 17.4346 12.7959 16.3389ZM7.15967 16.8037H9.20166C9.6333 16.8037 9.95703 16.4966 9.94873 16.123C9.94043 15.7578 9.6333 15.4507 9.20166 15.4507H7.15967C6.72803 15.4507 6.4209 15.7578 6.4209 16.123C6.4209 16.4966 6.72803 16.8037 7.15967 16.8037ZM22.7983 16.8037H24.8403C25.272 16.8037 25.5791 16.4966 25.5791 16.123C25.5791 15.7578 25.272 15.459 24.8403 15.4507H22.7983C22.3667 15.4507 22.043 15.7578 22.0513 16.123C22.0596 16.4966 22.3667 16.8037 22.7983 16.8037ZM6.94385 23.2119H23.8027C24.0933 23.2119 24.3257 22.9878 24.3257 22.689C24.3257 22.3901 24.0933 22.1577 23.8027 22.1577H6.94385C6.65332 22.1577 6.4209 22.3901 6.4209 22.689C6.4209 22.9878 6.65332 23.2119 6.94385 23.2119ZM8.19727 26.3994H25.0562C25.3467 26.3994 25.5791 26.1753 25.5791 25.8765C25.5791 25.5776 25.3467 25.3535 25.0562 25.3535H8.19727C7.89844 25.3535 7.67432 25.5776 7.67432 25.8765C7.67432 26.1753 7.89844 26.3994 8.19727 26.3994Z"/></svg>