<svg xmlns="http://www.w3.org/2000/svg" width="32" height="32" fill="none" viewBox="0 0 32 32"><path fill="#007AFF" d="M8.81982 23.6602H23.1802C24.9233 23.6602 25.7866 22.7969 25.7866 21.0869V10.9517C25.7866 9.2417 24.9233 8.37842 23.1802 8.37842H8.81982C7.08496 8.37842 6.21338 9.2334 6.21338 10.9517V21.0869C6.21338 22.8052 7.08496 23.6602 8.81982 23.6602ZM7.5498 11.0181C7.5498 10.1548 8.00635 9.71484 8.83643 9.71484H15.3359V13.0269H7.5498V11.0181ZM23.1636 9.71484C23.9854 9.71484 24.4502 10.1548 24.4502 11.0181V13.0269H16.6724V9.71484H23.1636ZM7.5498 17.6753V14.3633H15.3359V17.6753H7.5498ZM16.6724 17.6753V14.3633H24.4502V17.6753H16.6724ZM8.83643 22.3237C8.00635 22.3237 7.5498 21.8838 7.5498 21.0205V19.0117H15.3359V22.3237H8.83643ZM24.4502 21.0205C24.4502 21.8838 23.9854 22.3237 23.1636 22.3237H16.6724V19.0117H24.4502V21.0205Z"/></svg>