<svg xmlns="http://www.w3.org/2000/svg" width="32" height="32" fill="none" viewBox="0 0 32 32"><path fill="#007AFF" d="M11.3433 22.7305H11.7334L9.90723 25.6606C9.69141 26.0093 9.89062 26.3828 10.2808 26.3828H10.7456C10.978 26.3828 11.1025 26.2998 11.2271 26.1006L11.7085 25.3369H20.3247L20.7979 26.1006C20.9224 26.2998 21.0552 26.3828 21.2876 26.3828H21.7524C22.1343 26.3828 22.3086 26.001 22.1011 25.6606L20.2998 22.7305H20.6567C22.1343 22.7305 22.981 21.7178 22.981 20.2983V14.3467C22.981 12.1387 22.6987 9.98047 22.3584 8.61084C22.0181 7.19971 21.0635 6.14551 19.5942 5.98779C19.063 5.92969 17.6768 5.82178 16 5.82178C14.3232 5.82178 12.9287 5.92969 12.4058 5.98779C10.9282 6.14551 9.98193 7.19971 9.6416 8.61084C9.30127 9.98047 9.01904 12.1387 9.01904 14.3467V20.2983C9.01904 21.7178 9.86572 22.7305 11.3433 22.7305ZM13.875 8.40332C13.5679 8.40332 13.3687 8.1958 13.3687 7.88867C13.3687 7.58154 13.5679 7.39062 13.875 7.39062H18.1167C18.4321 7.39062 18.6313 7.58154 18.6313 7.88867C18.6313 8.1958 18.4321 8.40332 18.1167 8.40332H13.875ZM16 17.252C14.0742 17.2354 12.3062 17.1523 11.4097 17.0444C10.9116 16.978 10.7207 16.6543 10.7207 16.1895V14.2803C10.7207 12.6035 10.9033 11.2505 11.0361 10.6611C11.1191 10.2959 11.3433 10.0303 11.7002 9.98877C12.6382 9.87256 13.792 9.81445 16 9.80615C18.1997 9.79785 19.3535 9.87256 20.2666 9.98877C20.6401 10.0303 20.8726 10.2959 20.9556 10.6611C21.0884 11.2505 21.271 12.6035 21.271 14.2803V16.1895C21.271 16.6626 21.0801 16.9863 20.582 17.0444C19.2456 17.1855 17.4775 17.252 16 17.252ZM19.8433 20.9956C19.1875 20.9956 18.6895 20.5059 18.6895 19.8501C18.6895 19.2026 19.1875 18.7046 19.8433 18.7046C20.4907 18.7046 20.9888 19.2026 20.9888 19.8501C20.9888 20.5059 20.4824 20.9956 19.8433 20.9956ZM12.1401 20.9873C11.4844 20.9873 11.0112 20.5142 11.0112 19.8501C11.0112 19.1943 11.4844 18.7129 12.1401 18.7129C12.8042 18.7129 13.2856 19.1943 13.2856 19.8501C13.2856 20.5142 12.7876 20.9873 12.1401 20.9873ZM12.4805 24.0918L13.3188 22.7305H18.7144L19.5527 24.0918H12.4805Z"/></svg>