<svg xmlns="http://www.w3.org/2000/svg" width="32" height="32" fill="none" viewBox="0 0 32 32"><path fill="#007AFF" d="M12.6899 24.5151H20.3018C21.4888 24.5151 22.2856 23.7432 22.3438 22.5562L22.9165 10.4868H23.9126C24.2529 10.4868 24.5352 10.1963 24.5352 9.85596C24.5352 9.51562 24.2529 9.2334 23.9126 9.2334H20.1191V7.96338C20.1191 6.75977 19.3389 6.0293 18.0605 6.0293H14.9146C13.6362 6.0293 12.856 6.75977 12.856 7.96338V9.2334H9.0791C8.74707 9.2334 8.45654 9.51562 8.45654 9.85596C8.45654 10.2046 8.74707 10.4868 9.0791 10.4868H10.0752L10.6479 22.5645C10.7061 23.7515 11.4946 24.5151 12.6899 24.5151ZM14.1758 8.04639C14.1758 7.57324 14.4995 7.26611 14.9976 7.26611H17.9775C18.4756 7.26611 18.7993 7.57324 18.7993 8.04639V9.2334H14.1758V8.04639ZM12.8062 23.2617C12.333 23.2617 11.9761 22.9048 11.9512 22.415L11.3701 10.4868H21.5801L21.0405 22.415C21.0156 22.9131 20.6587 23.2617 20.1689 23.2617H12.8062ZM14.0347 21.8423C14.3501 21.8423 14.5576 21.6431 14.5493 21.3525L14.3003 12.4707C14.292 12.1802 14.0762 11.9893 13.7773 11.9893C13.4619 11.9893 13.2544 12.1885 13.2627 12.479L13.52 21.3525C13.5283 21.6514 13.7275 21.8423 14.0347 21.8423ZM16.5 21.8423C16.8154 21.8423 17.0312 21.6431 17.0312 21.3525V12.479C17.0312 12.1885 16.8154 11.9893 16.5 11.9893C16.1846 11.9893 15.9604 12.1885 15.9604 12.479V21.3525C15.9604 21.6431 16.1846 21.8423 16.5 21.8423ZM18.957 21.8423C19.2559 21.8423 19.4634 21.6514 19.4717 21.3525L19.729 12.479C19.7373 12.1885 19.5215 11.9893 19.2061 11.9893C18.9155 11.9893 18.6997 12.1802 18.6914 12.479L18.4424 21.3525C18.4341 21.6431 18.6416 21.8423 18.957 21.8423Z"/></svg>