<svg width="32" height="32" viewBox="0 0 32 32" fill="none" xmlns="http://www.w3.org/2000/svg">
<path d="M8.81982 23.104H23.1802C24.9233 23.104 25.7866 22.2407 25.7866 20.5308V15.6167C25.7866 14.8696 25.687 14.4961 25.3135 14.0396L22.4497 10.4951C21.4785 9.2998 21.0469 8.93457 19.5693 8.93457H12.4307C10.9531 8.93457 10.5298 9.2998 9.55859 10.4951L6.68652 14.0396C6.32129 14.4961 6.21338 14.8696 6.21338 15.6167V20.5308C6.21338 22.249 7.08496 23.104 8.81982 23.104ZM16 17.7998C14.8296 17.7998 14.0742 16.7788 14.0742 15.8159V15.791C14.0742 15.4424 13.8667 15.1187 13.4351 15.1187H7.96484C7.69092 15.1187 7.63281 14.8779 7.77393 14.7036L10.8535 10.8188C11.2603 10.3042 11.7251 10.0967 12.3311 10.0967H19.6689C20.2749 10.0967 20.7397 10.3042 21.1465 10.8188L24.2344 14.7036C24.3672 14.8779 24.3174 15.1187 24.0435 15.1187H18.5649C18.1333 15.1187 17.9341 15.4424 17.9341 15.791V15.8159C17.9341 16.7788 17.1787 17.7998 16 17.7998ZM8.83643 21.7676C8.00635 21.7676 7.5498 21.3276 7.5498 20.4644V16.3306H12.8125C13.0117 17.8828 14.3149 19.0283 16 19.0283C17.6851 19.0283 18.9883 17.8745 19.1875 16.3306H24.4502V20.4644C24.4502 21.3276 23.9854 21.7676 23.1636 21.7676H8.83643Z" fill="#007AFF"/>
</svg>
