<svg xmlns="http://www.w3.org/2000/svg" width="32" height="32" fill="none" viewBox="0 0 32 32"><path fill="#007AFF" d="M7.02686 22.1079C7.4668 22.1079 7.68262 21.9419 7.84033 21.4854L8.91113 18.5469H13.8086L14.8794 21.4854C15.0371 21.9419 15.2529 22.1079 15.6846 22.1079C16.1245 22.1079 16.4067 21.8423 16.4067 21.4272C16.4067 21.2861 16.3818 21.1616 16.3154 20.979L12.4224 10.6196C12.2314 10.105 11.8911 9.85596 11.3599 9.85596C10.8452 9.85596 10.4966 10.105 10.314 10.6113L6.4209 20.9873C6.35449 21.1699 6.32959 21.2944 6.32959 21.4355C6.32959 21.8506 6.59521 22.1079 7.02686 22.1079ZM9.31787 17.2935L11.335 11.707H11.3765L13.3936 17.2935H9.31787ZM21.271 22.1909C22.6904 22.1909 23.7695 21.5186 24.2759 20.3232H24.3257V21.502C24.3257 21.9336 24.5996 22.1992 24.9897 22.1992C25.3882 22.1992 25.6621 21.9253 25.6621 21.4937V13.6245C25.6621 13.2012 25.3882 12.9023 24.9897 12.9023C24.5996 12.9023 24.3257 13.2012 24.3257 13.6245V14.7949H24.2759C23.7695 13.6245 22.6406 12.9189 21.271 12.9189C19.0215 12.9189 17.519 14.7866 17.519 17.5591C17.519 20.3481 19.0215 22.1909 21.271 22.1909ZM21.603 20.979C19.9844 20.979 18.9551 19.6592 18.9551 17.5591C18.9551 15.459 19.9844 14.1309 21.603 14.1309C23.2217 14.1309 24.2842 15.5005 24.2842 17.5757C24.2842 19.6509 23.2383 20.979 21.603 20.979Z"/></svg>