<svg width="32" height="32" viewBox="0 0 32 32" fill="none" xmlns="http://www.w3.org/2000/svg">
<path d="M16 24.4736C20.6235 24.4736 24.4668 20.6304 24.4668 16.0068C24.4668 11.375 20.6152 7.54004 15.9917 7.54004C11.667 7.54004 8.05615 10.8687 7.59131 15.0771C7.99805 15.0024 8.5874 14.9692 9.02734 15.019C9.48389 11.5742 12.4058 8.95117 15.9917 8.95117C19.9014 8.95117 23.0557 12.0889 23.0557 16.0068C23.0557 17.833 22.375 19.4932 21.2378 20.73C20.4243 19.7588 18.4985 18.8291 15.9917 18.8291C15.1948 18.8291 14.4644 18.9287 13.8086 19.0864C13.9082 19.4849 13.958 19.9165 13.958 20.3398C13.958 21.6348 13.4849 22.8384 12.688 23.7764C13.709 24.2246 14.8296 24.4736 16 24.4736ZM15.9917 17.418C17.5854 17.4346 18.8389 16.0732 18.8389 14.2886C18.8389 12.6118 17.5771 11.2256 15.9917 11.2256C14.3979 11.2256 13.1279 12.6118 13.1445 14.2886C13.1528 16.0732 14.3896 17.4014 15.9917 17.418ZM8.604 24.5649C10.8867 24.5649 12.8208 22.6558 12.8208 20.3481C12.8208 18.0322 10.9199 16.1313 8.604 16.1313C6.29639 16.1313 4.38721 18.0405 4.38721 20.3481C4.38721 22.6724 6.29639 24.5649 8.604 24.5649ZM8.604 23.0874C8.31348 23.0874 8.06445 22.8882 8.06445 22.5728V20.8545H6.4707C6.19678 20.8545 5.96436 20.6221 5.96436 20.3481C5.96436 20.0659 6.19678 19.8335 6.4707 19.8335H8.06445V18.1152C8.06445 17.8081 8.31348 17.6089 8.604 17.6089C8.89453 17.6089 9.15186 17.8081 9.15186 18.1152V19.8335H10.7373C11.0195 19.8335 11.2437 20.0659 11.2437 20.3481C11.2437 20.6221 11.0195 20.8545 10.7373 20.8545H9.15186V22.5728C9.15186 22.8882 8.89453 23.0874 8.604 23.0874Z" fill="#007AFF"/>
</svg>
