<svg width="32" height="32" viewBox="0 0 32 32" fill="none" xmlns="http://www.w3.org/2000/svg">
<path d="M9.6499 22.8384H18.3242C20.3496 22.8384 21.5615 21.6597 21.5615 19.6426V18.4971L24.6992 21.1533C25.0312 21.4272 25.3965 21.6182 25.7368 21.6182C26.4673 21.6182 26.9487 21.0786 26.9487 20.3066V11.7236C26.9487 10.9517 26.4673 10.4121 25.7368 10.4121C25.3965 10.4121 25.0312 10.603 24.6992 10.877L21.5615 13.5332V12.396C21.5615 10.3706 20.3496 9.19189 18.3242 9.19189H9.6499C7.71582 9.19189 6.4126 10.3706 6.4126 12.396V19.6426C6.4126 21.6597 7.62451 22.8384 9.6499 22.8384ZM9.88232 21.5933C8.521 21.5933 7.74902 20.8877 7.74902 19.4434V12.5869C7.74902 11.1509 8.521 10.4453 9.88232 10.4453H18.0918C19.4448 10.4453 20.2251 11.1509 20.2251 12.5869V19.4434C20.2251 20.8877 19.4448 21.5933 18.0918 21.5933H9.88232ZM25.3218 20.0244L21.5615 16.9199V15.1104L25.3218 12.0059C25.3965 11.9478 25.4463 11.9146 25.521 11.9146C25.6206 11.9146 25.6621 11.9893 25.6621 12.1055V19.9248C25.6621 20.041 25.6206 20.124 25.521 20.124C25.4463 20.124 25.3965 20.0742 25.3218 20.0244Z" fill="#007AFF"/>
</svg>
