<svg width="32" height="32" viewBox="0 0 32 32" fill="none" xmlns="http://www.w3.org/2000/svg">
<path d="M18.1416 8.2124L16.5977 5.90479C16.3237 5.48145 15.7261 5.49805 15.4521 5.90479L13.8833 8.2124C13.5181 8.74365 13.7173 9.30811 14.3564 9.30811H17.6685C18.291 9.30811 18.4819 8.72705 18.1416 8.2124ZM10.7539 21.4438H21.2461C22.9893 21.4438 23.8525 20.5806 23.8525 18.8706V13.1514C23.8525 11.4414 22.9893 10.5781 21.2461 10.5781H10.7539C9.01074 10.5781 8.14746 11.4331 8.14746 13.1514V18.8706C8.14746 20.5889 9.01074 21.4438 10.7539 21.4438ZM10.7705 20.1074C9.94043 20.1074 9.48389 19.6592 9.48389 18.8042V13.2178C9.48389 12.3545 9.94043 11.9146 10.7705 11.9146H21.2295C22.0513 11.9146 22.5161 12.3545 22.5161 13.2178V18.8042C22.5161 19.6592 22.0513 20.1074 21.2295 20.1074H10.7705ZM18.1416 23.8013C18.4819 23.2949 18.291 22.7139 17.6685 22.7139H14.3564C13.7173 22.7139 13.5181 23.27 13.8833 23.8013L15.4521 26.1172C15.7261 26.5239 16.3237 26.5322 16.5977 26.1172L18.1416 23.8013Z" fill="#007AFF"/>
</svg>
