<svg width="32" height="32" viewBox="0 0 32 32" fill="none" xmlns="http://www.w3.org/2000/svg">
<path d="M6.4126 18.6172H8.84473C9.06885 18.6172 9.27637 18.4844 9.33447 18.2437L9.5752 17.1729L10.7456 22.5933C10.8535 23.0913 11.667 23.0913 11.7417 22.585L12.7544 15.9277L13.9414 26.1958C14.0161 26.8101 14.896 26.8018 14.9458 26.1958L16.0332 13.9521L17.1289 26.1875C17.1787 26.8101 18.0586 26.8101 18.1333 26.1875L19.3203 15.9277L20.333 22.5933C20.416 23.0996 21.2212 23.0996 21.3291 22.5933L22.4829 17.2393L22.7402 18.2437C22.8149 18.5176 23.0059 18.6172 23.23 18.6172H25.5874C25.9194 18.6172 26.1768 18.3599 26.1768 18.0361C26.1768 17.7124 25.9194 17.4468 25.5874 17.4468H23.5952L22.9312 14.8735C22.7817 14.3174 22.0596 14.3174 21.9351 14.8735L20.9141 19.7212L19.7437 12.0762C19.6523 11.4702 18.814 11.4868 18.7393 12.0845L17.6934 21.1572L16.5479 8.20801C16.4897 7.58545 15.585 7.58545 15.5269 8.20801L14.3813 21.1572L13.3354 12.0845C13.2607 11.4702 12.4224 11.4702 12.3311 12.0762L11.1606 19.7212L10.1396 14.8735C10.0234 14.3589 9.28467 14.3589 9.14355 14.8735L8.47949 17.4468H6.4126C6.07227 17.4468 5.81494 17.7124 5.81494 18.0361C5.81494 18.3599 6.07227 18.6172 6.4126 18.6172Z" fill="#007AFF"/>
</svg>
