<svg xmlns="http://www.w3.org/2000/svg" width="32" height="32" fill="none" viewBox="0 0 32 32"><path fill="#007AFF" d="M15.9751 10.7148C17.0542 10.7148 17.9258 9.81836 17.9258 8.78076C17.9258 7.69336 17.0542 6.82178 15.9751 6.82178C14.896 6.82178 14.041 7.69336 14.041 8.78076C14.041 9.81836 14.896 10.7148 15.9751 10.7148ZM18.7559 26.1377C19.1875 26.1377 19.5942 25.814 19.5942 25.2412C19.5942 25.0254 19.5278 24.8262 19.4116 24.5938L17.7017 21.1323C17.5605 20.8418 17.3779 20.543 17.2119 20.3105L16.1245 18.7666L16.1992 18.5425C16.498 17.6294 16.6143 17.0649 16.6807 16.1685L16.855 13.6201C16.938 12.4082 16.2407 11.4121 14.9873 11.4121C14.041 11.4121 13.4185 11.9434 12.5552 12.7817L11.2188 14.1016C10.7622 14.5581 10.6211 14.9233 10.5796 15.4878L10.4136 17.5713C10.3721 18.1191 10.6792 18.4761 11.1689 18.5093C11.6338 18.5425 11.9824 18.2603 12.0322 17.6792L12.2231 15.3799L13.0117 14.6826C13.1611 14.5498 13.3687 14.6162 13.3521 14.832L13.2026 16.8906C13.1362 17.8701 13.5513 18.584 14.0327 19.1899L15.7676 21.3813C15.9502 21.5972 15.9668 21.6802 16.0415 21.8296L17.8926 25.5649C18.1084 25.9966 18.4238 26.1377 18.7559 26.1377ZM19.0962 16.542H21.0054C21.5532 16.542 21.9102 16.2349 21.9102 15.7368C21.9102 15.2471 21.5532 14.9233 21.0054 14.9233H18.98L17.5605 13.3794L17.4111 15.5542L18.0254 16.1685C18.3242 16.459 18.5981 16.542 19.0962 16.542ZM10.9116 26.1377C11.1938 26.1377 11.4429 26.0132 11.6006 25.8223L14.1987 22.7261C14.4644 22.4106 14.4976 22.3359 14.6055 22.0205C14.6885 21.7798 14.7466 21.5557 14.8047 21.3232L13.3521 19.522L12.9204 21.5972L10.48 24.4858C10.2476 24.7515 10.0815 24.9673 10.0815 25.3159C10.0815 25.8057 10.4385 26.1377 10.9116 26.1377Z"/></svg>