<svg xmlns="http://www.w3.org/2000/svg" width="32" height="32" fill="none" viewBox="0 0 32 32"><path fill="#007AFF" d="M9.6333 21.3359C9.35107 21.6182 9.34277 22.0996 9.6333 22.3818C9.92383 22.6641 10.4053 22.6641 10.6875 22.3818L16 17.0693L21.3125 22.3818C21.5947 22.6641 22.0845 22.6724 22.3667 22.3818C22.6489 22.0913 22.6489 21.6182 22.3667 21.3359L17.0542 16.0151L22.3667 10.7026C22.6489 10.4204 22.6572 9.93896 22.3667 9.65674C22.0762 9.36621 21.5947 9.36621 21.3125 9.65674L16 14.9692L10.6875 9.65674C10.4053 9.36621 9.91553 9.35791 9.6333 9.65674C9.35107 9.94727 9.35107 10.4204 9.6333 10.7026L14.9458 16.0151L9.6333 21.3359Z"/></svg>