<svg width="32" height="32" viewBox="0 0 32 32" fill="none" xmlns="http://www.w3.org/2000/svg">
<path d="M16 24.4736C20.6318 24.4736 24.4668 20.6304 24.4668 16.0068C24.4668 11.375 20.6235 7.54004 15.9917 7.54004C11.3682 7.54004 7.5332 11.375 7.5332 16.0068C7.5332 20.6304 11.3765 24.4736 16 24.4736ZM16 23.0625C12.082 23.0625 8.95264 19.9248 8.95264 16.0068C8.95264 12.0889 12.0737 8.95117 15.9917 8.95117C19.9097 8.95117 23.0474 12.0889 23.0557 16.0068C23.064 19.9248 19.918 23.0625 16 23.0625ZM13.1611 19.5264C13.3521 19.5264 13.5181 19.4517 13.6426 19.3188L15.9917 16.9531L18.3574 19.3188C18.4819 19.4434 18.6396 19.5264 18.8306 19.5264C19.1958 19.5264 19.4946 19.2192 19.4946 18.854C19.4946 18.6631 19.4282 18.5054 19.2954 18.3809L16.938 16.0234L19.3037 13.6494C19.4448 13.5083 19.5029 13.3672 19.5029 13.1846C19.5029 12.811 19.2041 12.5205 18.8389 12.5205C18.6646 12.5205 18.5234 12.5786 18.3823 12.7197L15.9917 15.0938L13.626 12.728C13.5015 12.5952 13.3521 12.5371 13.1611 12.5371C12.7959 12.5371 12.4971 12.8193 12.4971 13.1929C12.4971 13.3755 12.5718 13.5332 12.6963 13.6577L15.0537 16.0234L12.6963 18.3892C12.5718 18.5054 12.4971 18.6714 12.4971 18.854C12.4971 19.2192 12.7959 19.5264 13.1611 19.5264Z" fill="#007AFF"/>
</svg>
