<svg xmlns="http://www.w3.org/2000/svg" width="32" height="32" fill="none" viewBox="0 0 32 32"><path fill="#007AFF" d="M16 24.4736C20.6318 24.4736 24.4668 20.6304 24.4668 16.0068C24.4668 11.375 20.6235 7.54004 15.9917 7.54004C11.3682 7.54004 7.5332 11.375 7.5332 16.0068C7.5332 20.6304 11.3765 24.4736 16 24.4736ZM13.0698 19.626C12.6963 19.626 12.3892 19.3105 12.3892 18.9287C12.3892 18.7461 12.4639 18.5801 12.5884 18.4473L15.0205 16.0151L12.5884 13.583C12.4639 13.4502 12.3892 13.2842 12.3892 13.1016C12.3892 12.7197 12.6963 12.4209 13.0698 12.4209C13.269 12.4209 13.4268 12.4873 13.5513 12.6201L15.9917 15.0522L18.457 12.6118C18.5981 12.4707 18.7476 12.4043 18.9302 12.4043C19.3037 12.4043 19.6108 12.7114 19.6108 13.085C19.6108 13.2759 19.5527 13.4253 19.4116 13.5747L16.9712 16.0151L19.4033 18.439C19.5361 18.5801 19.6025 18.7378 19.6025 18.9287C19.6025 19.3105 19.2954 19.626 18.9136 19.626C18.7227 19.626 18.5566 19.543 18.4238 19.4185L15.9917 16.9863L13.5762 19.4185C13.4434 19.5513 13.269 19.626 13.0698 19.626Z"/></svg>