<svg xmlns="http://www.w3.org/2000/svg" width="928" height="498" fill="none" viewBox="0 0 928 498"><rect width="928" height="498" fill="#fff"/><mask id="mask0_99_36001" style="mask-type:luminance" width="928" height="498" x="0" y="0" maskUnits="userSpaceOnUse"><rect width="928" height="498" fill="#fff"/></mask><g mask="url(#mask0_99_36001)"><path fill="url(#paint0_linear_99_36001)" fill-rule="evenodd" d="M572.988 0H949.351V153.296H572.988V0Z" clip-rule="evenodd"/><path fill="url(#paint1_linear_99_36001)" fill-rule="evenodd" d="M936.131 79.8553C936.131 79.8553 905.901 70.9553 878.838 70.9553C851.776 70.9553 796.478 67.1103 771.494 59.2791C746.511 51.4479 708.316 34.8384 684.173 24.8001C660.03 14.7619 629.107 0.41004 582.943 -8.06449C536.778 -16.539 175.251 -25.25 175.251 -25.25L296.498 148.811L647.462 306.193L958.935 361.412L936.131 79.8553Z" clip-rule="evenodd"/><path fill="url(#paint2_linear_99_36001)" fill-rule="evenodd" d="M937.244 159.935C937.244 159.935 911.732 143.55 877.17 134.352C842.607 125.154 804.788 117.769 766.488 98.763C728.189 79.7574 678.765 66.5475 651.909 63.1696C625.053 59.7916 598.069 58.1255 577.378 51.4912C556.688 44.857 524.287 27.5762 495.619 22.5755C466.951 17.5749 441.777 19.7407 420.53 15.3439C399.284 10.9471 328.205 -11.3473 328.205 -11.3473L183.035 -20.2451L216.961 75.9602L455.019 213.322L800.973 352.35L982.85 367.921L937.244 159.935Z" clip-rule="evenodd"/><path fill="url(#paint3_linear_99_36001)" fill-rule="evenodd" d="M937.244 159.935C937.244 159.935 911.732 143.55 877.17 134.352C842.607 125.154 804.788 117.769 766.488 98.763C728.189 79.7574 678.765 66.5475 651.909 63.1696C625.053 59.7916 598.069 58.1255 577.378 51.4912C556.688 44.857 524.287 27.5762 495.619 22.5755C466.951 17.5749 441.777 19.7407 420.53 15.3439C399.284 10.9471 328.205 -11.3473 328.205 -11.3473L183.035 -20.2451L216.961 75.9602L455.019 213.322L800.973 352.35L982.85 367.921L937.244 159.935Z" clip-rule="evenodd"/><path fill="url(#paint4_linear_99_36001)" fill-rule="evenodd" d="M353.086 60.4397C353.086 60.4397 371.129 64.715 390.539 70.2602C409.948 75.8053 439.569 81.3817 466.766 83.0507C493.964 84.7196 519.293 83.0889 543.774 81.2175C568.254 79.346 586.875 81.2175 607.48 87.2064C619.65 90.7436 625.657 96.0264 634.26 99.3831C640.769 101.923 649.424 103.455 656.35 104.696C672.431 107.578 688.701 112.893 707.873 122.465C727.045 132.037 748.806 139.64 768.379 142.936C787.952 146.233 820.977 147.925 853.637 152.102C886.298 156.279 908.007 163.861 920.56 168.907C933.113 173.953 946.841 182.656 946.841 182.656L965.127 361.411L714.388 329.854L262.006 41.4619L353.086 60.4397Z" clip-rule="evenodd"/><g filter="url(#filter0_f_99_36001)"><path fill="url(#paint5_linear_99_36001)" fill-rule="evenodd" d="M935.121 249C935.121 249 894.359 233.537 866.056 221.85C837.752 210.162 779.905 189.47 725.863 181.654C671.821 173.838 602.264 157.578 567.093 148.672C531.923 139.767 376.413 99.2002 376.413 99.2002L361.985 148.672L647.462 306.192L949.647 377.484L935.121 249Z" clip-rule="evenodd"/></g><g filter="url(#filter1_f_99_36001)"><path fill="#F9A43F" fill-rule="evenodd" d="M506.642 122.264L619.008 162.379C619.008 162.379 535.408 144.872 523.83 144.672C518.593 144.582 418.167 116.391 414.762 109.548C413.147 106.304 506.642 122.264 506.642 122.264Z" clip-rule="evenodd"/></g><g filter="url(#filter2_f_99_36001)"><path fill="url(#paint6_linear_99_36001)" fill-rule="evenodd" d="M367.798 76.6484C367.798 76.6484 486.379 81.5238 532.095 117.889C577.811 154.254 680.71 201.438 680.71 201.438C680.71 201.438 519.229 173.839 470.776 173.839C422.323 173.839 361.985 125.244 361.985 125.244L367.798 76.6484Z" clip-rule="evenodd"/></g><path fill="url(#paint7_linear_99_36001)" fill-rule="evenodd" d="M254.221 0.000273705C254.221 0.000273705 294.822 17.3878 331.774 42.469C368.726 67.5503 379.892 81.8046 397.141 93.8806C414.39 105.957 455.236 116.607 480.801 125.248C506.366 133.89 529.627 150.735 544.414 165.329C559.202 179.924 588.188 190.499 615.003 197.568C641.817 204.638 664.844 213.366 685.63 229.873C706.415 246.381 729.152 253.161 752.894 257.427C776.636 261.693 786.12 263.578 805.439 285.745C824.757 307.913 838.069 306.689 875.939 304.489C913.81 302.29 944.418 310.841 944.418 310.841L949.647 519.087L-8.0957 514.727V-8.06445L240.547 -8.06445L254.221 0.000273705Z" clip-rule="evenodd"/><g filter="url(#filter3_f_99_36001)"><path fill="url(#paint8_linear_99_36001)" fill-rule="evenodd" d="M0.361888 76.6475L-0.0109253 497.276L928.362 498.078L928.11 386.049C928.11 386.049 863.946 397.539 782.642 397.539C701.338 397.539 613.037 384.281 523.83 325.231C434.622 266.182 383.808 266.289 298.598 249.12C213.388 231.952 199.841 220.968 146.142 194.524C92.4429 168.08 0.361888 76.6475 0.361888 76.6475Z" clip-rule="evenodd"/></g><g filter="url(#filter4_f_99_36001)"><path fill="url(#paint9_linear_99_36001)" fill-rule="evenodd" d="M3.1013e-07 153.41L-0.0109253 497.052H852.124C852.124 497.052 405.559 357.805 312.369 323.675C219.179 289.545 189.508 216.98 146.504 184.533C103.5 152.086 3.1013e-07 153.41 3.1013e-07 153.41Z" clip-rule="evenodd"/></g><g filter="url(#filter5_f_99_36001)"><path fill="url(#paint10_linear_99_36001)" fill-rule="evenodd" d="M395 269.443C395 269.443 317.718 235.196 271.63 211.061C225.542 186.925 11.5549 115.133 -8.0957 115.133C-27.7463 115.133 -13.6692 159.011 -13.6692 159.011C-13.6692 159.011 55.8024 202.338 179.701 238.342C303.6 274.346 395 269.443 395 269.443Z" clip-rule="evenodd"/></g><g filter="url(#filter6_f_99_36001)"><path fill="url(#paint11_radial_99_36001)" d="M329.619 248.034C351.043 255.657 375.338 264.176 387.461 267.151C387.461 268.739 373.468 268.96 355.856 269.443C338.244 269.925 261.725 264.498 218.218 260.517L203.924 228.375L228.351 209.318C253.18 219.048 308.195 240.412 329.619 248.034Z"/></g><g filter="url(#filter7_f_99_36001)"><path fill="url(#paint12_linear_99_36001)" fill-rule="evenodd" d="M0.361887 41.4619C0.361887 41.4619 126.811 66.172 215.135 139.042C303.459 211.912 381.429 270.026 381.429 270.026C381.429 270.026 335.84 290.017 292.827 286.811C248.354 283.495 200.509 270.026 158.446 270.026C60.1047 270.026 4.10139 270.026 4.10139 270.026C4.10139 270.026 1.21768 345.12 -0.0109265 270.026C-1.23954 194.931 0.361887 41.4619 0.361887 41.4619Z" clip-rule="evenodd"/></g><g filter="url(#filter8_bf_99_36001)"><path fill="url(#paint13_linear_99_36001)" d="M-0.361889 498.18V138.821C55.2079 159.647 285.19 266.699 357.304 295.072C463.216 336.743 855.623 454.197 928.543 498.18H-0.361889Z"/></g><g filter="url(#filter9_f_99_36001)"><path fill="url(#paint14_linear_99_36001)" fill-rule="evenodd" d="M0.361885 270.77L0.361889 498.241L928.362 555.41V447.826C928.362 447.826 716.954 445.981 430.043 408.326C143.132 370.67 0.361885 270.77 0.361885 270.77Z" clip-rule="evenodd"/></g><g filter="url(#filter10_f_99_36001)"><path fill="#F11454" fill-rule="evenodd" d="M624.557 374.193C624.557 374.193 698.258 392.423 746.256 392.423C794.254 392.423 928 384.954 928 384.954L927.638 429.826C927.638 429.826 809.503 429.302 738.095 413.576C666.687 397.849 624.557 374.193 624.557 374.193Z" clip-rule="evenodd"/></g><g filter="url(#filter11_f_99_36001)"><path fill="url(#paint15_linear_99_36001)" fill-rule="evenodd" d="M603.146 366.956C603.146 366.956 777.952 377.484 822.018 367.921C866.083 358.357 928 333.549 928 333.549L928.965 451.091C928.965 451.091 799.108 456.927 735.054 433.352C671 409.777 603.146 366.956 603.146 366.956Z" clip-rule="evenodd"/></g></g><defs><filter id="filter0_f_99_36001" width="598.535" height="289.157" x="356.548" y="93.764" color-interpolation-filters="sRGB" filterUnits="userSpaceOnUse"><feFlood flood-opacity="0" result="BackgroundImageFix"/><feBlend in="SourceGraphic" in2="BackgroundImageFix" mode="normal" result="shape"/><feGaussianBlur result="effect1_foregroundBlur_99_36001" stdDeviation="2.718"/></filter><filter id="filter1_f_99_36001" width="258.632" height="107.632" x="387.558" y="81.93" color-interpolation-filters="sRGB" filterUnits="userSpaceOnUse"><feFlood flood-opacity="0" result="BackgroundImageFix"/><feBlend in="SourceGraphic" in2="BackgroundImageFix" mode="normal" result="shape"/><feGaussianBlur result="effect1_foregroundBlur_99_36001" stdDeviation="13.591"/></filter><filter id="filter2_f_99_36001" width="590.553" height="396.617" x="226.071" y="-59.266" color-interpolation-filters="sRGB" filterUnits="userSpaceOnUse"><feFlood flood-opacity="0" result="BackgroundImageFix"/><feBlend in="SourceGraphic" in2="BackgroundImageFix" mode="normal" result="shape"/><feGaussianBlur result="effect1_foregroundBlur_99_36001" stdDeviation="67.957"/></filter><filter id="filter3_f_99_36001" width="948.373" height="441.43" x="-10.011" y="66.647" color-interpolation-filters="sRGB" filterUnits="userSpaceOnUse"><feFlood flood-opacity="0" result="BackgroundImageFix"/><feBlend in="SourceGraphic" in2="BackgroundImageFix" mode="normal" result="shape"/><feGaussianBlur result="effect1_foregroundBlur_99_36001" stdDeviation="5"/></filter><filter id="filter4_f_99_36001" width="1052.14" height="543.649" x="-100.011" y="53.402" color-interpolation-filters="sRGB" filterUnits="userSpaceOnUse"><feFlood flood-opacity="0" result="BackgroundImageFix"/><feBlend in="SourceGraphic" in2="BackgroundImageFix" mode="normal" result="shape"/><feGaussianBlur result="effect1_foregroundBlur_99_36001" stdDeviation="50"/></filter><filter id="filter5_f_99_36001" width="573.552" height="314.535" x="-98.552" y="35.133" color-interpolation-filters="sRGB" filterUnits="userSpaceOnUse"><feFlood flood-opacity="0" result="BackgroundImageFix"/><feBlend in="SourceGraphic" in2="BackgroundImageFix" mode="normal" result="shape"/><feGaussianBlur result="effect1_foregroundBlur_99_36001" stdDeviation="40"/></filter><filter id="filter6_f_99_36001" width="383.537" height="260.154" x="103.924" y="109.318" color-interpolation-filters="sRGB" filterUnits="userSpaceOnUse"><feFlood flood-opacity="0" result="BackgroundImageFix"/><feBlend in="SourceGraphic" in2="BackgroundImageFix" mode="normal" result="shape"/><feGaussianBlur result="effect1_foregroundBlur_99_36001" stdDeviation="50"/></filter><filter id="filter7_f_99_36001" width="781.904" height="661.939" x="-200.475" y="-158.538" color-interpolation-filters="sRGB" filterUnits="userSpaceOnUse"><feFlood flood-opacity="0" result="BackgroundImageFix"/><feBlend in="SourceGraphic" in2="BackgroundImageFix" mode="normal" result="shape"/><feGaussianBlur result="effect1_foregroundBlur_99_36001" stdDeviation="100"/></filter><filter id="filter8_bf_99_36001" width="1428.9" height="859.358" x="-250.362" y="-111.179" color-interpolation-filters="sRGB" filterUnits="userSpaceOnUse"><feFlood flood-opacity="0" result="BackgroundImageFix"/><feGaussianBlur in="BackgroundImageFix" stdDeviation="100"/><feComposite in2="SourceAlpha" operator="in" result="effect1_backgroundBlur_99_36001"/><feBlend in="SourceGraphic" in2="effect1_backgroundBlur_99_36001" mode="normal" result="shape"/><feGaussianBlur result="effect2_foregroundBlur_99_36001" stdDeviation="125"/></filter><filter id="filter9_f_99_36001" width="1128" height="484.641" x="-99.638" y="170.77" color-interpolation-filters="sRGB" filterUnits="userSpaceOnUse"><feFlood flood-opacity="0" result="BackgroundImageFix"/><feBlend in="SourceGraphic" in2="BackgroundImageFix" mode="normal" result="shape"/><feGaussianBlur result="effect1_foregroundBlur_99_36001" stdDeviation="50"/></filter><filter id="filter10_f_99_36001" width="330.625" height="82.816" x="610.966" y="360.602" color-interpolation-filters="sRGB" filterUnits="userSpaceOnUse"><feFlood flood-opacity="0" result="BackgroundImageFix"/><feBlend in="SourceGraphic" in2="BackgroundImageFix" mode="normal" result="shape"/><feGaussianBlur result="effect1_foregroundBlur_99_36001" stdDeviation="6.796"/></filter><filter id="filter11_f_99_36001" width="725.819" height="518.182" x="403.146" y="133.549" color-interpolation-filters="sRGB" filterUnits="userSpaceOnUse"><feFlood flood-opacity="0" result="BackgroundImageFix"/><feBlend in="SourceGraphic" in2="BackgroundImageFix" mode="normal" result="shape"/><feGaussianBlur result="effect1_foregroundBlur_99_36001" stdDeviation="100"/></filter><linearGradient id="paint0_linear_99_36001" x1="949.351" x2="708.778" y1="-32.102" y2="-32.102" gradientUnits="userSpaceOnUse"><stop stop-color="#036DB1"/><stop offset="1" stop-color="#1080C3"/></linearGradient><linearGradient id="paint1_linear_99_36001" x1="459.839" x2="459.839" y1="-7.004" y2="98.832" gradientUnits="userSpaceOnUse"><stop stop-color="#3E9FD7"/><stop offset="1" stop-color="#1179BA"/></linearGradient><linearGradient id="paint2_linear_99_36001" x1="370.991" x2="380.938" y1="-10.094" y2="173.911" gradientUnits="userSpaceOnUse"><stop stop-color="#2A8AC4"/><stop offset="1" stop-color="#1175B3"/></linearGradient><linearGradient id="paint3_linear_99_36001" x1="269.216" x2="367.144" y1="50" y2="188.789" gradientUnits="userSpaceOnUse"><stop stop-color="#4DB0E5"/><stop offset="1" stop-color="#2A89C3" stop-opacity=".01"/></linearGradient><linearGradient id="paint4_linear_99_36001" x1="502.52" x2="499.548" y1="71.438" y2="185.824" gradientUnits="userSpaceOnUse"><stop stop-color="#B3CAF5"/><stop offset="1" stop-color="#E2EEF6"/></linearGradient><linearGradient id="paint5_linear_99_36001" x1="657.701" x2="653.077" y1="173.231" y2="261.4" gradientUnits="userSpaceOnUse"><stop stop-color="#F99E3D"/><stop offset="1" stop-color="#F9C146"/></linearGradient><linearGradient id="paint6_linear_99_36001" x1="400.674" x2="397.458" y1="102.863" y2="197.953" gradientUnits="userSpaceOnUse"><stop stop-color="#C5D8F6"/><stop offset=".385" stop-color="#F9A43E"/><stop offset="1" stop-color="#F9AF41"/></linearGradient><linearGradient id="paint7_linear_99_36001" x1="153.948" x2="120.737" y1="-1.719" y2="353.986" gradientUnits="userSpaceOnUse"><stop stop-color="#F24067"/><stop offset=".575" stop-color="#FE5F49"/><stop offset="1" stop-color="#FB5951"/></linearGradient><linearGradient id="paint8_linear_99_36001" x1="286.633" x2="269.814" y1="302.024" y2="475.72" gradientUnits="userSpaceOnUse"><stop stop-color="#F11454"/><stop offset="1" stop-color="#C22D7C"/></linearGradient><linearGradient id="paint9_linear_99_36001" x1="17.009" x2="-62.083" y1="178.744" y2="511.164" gradientUnits="userSpaceOnUse"><stop offset=".245" stop-color="#C22B7A" stop-opacity=".01"/><stop offset=".832" stop-color="#2C4270"/></linearGradient><linearGradient id="paint10_linear_99_36001" x1="177.84" x2="175.043" y1="193.273" y2="241.132" gradientUnits="userSpaceOnUse"><stop stop-color="#F21555"/><stop offset="1" stop-color="#F11556"/></linearGradient><radialGradient id="paint11_radial_99_36001" cx="0" cy="0" r="1" gradientTransform="translate(203.984 241.702) rotate(8.15194) scale(169.264 516.285)" gradientUnits="userSpaceOnUse"><stop stop-color="#F11655"/><stop offset="1" stop-color="#F21656" stop-opacity="0"/></radialGradient><linearGradient id="paint12_linear_99_36001" x1="175.817" x2="27.692" y1="62.656" y2="316.819" gradientUnits="userSpaceOnUse"><stop stop-color="#FD5E49" stop-opacity=".51"/><stop offset=".437" stop-color="#EB1759"/><stop offset=".676" stop-color="#F21555"/><stop offset=".902" stop-color="#EF1757"/></linearGradient><linearGradient id="paint13_linear_99_36001" x1="135.044" x2="233.994" y1="475.565" y2="242.957" gradientUnits="userSpaceOnUse"><stop offset=".07" stop-color="#443F75"/><stop offset=".432" stop-color="#813779"/><stop offset=".951" stop-color="#DA1E6A"/></linearGradient><linearGradient id="paint14_linear_99_36001" x1="181.969" x2="174.99" y1="413.09" y2="524.929" gradientUnits="userSpaceOnUse"><stop stop-color="#A82F7E" stop-opacity=".01"/><stop offset="1" stop-color="#3E4579"/></linearGradient><linearGradient id="paint15_linear_99_36001" x1="677.697" x2="676.666" y1="362.629" y2="436.206" gradientUnits="userSpaceOnUse"><stop stop-color="#FD5F48"/><stop offset="1" stop-color="#D5216D"/></linearGradient></defs></svg>